%TF.GenerationSoftware,KiCad,Pcbnew,7.0.8*%
%TF.CreationDate,2023-10-28T23:27:17-04:00*%
%TF.ProjectId,AmazonBasicsSecureFrontend,416d617a-6f6e-4426-9173-696373536563,rev?*%
%TF.SameCoordinates,Original*%
%TF.FileFunction,Copper,L2,Bot*%
%TF.FilePolarity,Positive*%
%FSLAX46Y46*%
G04 Gerber Fmt 4.6, Leading zero omitted, Abs format (unit mm)*
G04 Created by KiCad (PCBNEW 7.0.8) date 2023-10-28 23:27:17*
%MOMM*%
%LPD*%
G01*
G04 APERTURE LIST*
G04 Aperture macros list*
%AMRoundRect*
0 Rectangle with rounded corners*
0 $1 Rounding radius*
0 $2 $3 $4 $5 $6 $7 $8 $9 X,Y pos of 4 corners*
0 Add a 4 corners polygon primitive as box body*
4,1,4,$2,$3,$4,$5,$6,$7,$8,$9,$2,$3,0*
0 Add four circle primitives for the rounded corners*
1,1,$1+$1,$2,$3*
1,1,$1+$1,$4,$5*
1,1,$1+$1,$6,$7*
1,1,$1+$1,$8,$9*
0 Add four rect primitives between the rounded corners*
20,1,$1+$1,$2,$3,$4,$5,0*
20,1,$1+$1,$4,$5,$6,$7,0*
20,1,$1+$1,$6,$7,$8,$9,0*
20,1,$1+$1,$8,$9,$2,$3,0*%
G04 Aperture macros list end*
%TA.AperFunction,SMDPad,CuDef*%
%ADD10RoundRect,0.250000X0.525000X0.250000X-0.525000X0.250000X-0.525000X-0.250000X0.525000X-0.250000X0*%
%TD*%
%TA.AperFunction,ComponentPad*%
%ADD11R,1.700000X1.700000*%
%TD*%
%TA.AperFunction,ComponentPad*%
%ADD12O,1.700000X1.700000*%
%TD*%
%TA.AperFunction,HeatsinkPad*%
%ADD13C,0.600000*%
%TD*%
%TA.AperFunction,SMDPad,CuDef*%
%ADD14R,0.700000X0.700000*%
%TD*%
%TA.AperFunction,SMDPad,CuDef*%
%ADD15RoundRect,0.087500X-0.187500X-0.087500X0.187500X-0.087500X0.187500X0.087500X-0.187500X0.087500X0*%
%TD*%
%TA.AperFunction,SMDPad,CuDef*%
%ADD16RoundRect,0.175000X-0.175000X-0.625000X0.175000X-0.625000X0.175000X0.625000X-0.175000X0.625000X0*%
%TD*%
%TA.AperFunction,SMDPad,CuDef*%
%ADD17R,1.100000X1.800000*%
%TD*%
%TA.AperFunction,ViaPad*%
%ADD18C,0.800000*%
%TD*%
%TA.AperFunction,Conductor*%
%ADD19C,0.250000*%
%TD*%
G04 APERTURE END LIST*
D10*
%TO.P,REF\u002A\u002A,1*%
%TO.N,SW_MAIN*%
X123910000Y-105080000D03*
X118660000Y-105080000D03*
%TO.P,REF\u002A\u002A,2*%
%TO.N,GND*%
X123910000Y-108280000D03*
X118660000Y-108280000D03*
%TD*%
D11*
%TO.P,J1,1,Pin_1*%
%TO.N,GND*%
X131064000Y-96774000D03*
D12*
%TO.P,J1,2,Pin_2*%
%TO.N,RX*%
X131064000Y-94234000D03*
%TO.P,J1,3,Pin_3*%
%TO.N,TX*%
X131064000Y-91694000D03*
%TO.P,J1,4,Pin_4*%
%TO.N,+3V3*%
X131064000Y-89154000D03*
%TD*%
D13*
%TO.P,U1,41,EPAD*%
%TO.N,GND*%
X115310000Y-95374000D03*
X115310000Y-96774000D03*
X116010000Y-94674000D03*
X116010000Y-96074000D03*
X116010000Y-97474000D03*
X116710000Y-95374000D03*
X116710000Y-96774000D03*
X117410000Y-94674000D03*
X117410000Y-96074000D03*
X117410000Y-97474000D03*
X118110000Y-95374000D03*
X118110000Y-96774000D03*
%TD*%
D11*
%TO.P,J2,1,Pin_1*%
%TO.N,GND*%
X133310000Y-110236000D03*
D12*
%TO.P,J2,2,Pin_2*%
%TO.N,+3V3*%
X135850000Y-110236000D03*
%TO.P,J2,3,Pin_3*%
%TO.N,3W*%
X133310000Y-107696000D03*
%TO.P,J2,4,Pin_4*%
%TO.N,RELAY*%
X135850000Y-107696000D03*
%TD*%
D14*
%TO.P,U3,1,DOUT*%
%TO.N,unconnected-(U3-DOUT-Pad1)*%
X121835000Y-117755000D03*
%TO.P,U3,2,GND*%
%TO.N,GND*%
X120735000Y-117755000D03*
%TO.P,U3,3,DIN*%
%TO.N,LED_IN*%
X120735000Y-115925000D03*
%TO.P,U3,4,VCC*%
%TO.N,+3V3*%
X121835000Y-115925000D03*
%TD*%
D15*
%TO.P,U2,1,VDD*%
%TO.N,+3V3*%
X134203000Y-121404000D03*
%TO.P,U2,2,SCL*%
%TO.N,SCL*%
X134203000Y-120404000D03*
%TO.P,U2,3,SDA*%
%TO.N,SDA*%
X136053000Y-120404000D03*
%TO.P,U2,4,VSS*%
%TO.N,GND*%
X136053000Y-121404000D03*
D16*
%TO.P,U2,5,NC*%
X135128000Y-120904000D03*
%TD*%
D17*
%TO.P,SW1,1,1*%
%TO.N,RST*%
X106498000Y-106986000D03*
X106498000Y-100786000D03*
%TO.P,SW1,2,2*%
%TO.N,GND*%
X102798000Y-106986000D03*
X102798000Y-100786000D03*
%TD*%
D18*
%TO.N,GND*%
X130683000Y-120015000D03*
X133350000Y-122936000D03*
X136398000Y-87884000D03*
X128778000Y-87757000D03*
X128905000Y-90678000D03*
X133223000Y-91948000D03*
X129032000Y-94869000D03*
X132080000Y-102235000D03*
X133731000Y-104013000D03*
X128397000Y-106045000D03*
X122301000Y-103505000D03*
X120523000Y-100838000D03*
X122301000Y-90043000D03*
X120396000Y-88646000D03*
X111506000Y-90932000D03*
X107696000Y-94615000D03*
X105918000Y-93091000D03*
X108077000Y-106299000D03*
X116662200Y-107645200D03*
X118745000Y-117221000D03*
X136906000Y-116840000D03*
X134874000Y-117729000D03*
X137160000Y-122682000D03*
X128778000Y-122809000D03*
X128397000Y-117221000D03*
%TO.N,SW_MAIN*%
X115189000Y-104521000D03*
%TO.N,GND*%
X120269000Y-114300000D03*
%TO.N,LED_IN*%
X118491000Y-115189000D03*
%TO.N,GND*%
X130302000Y-103632000D03*
%TO.N,RELAY*%
X128778000Y-102362000D03*
%TO.N,GND*%
X112522000Y-103632000D03*
X118872000Y-109982000D03*
X122428000Y-111379000D03*
X126238000Y-109474000D03*
X135128000Y-116332000D03*
%TO.N,+3V3*%
X111252000Y-89662000D03*
%TO.N,SCL*%
X132334000Y-119634000D03*
%TO.N,SDA*%
X136053000Y-119634000D03*
%TO.N,RST*%
X106680000Y-99060000D03*
%TD*%
D19*
%TO.N,+3V3*%
X135850000Y-112435000D02*
X135255000Y-113030000D01*
X125984000Y-117856000D02*
X129532000Y-121404000D01*
X135850000Y-110236000D02*
X135850000Y-112435000D01*
X124053000Y-115925000D02*
X125984000Y-117856000D01*
X135255000Y-113030000D02*
X130810000Y-113030000D01*
X130810000Y-113030000D02*
X125984000Y-117856000D01*
X121835000Y-115925000D02*
X124053000Y-115925000D01*
X129532000Y-121404000D02*
X134203000Y-121404000D01*
%TO.N,SW_MAIN*%
X115189000Y-104521000D02*
X117856000Y-104521000D01*
X117856000Y-104521000D02*
X118415000Y-105080000D01*
X118415000Y-105080000D02*
X118660000Y-105080000D01*
%TO.N,+3V3*%
X121835000Y-115925000D02*
X121835000Y-114088000D01*
X121835000Y-114088000D02*
X121285000Y-113538000D01*
X121285000Y-113538000D02*
X121285000Y-90043000D01*
X121285000Y-90043000D02*
X120904000Y-89662000D01*
X131064000Y-89154000D02*
X121412000Y-89154000D01*
X121412000Y-89154000D02*
X120904000Y-89662000D01*
X120904000Y-89662000D02*
X111252000Y-89662000D01*
%TO.N,LED_IN*%
X118491000Y-115189000D02*
X119227000Y-115925000D01*
X119227000Y-115925000D02*
X120735000Y-115925000D01*
%TO.N,RELAY*%
X128778000Y-102362000D02*
X130516000Y-102362000D01*
X130516000Y-102362000D02*
X135850000Y-107696000D01*
%TO.N,SCL*%
X133104000Y-120404000D02*
X134203000Y-120404000D01*
X132334000Y-119634000D02*
X133104000Y-120404000D01*
%TO.N,GND*%
X136906000Y-118110000D02*
X135128000Y-116332000D01*
X137168000Y-121404000D02*
X137414000Y-121158000D01*
X137414000Y-121158000D02*
X137414000Y-118618000D01*
X136053000Y-121404000D02*
X137168000Y-121404000D01*
X137414000Y-118618000D02*
X136906000Y-118110000D01*
%TO.N,SDA*%
X136053000Y-119634000D02*
X136053000Y-120404000D01*
%TO.N,RST*%
X106680000Y-100604000D02*
X106498000Y-100786000D01*
X106680000Y-99060000D02*
X106680000Y-100604000D01*
%TD*%
%TA.AperFunction,Conductor*%
%TO.N,GND*%
G36*
X137360539Y-86883685D02*
G01*
X137406294Y-86936489D01*
X137417500Y-86988000D01*
X137417500Y-89879114D01*
X137415117Y-89903306D01*
X137412592Y-89915999D01*
X137412592Y-89916000D01*
X137416688Y-89936591D01*
X137416689Y-89936597D01*
X137432032Y-90013736D01*
X137432033Y-90013739D01*
X137446894Y-90035980D01*
X137487399Y-90096601D01*
X137570260Y-90151966D01*
X137602840Y-90158446D01*
X137667998Y-90171408D01*
X137668000Y-90171408D01*
X137668001Y-90171408D01*
X137680694Y-90168883D01*
X137704886Y-90166500D01*
X138309500Y-90166500D01*
X138376539Y-90186185D01*
X138422294Y-90238989D01*
X138433500Y-90290500D01*
X138433500Y-109861500D01*
X138413815Y-109928539D01*
X138361011Y-109974294D01*
X138309500Y-109985500D01*
X137704886Y-109985500D01*
X137680694Y-109983117D01*
X137668001Y-109980592D01*
X137667999Y-109980592D01*
X137643325Y-109985500D01*
X137570263Y-110000032D01*
X137570260Y-110000033D01*
X137487399Y-110055399D01*
X137432033Y-110138261D01*
X137412592Y-110235997D01*
X137412592Y-110235998D01*
X137415117Y-110248691D01*
X137417500Y-110272885D01*
X137417500Y-111890000D01*
X137397815Y-111957039D01*
X137345011Y-112002794D01*
X137293500Y-112014000D01*
X136349500Y-112014000D01*
X136282461Y-111994315D01*
X136236706Y-111941511D01*
X136225500Y-111890000D01*
X136225500Y-111355668D01*
X136245185Y-111288629D01*
X136297989Y-111242874D01*
X136304679Y-111240052D01*
X136342637Y-111225348D01*
X136516041Y-111117981D01*
X136666764Y-110980579D01*
X136789673Y-110817821D01*
X136880582Y-110635250D01*
X136936397Y-110439083D01*
X136955215Y-110236000D01*
X136936397Y-110032917D01*
X136880582Y-109836750D01*
X136789673Y-109654179D01*
X136666764Y-109491421D01*
X136666762Y-109491418D01*
X136516041Y-109354019D01*
X136516039Y-109354017D01*
X136342642Y-109246655D01*
X136342635Y-109246651D01*
X136237082Y-109205760D01*
X136152456Y-109172976D01*
X135951976Y-109135500D01*
X135748024Y-109135500D01*
X135547544Y-109172976D01*
X135547541Y-109172976D01*
X135547541Y-109172977D01*
X135357364Y-109246651D01*
X135357357Y-109246655D01*
X135183960Y-109354017D01*
X135183958Y-109354019D01*
X135033237Y-109491418D01*
X134910327Y-109654178D01*
X134819422Y-109836739D01*
X134819417Y-109836752D01*
X134763602Y-110032917D01*
X134744785Y-110235999D01*
X134744785Y-110236000D01*
X134763602Y-110439082D01*
X134819417Y-110635247D01*
X134819422Y-110635260D01*
X134910327Y-110817821D01*
X135033237Y-110980581D01*
X135183958Y-111117980D01*
X135183960Y-111117982D01*
X135283141Y-111179392D01*
X135357363Y-111225348D01*
X135395293Y-111240042D01*
X135450694Y-111282612D01*
X135474286Y-111348378D01*
X135474500Y-111355668D01*
X135474500Y-111890000D01*
X135454815Y-111957039D01*
X135402011Y-112002794D01*
X135350500Y-112014000D01*
X123190000Y-112014000D01*
X123190000Y-115425500D01*
X123170315Y-115492539D01*
X123117511Y-115538294D01*
X123066000Y-115549500D01*
X122533744Y-115549500D01*
X122466705Y-115529815D01*
X122429153Y-115486478D01*
X122427752Y-115487415D01*
X122400866Y-115447177D01*
X122365601Y-115394399D01*
X122319690Y-115363723D01*
X122272585Y-115332248D01*
X122273924Y-115330243D01*
X122232640Y-115296970D01*
X122210579Y-115230675D01*
X122210500Y-115226256D01*
X122210500Y-114139803D01*
X122213139Y-114114358D01*
X122213785Y-114111274D01*
X122215367Y-114103731D01*
X122213287Y-114087051D01*
X122210977Y-114068508D01*
X122210500Y-114060832D01*
X122210500Y-114056889D01*
X122210499Y-114056883D01*
X122206655Y-114033846D01*
X122199865Y-113979373D01*
X122197617Y-113971827D01*
X122195065Y-113964390D01*
X122168942Y-113916119D01*
X122144826Y-113866788D01*
X122144823Y-113866785D01*
X122144823Y-113866784D01*
X122140267Y-113860402D01*
X122135423Y-113854178D01*
X122135419Y-113854174D01*
X122095041Y-113817003D01*
X121696819Y-113418781D01*
X121663334Y-113357458D01*
X121660500Y-113331100D01*
X121660500Y-111110628D01*
X132210000Y-111110628D01*
X132224503Y-111183540D01*
X132224505Y-111183544D01*
X132279760Y-111266239D01*
X132362455Y-111321494D01*
X132362459Y-111321496D01*
X132435371Y-111335999D01*
X132435374Y-111336000D01*
X133060000Y-111336000D01*
X133060000Y-110671501D01*
X133167685Y-110720680D01*
X133274237Y-110736000D01*
X133345763Y-110736000D01*
X133452315Y-110720680D01*
X133560000Y-110671501D01*
X133560000Y-111336000D01*
X134184626Y-111336000D01*
X134184628Y-111335999D01*
X134257540Y-111321496D01*
X134257544Y-111321494D01*
X134340239Y-111266239D01*
X134395494Y-111183544D01*
X134395496Y-111183540D01*
X134409999Y-111110628D01*
X134410000Y-111110626D01*
X134410000Y-110486000D01*
X133743686Y-110486000D01*
X133769493Y-110445844D01*
X133810000Y-110307889D01*
X133810000Y-110164111D01*
X133769493Y-110026156D01*
X133743686Y-109986000D01*
X134410000Y-109986000D01*
X134410000Y-109361373D01*
X134409999Y-109361371D01*
X134395496Y-109288459D01*
X134395494Y-109288455D01*
X134340239Y-109205760D01*
X134257544Y-109150505D01*
X134257540Y-109150503D01*
X134184627Y-109136000D01*
X133560000Y-109136000D01*
X133560000Y-109800498D01*
X133452315Y-109751320D01*
X133345763Y-109736000D01*
X133274237Y-109736000D01*
X133167685Y-109751320D01*
X133060000Y-109800498D01*
X133060000Y-109136000D01*
X132435373Y-109136000D01*
X132362459Y-109150503D01*
X132362455Y-109150505D01*
X132279760Y-109205760D01*
X132224505Y-109288455D01*
X132224503Y-109288459D01*
X132210000Y-109361371D01*
X132210000Y-109986000D01*
X132876314Y-109986000D01*
X132850507Y-110026156D01*
X132810000Y-110164111D01*
X132810000Y-110307889D01*
X132850507Y-110445844D01*
X132876314Y-110486000D01*
X132210000Y-110486000D01*
X132210000Y-111110628D01*
X121660500Y-111110628D01*
X121660500Y-109029999D01*
X123513553Y-109029999D01*
X123513554Y-109030000D01*
X124306446Y-109030000D01*
X124306446Y-109029999D01*
X123910001Y-108633553D01*
X123909999Y-108633553D01*
X123513553Y-109029999D01*
X121660500Y-109029999D01*
X121660500Y-108577844D01*
X122885000Y-108577844D01*
X122891401Y-108637372D01*
X122891402Y-108637376D01*
X122941649Y-108772093D01*
X122994180Y-108842264D01*
X122994182Y-108842265D01*
X123556447Y-108280000D01*
X124263553Y-108280000D01*
X124825817Y-108842264D01*
X124878351Y-108772090D01*
X124928597Y-108637376D01*
X124928598Y-108637372D01*
X124934999Y-108577844D01*
X124935000Y-108577827D01*
X124935000Y-107982172D01*
X124934999Y-107982155D01*
X124928598Y-107922627D01*
X124928597Y-107922623D01*
X124878352Y-107787911D01*
X124878351Y-107787910D01*
X124825817Y-107717733D01*
X124263553Y-108279999D01*
X124263553Y-108280000D01*
X123556447Y-108280000D01*
X123556447Y-108279999D01*
X122994181Y-107717733D01*
X122941647Y-107787910D01*
X122941645Y-107787913D01*
X122891403Y-107922620D01*
X122891401Y-107922627D01*
X122885000Y-107982155D01*
X122885000Y-108577844D01*
X121660500Y-108577844D01*
X121660500Y-107530000D01*
X123513553Y-107530000D01*
X123910000Y-107926446D01*
X124140446Y-107696000D01*
X132204785Y-107696000D01*
X132223602Y-107899082D01*
X132279417Y-108095247D01*
X132279422Y-108095260D01*
X132370327Y-108277821D01*
X132493237Y-108440581D01*
X132643958Y-108577980D01*
X132643960Y-108577982D01*
X132733711Y-108633553D01*
X132817363Y-108685348D01*
X133007544Y-108759024D01*
X133208024Y-108796500D01*
X133208026Y-108796500D01*
X133411974Y-108796500D01*
X133411976Y-108796500D01*
X133612456Y-108759024D01*
X133802637Y-108685348D01*
X133976041Y-108577981D01*
X134126764Y-108440579D01*
X134249673Y-108277821D01*
X134340582Y-108095250D01*
X134396397Y-107899083D01*
X134415215Y-107696000D01*
X134396397Y-107492917D01*
X134340582Y-107296750D01*
X134337836Y-107291236D01*
X134274237Y-107163511D01*
X134249673Y-107114179D01*
X134126764Y-106951421D01*
X134126762Y-106951418D01*
X133976041Y-106814019D01*
X133976039Y-106814017D01*
X133802642Y-106706655D01*
X133802635Y-106706651D01*
X133702552Y-106667879D01*
X133612456Y-106632976D01*
X133411976Y-106595500D01*
X133208024Y-106595500D01*
X133007544Y-106632976D01*
X133007541Y-106632976D01*
X133007541Y-106632977D01*
X132817364Y-106706651D01*
X132817357Y-106706655D01*
X132643960Y-106814017D01*
X132643958Y-106814019D01*
X132493237Y-106951418D01*
X132370327Y-107114178D01*
X132279422Y-107296739D01*
X132279417Y-107296752D01*
X132223602Y-107492917D01*
X132204785Y-107695999D01*
X132204785Y-107696000D01*
X124140446Y-107696000D01*
X124306446Y-107530000D01*
X123513553Y-107530000D01*
X121660500Y-107530000D01*
X121660500Y-105377870D01*
X122884500Y-105377870D01*
X122884501Y-105377876D01*
X122890908Y-105437483D01*
X122941202Y-105572328D01*
X122941206Y-105572335D01*
X123027452Y-105687544D01*
X123027455Y-105687547D01*
X123142664Y-105773793D01*
X123142671Y-105773797D01*
X123277517Y-105824091D01*
X123277516Y-105824091D01*
X123284056Y-105824794D01*
X123337127Y-105830500D01*
X124482872Y-105830499D01*
X124542483Y-105824091D01*
X124677331Y-105773796D01*
X124792546Y-105687546D01*
X124878796Y-105572331D01*
X124929091Y-105437483D01*
X124935500Y-105377873D01*
X124935499Y-104782128D01*
X124929091Y-104722517D01*
X124912419Y-104677818D01*
X124878797Y-104587671D01*
X124878793Y-104587664D01*
X124792547Y-104472455D01*
X124792544Y-104472452D01*
X124677335Y-104386206D01*
X124677328Y-104386202D01*
X124542482Y-104335908D01*
X124542483Y-104335908D01*
X124482883Y-104329501D01*
X124482881Y-104329500D01*
X124482873Y-104329500D01*
X124482864Y-104329500D01*
X123337129Y-104329500D01*
X123337123Y-104329501D01*
X123277516Y-104335908D01*
X123142671Y-104386202D01*
X123142664Y-104386206D01*
X123027455Y-104472452D01*
X123027452Y-104472455D01*
X122941206Y-104587664D01*
X122941202Y-104587671D01*
X122890910Y-104722513D01*
X122890909Y-104722517D01*
X122884500Y-104782127D01*
X122884500Y-104782134D01*
X122884500Y-104782135D01*
X122884500Y-105377870D01*
X121660500Y-105377870D01*
X121660500Y-102362000D01*
X128122722Y-102362000D01*
X128141762Y-102518818D01*
X128197780Y-102666523D01*
X128287517Y-102796530D01*
X128405760Y-102901283D01*
X128405762Y-102901284D01*
X128545634Y-102974696D01*
X128699014Y-103012500D01*
X128699015Y-103012500D01*
X128856985Y-103012500D01*
X129010365Y-102974696D01*
X129150240Y-102901283D01*
X129268483Y-102796530D01*
X129272257Y-102791061D01*
X129326537Y-102747071D01*
X129374308Y-102737500D01*
X130309101Y-102737500D01*
X130376140Y-102757185D01*
X130396782Y-102773819D01*
X134790289Y-107167326D01*
X134823774Y-107228649D01*
X134819331Y-107290765D01*
X134820986Y-107291236D01*
X134763603Y-107492915D01*
X134763602Y-107492917D01*
X134744785Y-107695999D01*
X134744785Y-107696000D01*
X134763602Y-107899082D01*
X134819417Y-108095247D01*
X134819422Y-108095260D01*
X134910327Y-108277821D01*
X135033237Y-108440581D01*
X135183958Y-108577980D01*
X135183960Y-108577982D01*
X135273711Y-108633553D01*
X135357363Y-108685348D01*
X135547544Y-108759024D01*
X135748024Y-108796500D01*
X135748026Y-108796500D01*
X135951974Y-108796500D01*
X135951976Y-108796500D01*
X136152456Y-108759024D01*
X136342637Y-108685348D01*
X136516041Y-108577981D01*
X136666764Y-108440579D01*
X136789673Y-108277821D01*
X136880582Y-108095250D01*
X136936397Y-107899083D01*
X136955215Y-107696000D01*
X136936397Y-107492917D01*
X136880582Y-107296750D01*
X136877836Y-107291236D01*
X136814237Y-107163511D01*
X136789673Y-107114179D01*
X136666764Y-106951421D01*
X136666762Y-106951418D01*
X136516041Y-106814019D01*
X136516039Y-106814017D01*
X136342642Y-106706655D01*
X136342635Y-106706651D01*
X136242552Y-106667879D01*
X136152456Y-106632976D01*
X135951976Y-106595500D01*
X135748024Y-106595500D01*
X135661801Y-106611617D01*
X135547536Y-106632977D01*
X135457443Y-106667879D01*
X135387820Y-106673740D01*
X135326080Y-106641030D01*
X135324970Y-106639933D01*
X130818149Y-102133111D01*
X130802022Y-102113252D01*
X130796086Y-102104167D01*
X130796083Y-102104163D01*
X130768074Y-102082363D01*
X130762310Y-102077272D01*
X130759515Y-102074477D01*
X130740505Y-102060906D01*
X130739983Y-102060500D01*
X130732645Y-102054788D01*
X130697189Y-102027190D01*
X130690274Y-102023448D01*
X130683200Y-102019990D01*
X130630596Y-102004329D01*
X130578658Y-101986499D01*
X130570923Y-101985208D01*
X130563085Y-101984231D01*
X130508244Y-101986500D01*
X129374308Y-101986500D01*
X129307269Y-101966815D01*
X129272257Y-101932938D01*
X129268483Y-101927470D01*
X129150240Y-101822717D01*
X129150238Y-101822716D01*
X129150237Y-101822715D01*
X129010365Y-101749303D01*
X128856986Y-101711500D01*
X128856985Y-101711500D01*
X128699015Y-101711500D01*
X128699014Y-101711500D01*
X128545634Y-101749303D01*
X128405762Y-101822715D01*
X128287516Y-101927471D01*
X128197781Y-102057475D01*
X128197780Y-102057476D01*
X128141762Y-102205181D01*
X128122722Y-102361999D01*
X128122722Y-102362000D01*
X121660500Y-102362000D01*
X121660500Y-97648628D01*
X129964000Y-97648628D01*
X129978503Y-97721540D01*
X129978505Y-97721544D01*
X130033760Y-97804239D01*
X130116455Y-97859494D01*
X130116459Y-97859496D01*
X130189371Y-97873999D01*
X130189374Y-97874000D01*
X130814000Y-97874000D01*
X130814000Y-97209501D01*
X130921685Y-97258680D01*
X131028237Y-97274000D01*
X131099763Y-97274000D01*
X131206315Y-97258680D01*
X131314000Y-97209501D01*
X131314000Y-97874000D01*
X131938626Y-97874000D01*
X131938628Y-97873999D01*
X132011540Y-97859496D01*
X132011544Y-97859494D01*
X132094239Y-97804239D01*
X132149494Y-97721544D01*
X132149496Y-97721540D01*
X132163999Y-97648628D01*
X132164000Y-97648626D01*
X132164000Y-97024000D01*
X131497686Y-97024000D01*
X131523493Y-96983844D01*
X131564000Y-96845889D01*
X131564000Y-96702111D01*
X131523493Y-96564156D01*
X131497686Y-96524000D01*
X132164000Y-96524000D01*
X132164000Y-95899373D01*
X132163999Y-95899371D01*
X132149496Y-95826459D01*
X132149494Y-95826455D01*
X132094239Y-95743760D01*
X132011544Y-95688505D01*
X132011540Y-95688503D01*
X131938627Y-95674000D01*
X131314000Y-95674000D01*
X131314000Y-96338498D01*
X131206315Y-96289320D01*
X131099763Y-96274000D01*
X131028237Y-96274000D01*
X130921685Y-96289320D01*
X130814000Y-96338498D01*
X130814000Y-95674000D01*
X130189373Y-95674000D01*
X130116459Y-95688503D01*
X130116455Y-95688505D01*
X130033760Y-95743760D01*
X129978505Y-95826455D01*
X129978503Y-95826459D01*
X129964000Y-95899371D01*
X129964000Y-96524000D01*
X130630314Y-96524000D01*
X130604507Y-96564156D01*
X130564000Y-96702111D01*
X130564000Y-96845889D01*
X130604507Y-96983844D01*
X130630314Y-97024000D01*
X129964000Y-97024000D01*
X129964000Y-97648628D01*
X121660500Y-97648628D01*
X121660500Y-94234000D01*
X129958785Y-94234000D01*
X129977602Y-94437082D01*
X130033417Y-94633247D01*
X130033422Y-94633260D01*
X130124327Y-94815821D01*
X130247237Y-94978581D01*
X130397958Y-95115980D01*
X130397960Y-95115982D01*
X130454555Y-95151024D01*
X130571363Y-95223348D01*
X130761544Y-95297024D01*
X130962024Y-95334500D01*
X130962026Y-95334500D01*
X131165974Y-95334500D01*
X131165976Y-95334500D01*
X131366456Y-95297024D01*
X131556637Y-95223348D01*
X131730041Y-95115981D01*
X131880764Y-94978579D01*
X132003673Y-94815821D01*
X132094582Y-94633250D01*
X132150397Y-94437083D01*
X132169215Y-94234000D01*
X132150397Y-94030917D01*
X132094582Y-93834750D01*
X132003673Y-93652179D01*
X131880764Y-93489421D01*
X131880762Y-93489418D01*
X131730041Y-93352019D01*
X131730039Y-93352017D01*
X131556642Y-93244655D01*
X131556635Y-93244651D01*
X131461546Y-93207814D01*
X131366456Y-93170976D01*
X131165976Y-93133500D01*
X130962024Y-93133500D01*
X130761544Y-93170976D01*
X130761541Y-93170976D01*
X130761541Y-93170977D01*
X130571364Y-93244651D01*
X130571357Y-93244655D01*
X130397960Y-93352017D01*
X130397958Y-93352019D01*
X130247237Y-93489418D01*
X130124327Y-93652178D01*
X130033422Y-93834739D01*
X130033417Y-93834752D01*
X129977602Y-94030917D01*
X129958785Y-94233999D01*
X129958785Y-94234000D01*
X121660500Y-94234000D01*
X121660500Y-91694000D01*
X129958785Y-91694000D01*
X129977602Y-91897082D01*
X130033417Y-92093247D01*
X130033422Y-92093260D01*
X130124327Y-92275821D01*
X130247237Y-92438581D01*
X130397958Y-92575980D01*
X130397960Y-92575982D01*
X130497141Y-92637392D01*
X130571363Y-92683348D01*
X130761544Y-92757024D01*
X130962024Y-92794500D01*
X130962026Y-92794500D01*
X131165974Y-92794500D01*
X131165976Y-92794500D01*
X131366456Y-92757024D01*
X131556637Y-92683348D01*
X131730041Y-92575981D01*
X131880764Y-92438579D01*
X132003673Y-92275821D01*
X132094582Y-92093250D01*
X132150397Y-91897083D01*
X132169215Y-91694000D01*
X132150397Y-91490917D01*
X132094582Y-91294750D01*
X132003673Y-91112179D01*
X131880764Y-90949421D01*
X131880762Y-90949418D01*
X131730041Y-90812019D01*
X131730039Y-90812017D01*
X131556642Y-90704655D01*
X131556635Y-90704651D01*
X131461546Y-90667814D01*
X131366456Y-90630976D01*
X131165976Y-90593500D01*
X130962024Y-90593500D01*
X130761544Y-90630976D01*
X130761541Y-90630976D01*
X130761541Y-90630977D01*
X130571364Y-90704651D01*
X130571357Y-90704655D01*
X130397960Y-90812017D01*
X130397958Y-90812019D01*
X130247237Y-90949418D01*
X130124327Y-91112178D01*
X130033422Y-91294739D01*
X130033417Y-91294752D01*
X129977602Y-91490917D01*
X129958785Y-91693999D01*
X129958785Y-91694000D01*
X121660500Y-91694000D01*
X121660500Y-90094803D01*
X121663139Y-90069358D01*
X121663785Y-90066274D01*
X121665367Y-90058731D01*
X121663287Y-90042051D01*
X121660977Y-90023508D01*
X121660500Y-90015832D01*
X121660500Y-90011889D01*
X121660499Y-90011883D01*
X121656655Y-89988846D01*
X121649865Y-89934373D01*
X121647617Y-89926827D01*
X121645065Y-89919390D01*
X121618942Y-89871119D01*
X121594826Y-89821788D01*
X121594823Y-89821785D01*
X121594823Y-89821784D01*
X121590267Y-89815402D01*
X121585423Y-89809178D01*
X121585419Y-89809174D01*
X121545041Y-89772003D01*
X121522718Y-89749680D01*
X121489233Y-89688357D01*
X121494217Y-89618665D01*
X121522725Y-89574311D01*
X121531229Y-89565808D01*
X121592556Y-89532331D01*
X121618900Y-89529500D01*
X129944815Y-89529500D01*
X130011854Y-89549185D01*
X130055813Y-89598225D01*
X130124327Y-89735821D01*
X130151651Y-89772004D01*
X130247237Y-89898581D01*
X130397958Y-90035980D01*
X130397960Y-90035982D01*
X130472189Y-90081942D01*
X130571363Y-90143348D01*
X130761544Y-90217024D01*
X130962024Y-90254500D01*
X130962026Y-90254500D01*
X131165974Y-90254500D01*
X131165976Y-90254500D01*
X131366456Y-90217024D01*
X131556637Y-90143348D01*
X131730041Y-90035981D01*
X131880764Y-89898579D01*
X132003673Y-89735821D01*
X132094582Y-89553250D01*
X132150397Y-89357083D01*
X132169215Y-89154000D01*
X132150397Y-88950917D01*
X132094582Y-88754750D01*
X132003673Y-88572179D01*
X131880764Y-88409421D01*
X131880762Y-88409418D01*
X131730041Y-88272019D01*
X131730039Y-88272017D01*
X131556642Y-88164655D01*
X131556635Y-88164651D01*
X131461546Y-88127814D01*
X131366456Y-88090976D01*
X131165976Y-88053500D01*
X130962024Y-88053500D01*
X130761544Y-88090976D01*
X130761541Y-88090976D01*
X130761541Y-88090977D01*
X130571364Y-88164651D01*
X130571357Y-88164655D01*
X130397960Y-88272017D01*
X130397958Y-88272019D01*
X130247237Y-88409418D01*
X130124329Y-88572176D01*
X130124327Y-88572179D01*
X130055813Y-88709773D01*
X130008313Y-88761008D01*
X129944815Y-88778500D01*
X121463804Y-88778500D01*
X121438357Y-88775861D01*
X121435713Y-88775306D01*
X121427729Y-88773632D01*
X121392509Y-88778023D01*
X121384832Y-88778500D01*
X121380886Y-88778500D01*
X121363606Y-88781383D01*
X121357846Y-88782344D01*
X121303368Y-88789135D01*
X121295844Y-88791375D01*
X121288392Y-88793934D01*
X121240119Y-88820057D01*
X121190790Y-88844172D01*
X121184398Y-88848735D01*
X121178174Y-88853580D01*
X121141003Y-88893958D01*
X120784781Y-89250181D01*
X120723458Y-89283666D01*
X120697100Y-89286500D01*
X111848308Y-89286500D01*
X111781269Y-89266815D01*
X111746257Y-89232938D01*
X111742483Y-89227470D01*
X111624240Y-89122717D01*
X111624238Y-89122716D01*
X111624237Y-89122715D01*
X111484365Y-89049303D01*
X111330986Y-89011500D01*
X111330985Y-89011500D01*
X111173015Y-89011500D01*
X111173014Y-89011500D01*
X111019634Y-89049303D01*
X110879762Y-89122715D01*
X110761516Y-89227471D01*
X110671781Y-89357475D01*
X110671780Y-89357476D01*
X110615762Y-89505181D01*
X110596722Y-89661999D01*
X110596722Y-89662000D01*
X110615762Y-89818818D01*
X110661976Y-89940673D01*
X110671780Y-89966523D01*
X110761517Y-90096530D01*
X110879760Y-90201283D01*
X110879762Y-90201284D01*
X111019634Y-90274696D01*
X111173014Y-90312500D01*
X111173015Y-90312500D01*
X111330985Y-90312500D01*
X111484365Y-90274696D01*
X111624240Y-90201283D01*
X111742483Y-90096530D01*
X111746257Y-90091061D01*
X111800537Y-90047071D01*
X111848308Y-90037500D01*
X120697101Y-90037500D01*
X120764140Y-90057185D01*
X120784782Y-90073819D01*
X120873181Y-90162218D01*
X120906666Y-90223541D01*
X120909500Y-90249899D01*
X120909500Y-113486196D01*
X120906862Y-113511634D01*
X120904633Y-113522268D01*
X120904633Y-113522269D01*
X120904633Y-113522271D01*
X120909023Y-113557491D01*
X120909500Y-113565167D01*
X120909500Y-113569116D01*
X120913342Y-113592141D01*
X120920134Y-113646627D01*
X120922373Y-113654147D01*
X120924934Y-113661608D01*
X120924935Y-113661610D01*
X120951055Y-113709877D01*
X120975174Y-113759211D01*
X120979742Y-113765609D01*
X120984582Y-113771827D01*
X121024971Y-113809009D01*
X121423181Y-114207218D01*
X121456666Y-114268541D01*
X121459500Y-114294899D01*
X121459500Y-115226256D01*
X121439815Y-115293295D01*
X121396477Y-115330847D01*
X121397414Y-115332249D01*
X121353889Y-115361331D01*
X121287211Y-115382208D01*
X121219831Y-115363723D01*
X121216110Y-115361331D01*
X121182740Y-115339034D01*
X121182735Y-115339032D01*
X121109677Y-115324500D01*
X121109674Y-115324500D01*
X120360326Y-115324500D01*
X120360323Y-115324500D01*
X120287264Y-115339032D01*
X120287260Y-115339033D01*
X120204398Y-115394399D01*
X120142248Y-115487415D01*
X120140243Y-115486075D01*
X120106970Y-115527360D01*
X120040675Y-115549421D01*
X120036256Y-115549500D01*
X119433899Y-115549500D01*
X119366860Y-115529815D01*
X119346218Y-115513181D01*
X119175517Y-115342480D01*
X119142032Y-115281157D01*
X119140102Y-115239857D01*
X119146278Y-115189000D01*
X119127237Y-115032182D01*
X119071220Y-114884477D01*
X118981483Y-114754470D01*
X118863240Y-114649717D01*
X118863238Y-114649716D01*
X118863237Y-114649715D01*
X118723365Y-114576303D01*
X118569986Y-114538500D01*
X118569985Y-114538500D01*
X118412015Y-114538500D01*
X118412014Y-114538500D01*
X118258634Y-114576303D01*
X118118762Y-114649715D01*
X118000516Y-114754471D01*
X117910781Y-114884475D01*
X117910780Y-114884476D01*
X117854762Y-115032181D01*
X117835722Y-115188999D01*
X117835722Y-115189000D01*
X117854762Y-115345818D01*
X117873187Y-115394399D01*
X117910780Y-115493523D01*
X118000517Y-115623530D01*
X118118760Y-115728283D01*
X118118762Y-115728284D01*
X118258634Y-115801696D01*
X118412014Y-115839500D01*
X118559101Y-115839500D01*
X118626140Y-115859185D01*
X118646782Y-115875819D01*
X118924849Y-116153886D01*
X118940977Y-116173745D01*
X118946916Y-116182836D01*
X118974932Y-116204641D01*
X118980693Y-116209730D01*
X118983482Y-116212519D01*
X119002483Y-116226085D01*
X119045811Y-116259809D01*
X119052704Y-116263539D01*
X119059796Y-116267006D01*
X119059801Y-116267010D01*
X119112403Y-116282670D01*
X119164338Y-116300500D01*
X119172072Y-116301790D01*
X119179910Y-116302767D01*
X119179912Y-116302768D01*
X119179913Y-116302767D01*
X119179914Y-116302768D01*
X119234756Y-116300500D01*
X120036256Y-116300500D01*
X120103295Y-116320185D01*
X120140846Y-116363521D01*
X120142248Y-116362585D01*
X120204398Y-116455600D01*
X120287260Y-116510966D01*
X120287264Y-116510967D01*
X120360321Y-116525499D01*
X120360324Y-116525500D01*
X120360326Y-116525500D01*
X121109676Y-116525500D01*
X121109677Y-116525499D01*
X121182735Y-116510967D01*
X121182737Y-116510967D01*
X121182737Y-116510966D01*
X121182740Y-116510966D01*
X121216112Y-116488667D01*
X121282786Y-116467791D01*
X121350166Y-116486275D01*
X121353829Y-116488628D01*
X121387260Y-116510966D01*
X121387262Y-116510966D01*
X121387263Y-116510967D01*
X121460321Y-116525499D01*
X121460324Y-116525500D01*
X121460326Y-116525500D01*
X122209676Y-116525500D01*
X122209677Y-116525499D01*
X122282740Y-116510966D01*
X122365601Y-116455601D01*
X122420800Y-116372989D01*
X122427752Y-116362585D01*
X122429756Y-116363924D01*
X122463030Y-116322640D01*
X122529325Y-116300579D01*
X122533744Y-116300500D01*
X123066000Y-116300500D01*
X123133039Y-116320185D01*
X123178794Y-116372989D01*
X123190000Y-116424500D01*
X123190000Y-118494000D01*
X123170315Y-118561039D01*
X123117511Y-118606794D01*
X123066000Y-118618000D01*
X108370173Y-118618000D01*
X108303134Y-118598315D01*
X108257379Y-118545511D01*
X108247435Y-118476353D01*
X108272118Y-118418098D01*
X108295444Y-118387963D01*
X108295443Y-118387963D01*
X108295448Y-118387958D01*
X108385060Y-118205271D01*
X108436063Y-118008285D01*
X108436230Y-118005000D01*
X120135000Y-118005000D01*
X120135000Y-118129628D01*
X120149503Y-118202540D01*
X120149505Y-118202544D01*
X120204760Y-118285239D01*
X120287455Y-118340494D01*
X120287459Y-118340496D01*
X120360371Y-118354999D01*
X120360374Y-118355000D01*
X120485000Y-118355000D01*
X120985000Y-118355000D01*
X121109626Y-118355000D01*
X121109628Y-118354999D01*
X121182540Y-118340496D01*
X121182544Y-118340495D01*
X121215658Y-118318369D01*
X121282335Y-118297491D01*
X121349715Y-118315975D01*
X121353438Y-118318368D01*
X121386554Y-118340494D01*
X121387260Y-118340966D01*
X121387263Y-118340966D01*
X121387264Y-118340967D01*
X121460321Y-118355499D01*
X121460324Y-118355500D01*
X121460326Y-118355500D01*
X122209676Y-118355500D01*
X122209677Y-118355499D01*
X122282740Y-118340966D01*
X122365601Y-118285601D01*
X122420966Y-118202740D01*
X122435500Y-118129674D01*
X122435500Y-117380326D01*
X122435500Y-117380323D01*
X122435499Y-117380321D01*
X122420967Y-117307264D01*
X122420966Y-117307260D01*
X122365601Y-117224399D01*
X122282740Y-117169034D01*
X122282739Y-117169033D01*
X122282735Y-117169032D01*
X122209677Y-117154500D01*
X122209674Y-117154500D01*
X121460326Y-117154500D01*
X121460323Y-117154500D01*
X121387264Y-117169032D01*
X121387257Y-117169034D01*
X121353437Y-117191632D01*
X121286759Y-117212508D01*
X121219379Y-117194022D01*
X121215660Y-117191631D01*
X121182546Y-117169505D01*
X121182540Y-117169503D01*
X121109627Y-117155000D01*
X120985000Y-117155000D01*
X120985000Y-118355000D01*
X120485000Y-118355000D01*
X120485000Y-118005000D01*
X120135000Y-118005000D01*
X108436230Y-118005000D01*
X108446369Y-117805064D01*
X108415556Y-117603929D01*
X108378917Y-117505000D01*
X120135000Y-117505000D01*
X120485000Y-117505000D01*
X120485000Y-117155000D01*
X120360373Y-117155000D01*
X120287459Y-117169503D01*
X120287455Y-117169505D01*
X120204760Y-117224760D01*
X120149505Y-117307455D01*
X120149503Y-117307459D01*
X120135000Y-117380371D01*
X120135000Y-117505000D01*
X108378917Y-117505000D01*
X108344886Y-117413113D01*
X108237252Y-117240429D01*
X108097059Y-117092947D01*
X107998587Y-117024409D01*
X107930050Y-116976705D01*
X107743056Y-116896459D01*
X107543741Y-116855500D01*
X107391258Y-116855500D01*
X107391257Y-116855500D01*
X107239560Y-116870925D01*
X107045420Y-116931837D01*
X107045405Y-116931844D01*
X106867500Y-117030589D01*
X106867495Y-117030592D01*
X106713106Y-117163132D01*
X106713104Y-117163134D01*
X106588554Y-117324037D01*
X106588553Y-117324040D01*
X106498940Y-117506728D01*
X106447937Y-117703714D01*
X106437631Y-117906936D01*
X106468442Y-118108063D01*
X106468445Y-118108075D01*
X106539111Y-118298881D01*
X106539113Y-118298884D01*
X106539114Y-118298887D01*
X106574089Y-118354999D01*
X106619845Y-118428409D01*
X106638601Y-118495714D01*
X106617992Y-118562475D01*
X106564560Y-118607496D01*
X106514613Y-118618000D01*
X104006500Y-118618000D01*
X103939461Y-118598315D01*
X103893706Y-118545511D01*
X103882500Y-118494000D01*
X103882500Y-118230500D01*
X103902185Y-118163461D01*
X103954989Y-118117706D01*
X104006500Y-118106500D01*
X104611114Y-118106500D01*
X104635306Y-118108883D01*
X104647999Y-118111408D01*
X104648000Y-118111408D01*
X104648002Y-118111408D01*
X104696870Y-118101687D01*
X104745740Y-118091966D01*
X104828601Y-118036601D01*
X104883966Y-117953740D01*
X104893276Y-117906936D01*
X104899689Y-117874700D01*
X104899690Y-117874689D01*
X104903408Y-117856000D01*
X104903408Y-117855999D01*
X104900883Y-117843306D01*
X104898500Y-117819114D01*
X104898500Y-110272885D01*
X104900883Y-110248691D01*
X104903408Y-110235998D01*
X104903408Y-110235997D01*
X104883966Y-110138261D01*
X104883966Y-110138260D01*
X104828601Y-110055399D01*
X104745740Y-110000034D01*
X104745739Y-110000033D01*
X104745736Y-110000032D01*
X104672675Y-109985500D01*
X104648001Y-109980592D01*
X104647999Y-109980592D01*
X104635306Y-109983117D01*
X104611114Y-109985500D01*
X104006500Y-109985500D01*
X103939461Y-109965815D01*
X103893706Y-109913011D01*
X103882500Y-109861500D01*
X103882500Y-109029999D01*
X118263553Y-109029999D01*
X118263554Y-109030000D01*
X119056446Y-109030000D01*
X119056446Y-109029999D01*
X118660001Y-108633553D01*
X118659999Y-108633553D01*
X118263553Y-109029999D01*
X103882500Y-109029999D01*
X103882500Y-108577844D01*
X117635000Y-108577844D01*
X117641401Y-108637372D01*
X117641402Y-108637376D01*
X117691649Y-108772093D01*
X117744180Y-108842264D01*
X117744182Y-108842265D01*
X118306447Y-108280000D01*
X119013553Y-108280000D01*
X119575817Y-108842264D01*
X119628351Y-108772090D01*
X119678597Y-108637376D01*
X119678598Y-108637372D01*
X119684999Y-108577844D01*
X119685000Y-108577827D01*
X119685000Y-107982172D01*
X119684999Y-107982155D01*
X119678598Y-107922627D01*
X119678597Y-107922623D01*
X119628352Y-107787911D01*
X119628351Y-107787910D01*
X119575817Y-107717733D01*
X119013553Y-108279999D01*
X119013553Y-108280000D01*
X118306447Y-108280000D01*
X118306447Y-108279999D01*
X117744181Y-107717733D01*
X117691647Y-107787910D01*
X117691645Y-107787913D01*
X117641403Y-107922620D01*
X117641401Y-107922627D01*
X117635000Y-107982155D01*
X117635000Y-108577844D01*
X103882500Y-108577844D01*
X103882500Y-108240885D01*
X103884883Y-108216691D01*
X103887408Y-108203998D01*
X103887408Y-108203997D01*
X103867966Y-108106261D01*
X103867966Y-108106260D01*
X103849677Y-108078889D01*
X103828801Y-108012212D01*
X103847286Y-107944832D01*
X103899265Y-107898143D01*
X103952781Y-107886000D01*
X105590828Y-107886000D01*
X105657867Y-107905685D01*
X105703622Y-107958489D01*
X105710867Y-107980924D01*
X105712033Y-107983739D01*
X105712034Y-107983740D01*
X105767399Y-108066601D01*
X105850260Y-108121966D01*
X105850264Y-108121967D01*
X105923321Y-108136499D01*
X105923324Y-108136500D01*
X105923326Y-108136500D01*
X107072676Y-108136500D01*
X107072677Y-108136499D01*
X107145740Y-108121966D01*
X107228601Y-108066601D01*
X107283966Y-107983740D01*
X107298500Y-107910674D01*
X107298500Y-107530000D01*
X118263553Y-107530000D01*
X118660000Y-107926446D01*
X119056446Y-107530000D01*
X118263553Y-107530000D01*
X107298500Y-107530000D01*
X107298500Y-106061326D01*
X107298500Y-106061323D01*
X107298499Y-106061321D01*
X107283967Y-105988264D01*
X107283966Y-105988260D01*
X107251613Y-105939840D01*
X107228601Y-105905399D01*
X107145740Y-105850034D01*
X107145739Y-105850033D01*
X107145735Y-105850032D01*
X107072677Y-105835500D01*
X107072674Y-105835500D01*
X106072000Y-105835500D01*
X106004961Y-105815815D01*
X105959206Y-105763011D01*
X105948000Y-105711500D01*
X105948000Y-104886000D01*
X103348000Y-104886000D01*
X103348000Y-105712000D01*
X103328315Y-105779039D01*
X103275511Y-105824794D01*
X103224000Y-105836000D01*
X103048000Y-105836000D01*
X103048000Y-107112000D01*
X103028315Y-107179039D01*
X102975511Y-107224794D01*
X102924000Y-107236000D01*
X102672000Y-107236000D01*
X102604961Y-107216315D01*
X102559206Y-107163511D01*
X102548000Y-107112000D01*
X102548000Y-105836000D01*
X102223373Y-105836000D01*
X102150459Y-105850503D01*
X102150455Y-105850505D01*
X102067759Y-105905760D01*
X102062181Y-105911339D01*
X102000858Y-105944824D01*
X101931166Y-105939840D01*
X101875233Y-105897968D01*
X101850816Y-105832504D01*
X101850500Y-105823658D01*
X101850500Y-104521000D01*
X114533722Y-104521000D01*
X114552762Y-104677818D01*
X114592322Y-104782127D01*
X114608780Y-104825523D01*
X114698517Y-104955530D01*
X114816760Y-105060283D01*
X114816762Y-105060284D01*
X114956634Y-105133696D01*
X115110014Y-105171500D01*
X115110015Y-105171500D01*
X115267985Y-105171500D01*
X115421365Y-105133696D01*
X115561240Y-105060283D01*
X115679483Y-104955530D01*
X115683257Y-104950061D01*
X115737537Y-104906071D01*
X115785308Y-104896500D01*
X117510500Y-104896500D01*
X117577539Y-104916185D01*
X117623294Y-104968989D01*
X117634500Y-105020500D01*
X117634500Y-105377869D01*
X117634501Y-105377876D01*
X117640908Y-105437483D01*
X117691202Y-105572328D01*
X117691206Y-105572335D01*
X117777452Y-105687544D01*
X117777455Y-105687547D01*
X117892664Y-105773793D01*
X117892671Y-105773797D01*
X118027517Y-105824091D01*
X118027516Y-105824091D01*
X118034056Y-105824794D01*
X118087127Y-105830500D01*
X119232872Y-105830499D01*
X119292483Y-105824091D01*
X119427331Y-105773796D01*
X119542546Y-105687546D01*
X119628796Y-105572331D01*
X119679091Y-105437483D01*
X119685500Y-105377873D01*
X119685499Y-104782128D01*
X119679091Y-104722517D01*
X119662419Y-104677818D01*
X119628797Y-104587671D01*
X119628793Y-104587664D01*
X119542547Y-104472455D01*
X119542544Y-104472452D01*
X119427335Y-104386206D01*
X119427328Y-104386202D01*
X119292482Y-104335908D01*
X119292483Y-104335908D01*
X119232883Y-104329501D01*
X119232881Y-104329500D01*
X119232873Y-104329500D01*
X119232865Y-104329500D01*
X118246900Y-104329500D01*
X118179861Y-104309815D01*
X118159219Y-104293181D01*
X118158149Y-104292111D01*
X118142022Y-104272252D01*
X118136086Y-104263167D01*
X118136083Y-104263163D01*
X118108074Y-104241363D01*
X118102310Y-104236272D01*
X118099515Y-104233477D01*
X118080505Y-104219906D01*
X118037189Y-104186190D01*
X118030274Y-104182448D01*
X118023200Y-104178990D01*
X117970596Y-104163329D01*
X117918658Y-104145499D01*
X117910923Y-104144208D01*
X117903085Y-104143231D01*
X117848244Y-104145500D01*
X115785308Y-104145500D01*
X115718269Y-104125815D01*
X115683257Y-104091938D01*
X115679483Y-104086470D01*
X115561240Y-103981717D01*
X115561238Y-103981716D01*
X115561237Y-103981715D01*
X115421365Y-103908303D01*
X115267986Y-103870500D01*
X115267985Y-103870500D01*
X115110015Y-103870500D01*
X115110014Y-103870500D01*
X114956634Y-103908303D01*
X114816762Y-103981715D01*
X114698516Y-104086471D01*
X114608781Y-104216475D01*
X114608780Y-104216476D01*
X114552762Y-104364181D01*
X114533722Y-104520999D01*
X114533722Y-104521000D01*
X101850500Y-104521000D01*
X101850500Y-101948342D01*
X101870185Y-101881303D01*
X101922989Y-101835548D01*
X101992147Y-101825604D01*
X102055703Y-101854629D01*
X102062181Y-101860661D01*
X102067759Y-101866239D01*
X102150455Y-101921494D01*
X102150459Y-101921496D01*
X102223371Y-101935999D01*
X102223374Y-101936000D01*
X102548000Y-101936000D01*
X102548000Y-100660000D01*
X102567685Y-100592961D01*
X102620489Y-100547206D01*
X102672000Y-100536000D01*
X102924000Y-100536000D01*
X102991039Y-100555685D01*
X103036794Y-100608489D01*
X103048000Y-100660000D01*
X103048000Y-101936000D01*
X103224000Y-101936000D01*
X103291039Y-101955685D01*
X103336794Y-102008489D01*
X103348000Y-102060000D01*
X103348000Y-102886000D01*
X105948000Y-102886000D01*
X105948000Y-102060500D01*
X105967685Y-101993461D01*
X106020489Y-101947706D01*
X106072000Y-101936500D01*
X107072676Y-101936500D01*
X107072677Y-101936499D01*
X107145740Y-101921966D01*
X107228601Y-101866601D01*
X107283966Y-101783740D01*
X107298500Y-101710674D01*
X107298500Y-99861326D01*
X107298500Y-99861323D01*
X107298499Y-99861321D01*
X107283967Y-99788264D01*
X107283966Y-99788260D01*
X107228600Y-99705398D01*
X107192908Y-99681550D01*
X107148103Y-99627938D01*
X107139396Y-99558613D01*
X107166703Y-99501035D01*
X107166222Y-99500703D01*
X107168265Y-99497741D01*
X107168992Y-99496211D01*
X107170472Y-99494539D01*
X107170483Y-99494530D01*
X107260220Y-99364523D01*
X107316237Y-99216818D01*
X107335278Y-99060000D01*
X107316237Y-98903182D01*
X107260220Y-98755477D01*
X107170483Y-98625470D01*
X107052240Y-98520717D01*
X107052238Y-98520716D01*
X107052237Y-98520715D01*
X106912365Y-98447303D01*
X106758986Y-98409500D01*
X106758985Y-98409500D01*
X106601015Y-98409500D01*
X106601014Y-98409500D01*
X106447634Y-98447303D01*
X106307762Y-98520715D01*
X106189516Y-98625471D01*
X106099781Y-98755475D01*
X106099780Y-98755476D01*
X106043762Y-98903181D01*
X106024722Y-99059999D01*
X106024722Y-99060000D01*
X106043762Y-99216818D01*
X106099780Y-99364523D01*
X106099781Y-99364524D01*
X106152609Y-99441060D01*
X106174492Y-99507415D01*
X106157026Y-99575067D01*
X106105758Y-99622536D01*
X106050559Y-99635500D01*
X105923323Y-99635500D01*
X105850264Y-99650032D01*
X105850260Y-99650033D01*
X105767399Y-99705399D01*
X105712033Y-99788260D01*
X105707360Y-99799544D01*
X105705798Y-99798897D01*
X105680062Y-99848100D01*
X105619347Y-99882676D01*
X105590828Y-99886000D01*
X105222781Y-99886000D01*
X105155742Y-99866315D01*
X105109987Y-99813511D01*
X105100043Y-99744353D01*
X105119678Y-99693110D01*
X105127402Y-99681550D01*
X105137966Y-99665740D01*
X105141090Y-99650034D01*
X105153689Y-99586700D01*
X105153690Y-99586689D01*
X105157408Y-99568000D01*
X105157408Y-99567999D01*
X105154883Y-99555306D01*
X105152500Y-99531114D01*
X105152500Y-97998504D01*
X115839048Y-97998504D01*
X115866422Y-98009843D01*
X116009999Y-98028746D01*
X116010001Y-98028746D01*
X116153579Y-98009842D01*
X116153580Y-98009842D01*
X116180950Y-97998505D01*
X116180949Y-97998504D01*
X117239048Y-97998504D01*
X117266422Y-98009843D01*
X117409999Y-98028746D01*
X117410001Y-98028746D01*
X117553579Y-98009842D01*
X117553580Y-98009842D01*
X117580950Y-97998505D01*
X117410000Y-97827553D01*
X117239048Y-97998504D01*
X116180949Y-97998504D01*
X116010000Y-97827553D01*
X115839048Y-97998504D01*
X105152500Y-97998504D01*
X105152500Y-97298504D01*
X115139048Y-97298504D01*
X115166422Y-97309843D01*
X115309998Y-97328745D01*
X115317051Y-97327817D01*
X115386087Y-97338578D01*
X115438346Y-97384955D01*
X115457235Y-97452223D01*
X115456183Y-97466939D01*
X115455254Y-97473996D01*
X115455254Y-97474000D01*
X115474157Y-97617578D01*
X115474158Y-97617583D01*
X115485493Y-97644950D01*
X115485495Y-97644951D01*
X115623954Y-97506492D01*
X115910000Y-97506492D01*
X115948197Y-97559065D01*
X115994162Y-97574000D01*
X116025838Y-97574000D01*
X116071803Y-97559065D01*
X116110000Y-97506492D01*
X116110000Y-97474000D01*
X116363553Y-97474000D01*
X116534505Y-97644950D01*
X116545842Y-97617580D01*
X116545842Y-97617579D01*
X116564746Y-97474000D01*
X116563817Y-97466947D01*
X116574579Y-97397911D01*
X116620956Y-97345653D01*
X116688224Y-97326764D01*
X116702947Y-97327817D01*
X116709999Y-97328745D01*
X116717051Y-97327817D01*
X116786087Y-97338578D01*
X116838346Y-97384955D01*
X116857235Y-97452223D01*
X116856183Y-97466939D01*
X116855254Y-97473996D01*
X116855254Y-97474000D01*
X116874157Y-97617578D01*
X116874158Y-97617583D01*
X116885493Y-97644950D01*
X116885495Y-97644951D01*
X117023954Y-97506492D01*
X117310000Y-97506492D01*
X117348197Y-97559065D01*
X117394162Y-97574000D01*
X117425838Y-97574000D01*
X117471803Y-97559065D01*
X117510000Y-97506492D01*
X117510000Y-97474000D01*
X117763553Y-97474000D01*
X117934505Y-97644950D01*
X117945842Y-97617580D01*
X117945842Y-97617579D01*
X117964746Y-97474000D01*
X117963817Y-97466947D01*
X117974579Y-97397911D01*
X118020956Y-97345653D01*
X118088224Y-97326764D01*
X118102947Y-97327817D01*
X118110000Y-97328746D01*
X118253579Y-97309842D01*
X118253580Y-97309842D01*
X118280950Y-97298505D01*
X118110000Y-97127553D01*
X117967650Y-97269902D01*
X117892181Y-97345371D01*
X117763553Y-97474000D01*
X117510000Y-97474000D01*
X117510000Y-97441508D01*
X117471803Y-97388935D01*
X117425838Y-97374000D01*
X117394162Y-97374000D01*
X117348197Y-97388935D01*
X117310000Y-97441508D01*
X117310000Y-97506492D01*
X117023954Y-97506492D01*
X117056446Y-97474000D01*
X117056446Y-97473999D01*
X116838631Y-97256184D01*
X116838626Y-97256180D01*
X116833470Y-97251024D01*
X116710000Y-97127553D01*
X116567650Y-97269902D01*
X116492181Y-97345371D01*
X116363553Y-97474000D01*
X116110000Y-97474000D01*
X116110000Y-97441508D01*
X116071803Y-97388935D01*
X116025838Y-97374000D01*
X115994162Y-97374000D01*
X115948197Y-97388935D01*
X115910000Y-97441508D01*
X115910000Y-97506492D01*
X115623954Y-97506492D01*
X115656446Y-97474000D01*
X115656446Y-97473999D01*
X115438631Y-97256184D01*
X115438626Y-97256180D01*
X115433471Y-97251025D01*
X115433469Y-97251022D01*
X115310000Y-97127553D01*
X115139048Y-97298504D01*
X105152500Y-97298504D01*
X105152500Y-96774000D01*
X114755254Y-96774000D01*
X114774157Y-96917578D01*
X114774158Y-96917583D01*
X114785493Y-96944950D01*
X114785495Y-96944951D01*
X114923954Y-96806492D01*
X115210000Y-96806492D01*
X115248197Y-96859065D01*
X115294162Y-96874000D01*
X115325838Y-96874000D01*
X115371803Y-96859065D01*
X115410000Y-96806492D01*
X115410000Y-96774000D01*
X115663553Y-96774000D01*
X115769584Y-96880029D01*
X115792180Y-96902626D01*
X115792181Y-96902628D01*
X116010000Y-97120446D01*
X116010001Y-97120446D01*
X116214574Y-96915871D01*
X116250416Y-96880030D01*
X116323953Y-96806492D01*
X116610000Y-96806492D01*
X116648197Y-96859065D01*
X116694162Y-96874000D01*
X116725838Y-96874000D01*
X116771803Y-96859065D01*
X116810000Y-96806492D01*
X116810000Y-96774000D01*
X117063553Y-96774000D01*
X117169584Y-96880029D01*
X117192180Y-96902626D01*
X117192181Y-96902628D01*
X117410000Y-97120446D01*
X117410001Y-97120446D01*
X117614574Y-96915871D01*
X117650416Y-96880030D01*
X117723953Y-96806492D01*
X118010000Y-96806492D01*
X118048197Y-96859065D01*
X118094162Y-96874000D01*
X118125838Y-96874000D01*
X118171803Y-96859065D01*
X118210000Y-96806492D01*
X118210000Y-96773999D01*
X118463553Y-96773999D01*
X118634505Y-96944950D01*
X118645842Y-96917580D01*
X118645842Y-96917579D01*
X118664746Y-96774000D01*
X118664746Y-96773999D01*
X118645843Y-96630422D01*
X118634504Y-96603048D01*
X118463553Y-96773999D01*
X118210000Y-96773999D01*
X118210000Y-96741508D01*
X118171803Y-96688935D01*
X118125838Y-96674000D01*
X118094162Y-96674000D01*
X118048197Y-96688935D01*
X118010000Y-96741508D01*
X118010000Y-96806492D01*
X117723953Y-96806492D01*
X117756445Y-96773999D01*
X117538631Y-96556184D01*
X117538626Y-96556180D01*
X117533470Y-96551024D01*
X117410000Y-96427553D01*
X117267650Y-96569902D01*
X117192181Y-96645371D01*
X117063553Y-96774000D01*
X116810000Y-96774000D01*
X116810000Y-96741508D01*
X116771803Y-96688935D01*
X116725838Y-96674000D01*
X116694162Y-96674000D01*
X116648197Y-96688935D01*
X116610000Y-96741508D01*
X116610000Y-96806492D01*
X116323953Y-96806492D01*
X116356446Y-96773999D01*
X116138631Y-96556184D01*
X116138626Y-96556180D01*
X116133470Y-96551024D01*
X116010000Y-96427553D01*
X115867650Y-96569902D01*
X115792181Y-96645371D01*
X115663553Y-96774000D01*
X115410000Y-96774000D01*
X115410000Y-96741508D01*
X115371803Y-96688935D01*
X115325838Y-96674000D01*
X115294162Y-96674000D01*
X115248197Y-96688935D01*
X115210000Y-96741508D01*
X115210000Y-96806492D01*
X114923954Y-96806492D01*
X114956446Y-96774000D01*
X114956446Y-96773999D01*
X114785494Y-96603047D01*
X114774158Y-96630417D01*
X114774157Y-96630422D01*
X114755254Y-96773999D01*
X114755254Y-96774000D01*
X105152500Y-96774000D01*
X105152500Y-96249494D01*
X115139047Y-96249494D01*
X115310000Y-96420446D01*
X115310001Y-96420446D01*
X115514574Y-96215871D01*
X115550416Y-96180030D01*
X115623953Y-96106492D01*
X115910000Y-96106492D01*
X115948197Y-96159065D01*
X115994162Y-96174000D01*
X116025838Y-96174000D01*
X116071803Y-96159065D01*
X116110000Y-96106492D01*
X116110000Y-96074000D01*
X116363553Y-96074000D01*
X116469584Y-96180029D01*
X116492180Y-96202626D01*
X116492181Y-96202628D01*
X116710000Y-96420446D01*
X116710001Y-96420446D01*
X116914574Y-96215871D01*
X116950416Y-96180030D01*
X117023953Y-96106492D01*
X117310000Y-96106492D01*
X117348197Y-96159065D01*
X117394162Y-96174000D01*
X117425838Y-96174000D01*
X117471803Y-96159065D01*
X117510000Y-96106492D01*
X117510000Y-96074000D01*
X117763553Y-96074000D01*
X117869584Y-96180029D01*
X117892180Y-96202626D01*
X117892181Y-96202628D01*
X118110000Y-96420446D01*
X118110001Y-96420446D01*
X118280951Y-96249495D01*
X118280950Y-96249493D01*
X118253583Y-96238158D01*
X118253578Y-96238157D01*
X118110001Y-96219254D01*
X118109996Y-96219254D01*
X118102939Y-96220183D01*
X118033904Y-96209417D01*
X117981648Y-96163036D01*
X117962764Y-96095767D01*
X117963817Y-96081051D01*
X117964745Y-96073999D01*
X117963817Y-96066947D01*
X117974579Y-95997911D01*
X118020956Y-95945653D01*
X118088224Y-95926764D01*
X118102947Y-95927817D01*
X118110000Y-95928746D01*
X118253579Y-95909842D01*
X118253580Y-95909842D01*
X118280950Y-95898505D01*
X118110000Y-95727553D01*
X117967650Y-95869902D01*
X117892181Y-95945371D01*
X117763553Y-96074000D01*
X117510000Y-96074000D01*
X117510000Y-96041508D01*
X117471803Y-95988935D01*
X117425838Y-95974000D01*
X117394162Y-95974000D01*
X117348197Y-95988935D01*
X117310000Y-96041508D01*
X117310000Y-96106492D01*
X117023953Y-96106492D01*
X117056445Y-96073999D01*
X116838631Y-95856184D01*
X116838626Y-95856180D01*
X116833470Y-95851024D01*
X116710000Y-95727553D01*
X116567650Y-95869902D01*
X116492181Y-95945371D01*
X116363553Y-96074000D01*
X116110000Y-96074000D01*
X116110000Y-96041508D01*
X116071803Y-95988935D01*
X116025838Y-95974000D01*
X115994162Y-95974000D01*
X115948197Y-95988935D01*
X115910000Y-96041508D01*
X115910000Y-96106492D01*
X115623953Y-96106492D01*
X115656446Y-96073999D01*
X115438631Y-95856184D01*
X115438626Y-95856180D01*
X115433471Y-95851025D01*
X115433469Y-95851022D01*
X115310000Y-95727553D01*
X115139048Y-95898504D01*
X115166422Y-95909843D01*
X115309998Y-95928745D01*
X115317051Y-95927817D01*
X115386087Y-95938578D01*
X115438346Y-95984955D01*
X115457235Y-96052223D01*
X115456183Y-96066939D01*
X115455254Y-96073996D01*
X115455254Y-96074002D01*
X115456183Y-96081059D01*
X115445417Y-96150094D01*
X115399037Y-96202350D01*
X115331768Y-96221235D01*
X115317059Y-96220183D01*
X115310002Y-96219254D01*
X115309999Y-96219254D01*
X115166422Y-96238157D01*
X115166417Y-96238158D01*
X115139047Y-96249494D01*
X105152500Y-96249494D01*
X105152500Y-95374000D01*
X114755254Y-95374000D01*
X114774157Y-95517578D01*
X114774158Y-95517583D01*
X114785493Y-95544950D01*
X114785495Y-95544951D01*
X114923954Y-95406492D01*
X115210000Y-95406492D01*
X115248197Y-95459065D01*
X115294162Y-95474000D01*
X115325838Y-95474000D01*
X115371803Y-95459065D01*
X115410000Y-95406492D01*
X115410000Y-95374000D01*
X115663553Y-95374000D01*
X115769584Y-95480029D01*
X115792180Y-95502626D01*
X115792181Y-95502628D01*
X116010000Y-95720446D01*
X116010001Y-95720446D01*
X116214574Y-95515871D01*
X116250416Y-95480030D01*
X116323953Y-95406492D01*
X116610000Y-95406492D01*
X116648197Y-95459065D01*
X116694162Y-95474000D01*
X116725838Y-95474000D01*
X116771803Y-95459065D01*
X116810000Y-95406492D01*
X116810000Y-95374000D01*
X117063553Y-95374000D01*
X117169584Y-95480029D01*
X117192180Y-95502626D01*
X117192181Y-95502628D01*
X117410000Y-95720446D01*
X117410001Y-95720446D01*
X117614574Y-95515871D01*
X117650416Y-95480030D01*
X117723953Y-95406492D01*
X118010000Y-95406492D01*
X118048197Y-95459065D01*
X118094162Y-95474000D01*
X118125838Y-95474000D01*
X118171803Y-95459065D01*
X118210000Y-95406492D01*
X118210000Y-95373999D01*
X118463553Y-95373999D01*
X118634505Y-95544950D01*
X118645842Y-95517580D01*
X118645842Y-95517579D01*
X118664746Y-95374000D01*
X118664746Y-95373999D01*
X118645843Y-95230422D01*
X118634504Y-95203048D01*
X118463553Y-95373999D01*
X118210000Y-95373999D01*
X118210000Y-95341508D01*
X118171803Y-95288935D01*
X118125838Y-95274000D01*
X118094162Y-95274000D01*
X118048197Y-95288935D01*
X118010000Y-95341508D01*
X118010000Y-95406492D01*
X117723953Y-95406492D01*
X117756445Y-95373999D01*
X117538631Y-95156184D01*
X117538626Y-95156180D01*
X117533470Y-95151024D01*
X117410000Y-95027553D01*
X117267650Y-95169902D01*
X117192181Y-95245371D01*
X117063553Y-95374000D01*
X116810000Y-95374000D01*
X116810000Y-95341508D01*
X116771803Y-95288935D01*
X116725838Y-95274000D01*
X116694162Y-95274000D01*
X116648197Y-95288935D01*
X116610000Y-95341508D01*
X116610000Y-95406492D01*
X116323953Y-95406492D01*
X116356446Y-95373999D01*
X116138631Y-95156184D01*
X116138626Y-95156180D01*
X116133470Y-95151024D01*
X116010000Y-95027553D01*
X115867650Y-95169902D01*
X115792181Y-95245371D01*
X115663553Y-95374000D01*
X115410000Y-95374000D01*
X115410000Y-95341508D01*
X115371803Y-95288935D01*
X115325838Y-95274000D01*
X115294162Y-95274000D01*
X115248197Y-95288935D01*
X115210000Y-95341508D01*
X115210000Y-95406492D01*
X114923954Y-95406492D01*
X114956446Y-95374000D01*
X114956446Y-95373999D01*
X114785494Y-95203047D01*
X114774158Y-95230417D01*
X114774157Y-95230422D01*
X114755254Y-95373999D01*
X114755254Y-95374000D01*
X105152500Y-95374000D01*
X105152500Y-94849494D01*
X115139047Y-94849494D01*
X115310000Y-95020446D01*
X115310001Y-95020446D01*
X115514574Y-94815871D01*
X115550416Y-94780030D01*
X115623953Y-94706492D01*
X115910000Y-94706492D01*
X115948197Y-94759065D01*
X115994162Y-94774000D01*
X116025838Y-94774000D01*
X116071803Y-94759065D01*
X116110000Y-94706492D01*
X116110000Y-94673999D01*
X116363553Y-94673999D01*
X116469584Y-94780029D01*
X116492180Y-94802626D01*
X116492181Y-94802628D01*
X116710000Y-95020446D01*
X116710001Y-95020446D01*
X116914574Y-94815871D01*
X116950416Y-94780030D01*
X117023953Y-94706492D01*
X117310000Y-94706492D01*
X117348197Y-94759065D01*
X117394162Y-94774000D01*
X117425838Y-94774000D01*
X117471803Y-94759065D01*
X117510000Y-94706492D01*
X117510000Y-94673999D01*
X117763553Y-94673999D01*
X117869584Y-94780029D01*
X117892180Y-94802626D01*
X117892181Y-94802628D01*
X118110000Y-95020446D01*
X118110001Y-95020446D01*
X118280951Y-94849495D01*
X118280950Y-94849493D01*
X118253583Y-94838158D01*
X118253578Y-94838157D01*
X118110001Y-94819254D01*
X118109996Y-94819254D01*
X118102939Y-94820183D01*
X118033904Y-94809417D01*
X117981648Y-94763036D01*
X117962764Y-94695767D01*
X117963817Y-94681051D01*
X117964745Y-94673998D01*
X117945843Y-94530422D01*
X117934504Y-94503048D01*
X117763553Y-94673999D01*
X117510000Y-94673999D01*
X117510000Y-94641508D01*
X117471803Y-94588935D01*
X117425838Y-94574000D01*
X117394162Y-94574000D01*
X117348197Y-94588935D01*
X117310000Y-94641508D01*
X117310000Y-94706492D01*
X117023953Y-94706492D01*
X117056445Y-94673999D01*
X116885494Y-94503047D01*
X116874158Y-94530417D01*
X116874157Y-94530422D01*
X116855254Y-94673999D01*
X116855254Y-94674002D01*
X116856183Y-94681059D01*
X116845417Y-94750094D01*
X116799037Y-94802350D01*
X116731768Y-94821235D01*
X116717059Y-94820183D01*
X116710002Y-94819254D01*
X116709996Y-94819254D01*
X116702939Y-94820183D01*
X116633904Y-94809417D01*
X116581648Y-94763036D01*
X116562764Y-94695767D01*
X116563817Y-94681051D01*
X116564745Y-94673998D01*
X116545843Y-94530422D01*
X116534504Y-94503048D01*
X116363553Y-94673999D01*
X116110000Y-94673999D01*
X116110000Y-94641508D01*
X116071803Y-94588935D01*
X116025838Y-94574000D01*
X115994162Y-94574000D01*
X115948197Y-94588935D01*
X115910000Y-94641508D01*
X115910000Y-94706492D01*
X115623953Y-94706492D01*
X115656446Y-94673999D01*
X115485494Y-94503047D01*
X115474158Y-94530417D01*
X115474157Y-94530422D01*
X115455254Y-94673999D01*
X115455254Y-94674002D01*
X115456183Y-94681059D01*
X115445417Y-94750094D01*
X115399037Y-94802350D01*
X115331768Y-94821235D01*
X115317059Y-94820183D01*
X115310002Y-94819254D01*
X115309999Y-94819254D01*
X115166422Y-94838157D01*
X115166417Y-94838158D01*
X115139047Y-94849494D01*
X105152500Y-94849494D01*
X105152500Y-94149494D01*
X115839047Y-94149494D01*
X116010000Y-94320446D01*
X116010001Y-94320446D01*
X116180951Y-94149495D01*
X116180950Y-94149494D01*
X117239047Y-94149494D01*
X117410000Y-94320446D01*
X117410001Y-94320446D01*
X117580951Y-94149495D01*
X117580950Y-94149493D01*
X117553583Y-94138158D01*
X117553578Y-94138157D01*
X117410001Y-94119254D01*
X117409999Y-94119254D01*
X117266422Y-94138157D01*
X117266417Y-94138158D01*
X117239047Y-94149494D01*
X116180950Y-94149494D01*
X116180950Y-94149493D01*
X116153583Y-94138158D01*
X116153578Y-94138157D01*
X116010001Y-94119254D01*
X116009999Y-94119254D01*
X115866422Y-94138157D01*
X115866417Y-94138158D01*
X115839047Y-94149494D01*
X105152500Y-94149494D01*
X105152500Y-86988000D01*
X105172185Y-86920961D01*
X105224989Y-86875206D01*
X105276500Y-86864000D01*
X137293500Y-86864000D01*
X137360539Y-86883685D01*
G37*
%TD.AperFunction*%
%TD*%
%TA.AperFunction,Conductor*%
%TO.N,GND*%
G36*
X137360539Y-116351685D02*
G01*
X137406294Y-116404489D01*
X137417500Y-116456000D01*
X137417500Y-117819114D01*
X137415117Y-117843306D01*
X137412592Y-117855999D01*
X137412592Y-117856000D01*
X137416688Y-117876591D01*
X137416689Y-117876597D01*
X137432032Y-117953736D01*
X137432033Y-117953739D01*
X137450405Y-117981235D01*
X137487399Y-118036601D01*
X137570260Y-118091966D01*
X137602840Y-118098446D01*
X137667998Y-118111408D01*
X137668000Y-118111408D01*
X137668001Y-118111408D01*
X137680694Y-118108883D01*
X137704886Y-118106500D01*
X138309500Y-118106500D01*
X138376539Y-118126185D01*
X138422294Y-118178989D01*
X138433500Y-118230500D01*
X138433500Y-123187294D01*
X138433264Y-123192700D01*
X138418957Y-123356224D01*
X138415204Y-123377509D01*
X138374824Y-123528212D01*
X138367431Y-123548525D01*
X138301498Y-123689916D01*
X138290691Y-123708633D01*
X138201201Y-123836438D01*
X138187307Y-123852996D01*
X138076996Y-123963307D01*
X138060438Y-123977201D01*
X137932633Y-124066691D01*
X137913916Y-124077498D01*
X137772525Y-124143431D01*
X137752212Y-124150824D01*
X137601509Y-124191204D01*
X137580224Y-124194957D01*
X137453776Y-124206020D01*
X137416695Y-124209264D01*
X137411294Y-124209500D01*
X127632000Y-124209500D01*
X127564961Y-124189815D01*
X127519206Y-124137011D01*
X127508000Y-124085500D01*
X127508000Y-120210399D01*
X127527685Y-120143360D01*
X127580489Y-120097605D01*
X127649647Y-120087661D01*
X127713203Y-120116686D01*
X127719681Y-120122718D01*
X129229849Y-121632886D01*
X129245978Y-121652747D01*
X129251916Y-121661836D01*
X129279929Y-121683639D01*
X129285691Y-121688728D01*
X129288483Y-121691520D01*
X129307486Y-121705088D01*
X129350811Y-121738809D01*
X129350813Y-121738809D01*
X129357718Y-121742546D01*
X129364796Y-121746006D01*
X129364801Y-121746010D01*
X129417403Y-121761670D01*
X129469338Y-121779500D01*
X129477072Y-121780790D01*
X129484910Y-121781767D01*
X129484912Y-121781768D01*
X129484913Y-121781767D01*
X129484914Y-121781768D01*
X129539756Y-121779500D01*
X133805854Y-121779500D01*
X133858258Y-121791117D01*
X133926670Y-121823019D01*
X133975897Y-121829500D01*
X134430102Y-121829499D01*
X134430104Y-121829499D01*
X134444167Y-121827647D01*
X134479330Y-121823019D01*
X134587359Y-121772644D01*
X134671644Y-121688359D01*
X134722019Y-121580330D01*
X134728500Y-121531103D01*
X134728499Y-121276898D01*
X134722019Y-121227670D01*
X134671644Y-121119641D01*
X134587359Y-121035356D01*
X134587358Y-121035355D01*
X134546669Y-121016382D01*
X134494229Y-120970210D01*
X134475077Y-120903017D01*
X134495292Y-120836136D01*
X134546669Y-120791618D01*
X134547778Y-120791101D01*
X134587359Y-120772644D01*
X134671644Y-120688359D01*
X134722019Y-120580330D01*
X134728500Y-120531103D01*
X134728499Y-120276898D01*
X134728497Y-120276886D01*
X134724523Y-120246696D01*
X134722019Y-120227670D01*
X134671644Y-120119641D01*
X134587359Y-120035356D01*
X134479330Y-119984981D01*
X134479328Y-119984980D01*
X134430113Y-119978501D01*
X134430108Y-119978500D01*
X134430103Y-119978500D01*
X134430096Y-119978500D01*
X133975895Y-119978500D01*
X133926674Y-119984980D01*
X133926666Y-119984982D01*
X133858259Y-120016882D01*
X133805854Y-120028500D01*
X133310900Y-120028500D01*
X133243861Y-120008815D01*
X133223219Y-119992181D01*
X133018518Y-119787480D01*
X132985033Y-119726157D01*
X132983103Y-119684852D01*
X132989278Y-119634000D01*
X135397722Y-119634000D01*
X135416762Y-119790818D01*
X135472779Y-119938521D01*
X135472780Y-119938523D01*
X135539619Y-120035356D01*
X135549421Y-120049557D01*
X135571304Y-120115912D01*
X135559753Y-120172401D01*
X135533980Y-120227669D01*
X135533980Y-120227671D01*
X135527501Y-120276886D01*
X135527500Y-120276903D01*
X135527500Y-120531104D01*
X135533980Y-120580325D01*
X135533982Y-120580333D01*
X135571988Y-120661836D01*
X135584356Y-120688359D01*
X135668641Y-120772644D01*
X135776670Y-120823019D01*
X135825897Y-120829500D01*
X136280102Y-120829499D01*
X136280104Y-120829499D01*
X136294167Y-120827647D01*
X136329330Y-120823019D01*
X136437359Y-120772644D01*
X136521644Y-120688359D01*
X136572019Y-120580330D01*
X136578500Y-120531103D01*
X136578499Y-120276898D01*
X136578497Y-120276886D01*
X136574523Y-120246696D01*
X136572019Y-120227670D01*
X136546246Y-120172401D01*
X136535754Y-120103326D01*
X136556575Y-120049561D01*
X136633220Y-119938523D01*
X136689237Y-119790818D01*
X136708278Y-119634000D01*
X136689237Y-119477182D01*
X136633220Y-119329477D01*
X136543483Y-119199470D01*
X136425240Y-119094717D01*
X136425238Y-119094716D01*
X136425237Y-119094715D01*
X136285365Y-119021303D01*
X136131986Y-118983500D01*
X136131985Y-118983500D01*
X135974015Y-118983500D01*
X135974014Y-118983500D01*
X135820634Y-119021303D01*
X135680762Y-119094715D01*
X135562516Y-119199471D01*
X135472781Y-119329475D01*
X135472780Y-119329476D01*
X135416762Y-119477181D01*
X135397722Y-119633999D01*
X135397722Y-119634000D01*
X132989278Y-119634000D01*
X132970237Y-119477182D01*
X132914220Y-119329477D01*
X132824483Y-119199470D01*
X132706240Y-119094717D01*
X132706238Y-119094716D01*
X132706237Y-119094715D01*
X132566365Y-119021303D01*
X132412986Y-118983500D01*
X132412985Y-118983500D01*
X132255015Y-118983500D01*
X132255014Y-118983500D01*
X132101634Y-119021303D01*
X131961762Y-119094715D01*
X131843516Y-119199471D01*
X131753781Y-119329475D01*
X131753780Y-119329476D01*
X131697762Y-119477181D01*
X131678722Y-119633999D01*
X131678722Y-119634000D01*
X131697762Y-119790818D01*
X131753779Y-119938521D01*
X131753780Y-119938523D01*
X131843517Y-120068530D01*
X131961760Y-120173283D01*
X131961762Y-120173284D01*
X132101634Y-120246696D01*
X132255014Y-120284500D01*
X132402101Y-120284500D01*
X132469140Y-120304185D01*
X132489782Y-120320819D01*
X132801849Y-120632886D01*
X132817977Y-120652745D01*
X132823916Y-120661836D01*
X132851932Y-120683641D01*
X132857693Y-120688730D01*
X132860482Y-120691519D01*
X132879483Y-120705085D01*
X132922811Y-120738809D01*
X132929722Y-120742549D01*
X132936800Y-120746010D01*
X132989405Y-120761671D01*
X133041340Y-120779500D01*
X133041342Y-120779500D01*
X133049079Y-120780791D01*
X133054377Y-120781452D01*
X133059317Y-120783596D01*
X133063331Y-120784182D01*
X133085015Y-120780606D01*
X133111755Y-120779500D01*
X133805854Y-120779500D01*
X133858221Y-120791100D01*
X133859295Y-120791601D01*
X133911748Y-120837756D01*
X133930921Y-120904943D01*
X133910727Y-120971831D01*
X133859466Y-121016317D01*
X133858395Y-121016818D01*
X133805854Y-121028500D01*
X133090139Y-121028500D01*
X133068728Y-121022213D01*
X133058987Y-121026885D01*
X133039038Y-121028500D01*
X129738899Y-121028500D01*
X129671860Y-121008815D01*
X129651218Y-120992181D01*
X127544319Y-118885281D01*
X127510834Y-118823958D01*
X127508000Y-118797600D01*
X127508000Y-116914398D01*
X127527685Y-116847359D01*
X127544319Y-116826717D01*
X128002717Y-116368319D01*
X128064040Y-116334834D01*
X128090398Y-116332000D01*
X137293500Y-116332000D01*
X137360539Y-116351685D01*
G37*
%TD.AperFunction*%
%TD*%
M02*
