%TF.GenerationSoftware,KiCad,Pcbnew,7.0.8*%
%TF.CreationDate,2023-10-28T23:27:17-04:00*%
%TF.ProjectId,AmazonBasicsSecureFrontend,416d617a-6f6e-4426-9173-696373536563,rev?*%
%TF.SameCoordinates,Original*%
%TF.FileFunction,Profile,NP*%
%FSLAX46Y46*%
G04 Gerber Fmt 4.6, Leading zero omitted, Abs format (unit mm)*
G04 Created by KiCad (PCBNEW 7.0.8) date 2023-10-28 23:27:17*
%MOMM*%
%LPD*%
G01*
G04 APERTURE LIST*
%TA.AperFunction,Profile*%
%ADD10C,0.100000*%
%TD*%
G04 APERTURE END LIST*
D10*
X127762000Y-76200000D02*
X115062000Y-76200000D01*
X101600000Y-99568000D02*
X104902000Y-99568000D01*
X138683999Y-78486001D02*
G75*
G03*
X137414000Y-77216001I-1269999J1D01*
G01*
X115062000Y-80518000D02*
X104902000Y-80518000D01*
X103632000Y-123190000D02*
X103632000Y-117856000D01*
X137414000Y-124460000D02*
X104902000Y-124460000D01*
X137414000Y-77216001D02*
X127762000Y-77216000D01*
X138684000Y-82296000D02*
X138684000Y-78486001D01*
X127762000Y-77216000D02*
X127762000Y-76200000D01*
X137668000Y-117856000D02*
X137668000Y-110236000D01*
X103632000Y-117856000D02*
X104648000Y-117856000D01*
X138684000Y-89916000D02*
X137668000Y-89916000D01*
X137414000Y-124460000D02*
G75*
G03*
X138684000Y-123190000I0J1270000D01*
G01*
X104648000Y-110236000D02*
X103632000Y-110236000D01*
X137668000Y-110236000D02*
X138684000Y-110236000D01*
X103632000Y-110236000D02*
X103632000Y-108204000D01*
X138684000Y-123190000D02*
X138684000Y-117856000D01*
X115062000Y-76200000D02*
X115062000Y-80518000D01*
X104902000Y-80518000D02*
X104902000Y-99568000D01*
X104648000Y-117856000D02*
X104648000Y-110236000D01*
X101600000Y-108204000D02*
X101600000Y-99568000D01*
X138684000Y-117856000D02*
X137668000Y-117856000D01*
X137668000Y-82296000D02*
X138684000Y-82296000D01*
X138684000Y-110236000D02*
X138684000Y-89916000D01*
X103632000Y-123190000D02*
G75*
G03*
X104902000Y-124460000I1270000J0D01*
G01*
X137668000Y-89916000D02*
X137668000Y-82296000D01*
X103632000Y-108204000D02*
X101600000Y-108204000D01*
M02*
