%TF.GenerationSoftware,KiCad,Pcbnew,7.0.8*%
%TF.CreationDate,2023-10-28T23:27:17-04:00*%
%TF.ProjectId,AmazonBasicsSecureFrontend,416d617a-6f6e-4426-9173-696373536563,rev?*%
%TF.SameCoordinates,Original*%
%TF.FileFunction,Legend,Top*%
%TF.FilePolarity,Positive*%
%FSLAX46Y46*%
G04 Gerber Fmt 4.6, Leading zero omitted, Abs format (unit mm)*
G04 Created by KiCad (PCBNEW 7.0.8) date 2023-10-28 23:27:17*
%MOMM*%
%LPD*%
G01*
G04 APERTURE LIST*
G04 Aperture macros list*
%AMRoundRect*
0 Rectangle with rounded corners*
0 $1 Rounding radius*
0 $2 $3 $4 $5 $6 $7 $8 $9 X,Y pos of 4 corners*
0 Add a 4 corners polygon primitive as box body*
4,1,4,$2,$3,$4,$5,$6,$7,$8,$9,$2,$3,0*
0 Add four circle primitives for the rounded corners*
1,1,$1+$1,$2,$3*
1,1,$1+$1,$4,$5*
1,1,$1+$1,$6,$7*
1,1,$1+$1,$8,$9*
0 Add four rect primitives between the rounded corners*
20,1,$1+$1,$2,$3,$4,$5,0*
20,1,$1+$1,$4,$5,$6,$7,0*
20,1,$1+$1,$6,$7,$8,$9,0*
20,1,$1+$1,$8,$9,$2,$3,0*%
G04 Aperture macros list end*
%ADD10C,0.150000*%
%ADD11C,0.120000*%
%ADD12R,1.000000X3.000000*%
%ADD13RoundRect,0.225000X0.250000X-0.225000X0.250000X0.225000X-0.250000X0.225000X-0.250000X-0.225000X0*%
%ADD14RoundRect,0.140000X-0.170000X0.140000X-0.170000X-0.140000X0.170000X-0.140000X0.170000X0.140000X0*%
%ADD15RoundRect,0.200000X-0.275000X0.200000X-0.275000X-0.200000X0.275000X-0.200000X0.275000X0.200000X0*%
%ADD16C,2.600000*%
%ADD17R,1.700000X1.700000*%
%ADD18O,1.700000X1.700000*%
%ADD19R,1.500000X0.900000*%
%ADD20R,0.900000X1.500000*%
%ADD21C,0.600000*%
%ADD22R,3.900000X3.900000*%
%ADD23RoundRect,0.135000X0.185000X-0.135000X0.185000X0.135000X-0.185000X0.135000X-0.185000X-0.135000X0*%
%ADD24R,1.100000X1.800000*%
%ADD25C,1.300000*%
%ADD26C,1.500000*%
G04 APERTURE END LIST*
D10*
X106029360Y-108891904D02*
X106505550Y-108891904D01*
X105934122Y-109177619D02*
X106267455Y-108177619D01*
X106267455Y-108177619D02*
X106600788Y-109177619D01*
X106934122Y-109177619D02*
X106934122Y-108510952D01*
X106934122Y-108606190D02*
X106981741Y-108558571D01*
X106981741Y-108558571D02*
X107076979Y-108510952D01*
X107076979Y-108510952D02*
X107219836Y-108510952D01*
X107219836Y-108510952D02*
X107315074Y-108558571D01*
X107315074Y-108558571D02*
X107362693Y-108653809D01*
X107362693Y-108653809D02*
X107362693Y-109177619D01*
X107362693Y-108653809D02*
X107410312Y-108558571D01*
X107410312Y-108558571D02*
X107505550Y-108510952D01*
X107505550Y-108510952D02*
X107648407Y-108510952D01*
X107648407Y-108510952D02*
X107743646Y-108558571D01*
X107743646Y-108558571D02*
X107791265Y-108653809D01*
X107791265Y-108653809D02*
X107791265Y-109177619D01*
X108696026Y-109177619D02*
X108696026Y-108653809D01*
X108696026Y-108653809D02*
X108648407Y-108558571D01*
X108648407Y-108558571D02*
X108553169Y-108510952D01*
X108553169Y-108510952D02*
X108362693Y-108510952D01*
X108362693Y-108510952D02*
X108267455Y-108558571D01*
X108696026Y-109130000D02*
X108600788Y-109177619D01*
X108600788Y-109177619D02*
X108362693Y-109177619D01*
X108362693Y-109177619D02*
X108267455Y-109130000D01*
X108267455Y-109130000D02*
X108219836Y-109034761D01*
X108219836Y-109034761D02*
X108219836Y-108939523D01*
X108219836Y-108939523D02*
X108267455Y-108844285D01*
X108267455Y-108844285D02*
X108362693Y-108796666D01*
X108362693Y-108796666D02*
X108600788Y-108796666D01*
X108600788Y-108796666D02*
X108696026Y-108749047D01*
X109076979Y-108510952D02*
X109600788Y-108510952D01*
X109600788Y-108510952D02*
X109076979Y-109177619D01*
X109076979Y-109177619D02*
X109600788Y-109177619D01*
X110124598Y-109177619D02*
X110029360Y-109130000D01*
X110029360Y-109130000D02*
X109981741Y-109082380D01*
X109981741Y-109082380D02*
X109934122Y-108987142D01*
X109934122Y-108987142D02*
X109934122Y-108701428D01*
X109934122Y-108701428D02*
X109981741Y-108606190D01*
X109981741Y-108606190D02*
X110029360Y-108558571D01*
X110029360Y-108558571D02*
X110124598Y-108510952D01*
X110124598Y-108510952D02*
X110267455Y-108510952D01*
X110267455Y-108510952D02*
X110362693Y-108558571D01*
X110362693Y-108558571D02*
X110410312Y-108606190D01*
X110410312Y-108606190D02*
X110457931Y-108701428D01*
X110457931Y-108701428D02*
X110457931Y-108987142D01*
X110457931Y-108987142D02*
X110410312Y-109082380D01*
X110410312Y-109082380D02*
X110362693Y-109130000D01*
X110362693Y-109130000D02*
X110267455Y-109177619D01*
X110267455Y-109177619D02*
X110124598Y-109177619D01*
X110886503Y-108510952D02*
X110886503Y-109177619D01*
X110886503Y-108606190D02*
X110934122Y-108558571D01*
X110934122Y-108558571D02*
X111029360Y-108510952D01*
X111029360Y-108510952D02*
X111172217Y-108510952D01*
X111172217Y-108510952D02*
X111267455Y-108558571D01*
X111267455Y-108558571D02*
X111315074Y-108653809D01*
X111315074Y-108653809D02*
X111315074Y-109177619D01*
X112886503Y-108653809D02*
X113029360Y-108701428D01*
X113029360Y-108701428D02*
X113076979Y-108749047D01*
X113076979Y-108749047D02*
X113124598Y-108844285D01*
X113124598Y-108844285D02*
X113124598Y-108987142D01*
X113124598Y-108987142D02*
X113076979Y-109082380D01*
X113076979Y-109082380D02*
X113029360Y-109130000D01*
X113029360Y-109130000D02*
X112934122Y-109177619D01*
X112934122Y-109177619D02*
X112553170Y-109177619D01*
X112553170Y-109177619D02*
X112553170Y-108177619D01*
X112553170Y-108177619D02*
X112886503Y-108177619D01*
X112886503Y-108177619D02*
X112981741Y-108225238D01*
X112981741Y-108225238D02*
X113029360Y-108272857D01*
X113029360Y-108272857D02*
X113076979Y-108368095D01*
X113076979Y-108368095D02*
X113076979Y-108463333D01*
X113076979Y-108463333D02*
X113029360Y-108558571D01*
X113029360Y-108558571D02*
X112981741Y-108606190D01*
X112981741Y-108606190D02*
X112886503Y-108653809D01*
X112886503Y-108653809D02*
X112553170Y-108653809D01*
X113981741Y-109177619D02*
X113981741Y-108653809D01*
X113981741Y-108653809D02*
X113934122Y-108558571D01*
X113934122Y-108558571D02*
X113838884Y-108510952D01*
X113838884Y-108510952D02*
X113648408Y-108510952D01*
X113648408Y-108510952D02*
X113553170Y-108558571D01*
X113981741Y-109130000D02*
X113886503Y-109177619D01*
X113886503Y-109177619D02*
X113648408Y-109177619D01*
X113648408Y-109177619D02*
X113553170Y-109130000D01*
X113553170Y-109130000D02*
X113505551Y-109034761D01*
X113505551Y-109034761D02*
X113505551Y-108939523D01*
X113505551Y-108939523D02*
X113553170Y-108844285D01*
X113553170Y-108844285D02*
X113648408Y-108796666D01*
X113648408Y-108796666D02*
X113886503Y-108796666D01*
X113886503Y-108796666D02*
X113981741Y-108749047D01*
X114410313Y-109130000D02*
X114505551Y-109177619D01*
X114505551Y-109177619D02*
X114696027Y-109177619D01*
X114696027Y-109177619D02*
X114791265Y-109130000D01*
X114791265Y-109130000D02*
X114838884Y-109034761D01*
X114838884Y-109034761D02*
X114838884Y-108987142D01*
X114838884Y-108987142D02*
X114791265Y-108891904D01*
X114791265Y-108891904D02*
X114696027Y-108844285D01*
X114696027Y-108844285D02*
X114553170Y-108844285D01*
X114553170Y-108844285D02*
X114457932Y-108796666D01*
X114457932Y-108796666D02*
X114410313Y-108701428D01*
X114410313Y-108701428D02*
X114410313Y-108653809D01*
X114410313Y-108653809D02*
X114457932Y-108558571D01*
X114457932Y-108558571D02*
X114553170Y-108510952D01*
X114553170Y-108510952D02*
X114696027Y-108510952D01*
X114696027Y-108510952D02*
X114791265Y-108558571D01*
X115267456Y-109177619D02*
X115267456Y-108510952D01*
X115267456Y-108177619D02*
X115219837Y-108225238D01*
X115219837Y-108225238D02*
X115267456Y-108272857D01*
X115267456Y-108272857D02*
X115315075Y-108225238D01*
X115315075Y-108225238D02*
X115267456Y-108177619D01*
X115267456Y-108177619D02*
X115267456Y-108272857D01*
X116172217Y-109130000D02*
X116076979Y-109177619D01*
X116076979Y-109177619D02*
X115886503Y-109177619D01*
X115886503Y-109177619D02*
X115791265Y-109130000D01*
X115791265Y-109130000D02*
X115743646Y-109082380D01*
X115743646Y-109082380D02*
X115696027Y-108987142D01*
X115696027Y-108987142D02*
X115696027Y-108701428D01*
X115696027Y-108701428D02*
X115743646Y-108606190D01*
X115743646Y-108606190D02*
X115791265Y-108558571D01*
X115791265Y-108558571D02*
X115886503Y-108510952D01*
X115886503Y-108510952D02*
X116076979Y-108510952D01*
X116076979Y-108510952D02*
X116172217Y-108558571D01*
X116553170Y-109130000D02*
X116648408Y-109177619D01*
X116648408Y-109177619D02*
X116838884Y-109177619D01*
X116838884Y-109177619D02*
X116934122Y-109130000D01*
X116934122Y-109130000D02*
X116981741Y-109034761D01*
X116981741Y-109034761D02*
X116981741Y-108987142D01*
X116981741Y-108987142D02*
X116934122Y-108891904D01*
X116934122Y-108891904D02*
X116838884Y-108844285D01*
X116838884Y-108844285D02*
X116696027Y-108844285D01*
X116696027Y-108844285D02*
X116600789Y-108796666D01*
X116600789Y-108796666D02*
X116553170Y-108701428D01*
X116553170Y-108701428D02*
X116553170Y-108653809D01*
X116553170Y-108653809D02*
X116600789Y-108558571D01*
X116600789Y-108558571D02*
X116696027Y-108510952D01*
X116696027Y-108510952D02*
X116838884Y-108510952D01*
X116838884Y-108510952D02*
X116934122Y-108558571D01*
X106029360Y-110740000D02*
X106172217Y-110787619D01*
X106172217Y-110787619D02*
X106410312Y-110787619D01*
X106410312Y-110787619D02*
X106505550Y-110740000D01*
X106505550Y-110740000D02*
X106553169Y-110692380D01*
X106553169Y-110692380D02*
X106600788Y-110597142D01*
X106600788Y-110597142D02*
X106600788Y-110501904D01*
X106600788Y-110501904D02*
X106553169Y-110406666D01*
X106553169Y-110406666D02*
X106505550Y-110359047D01*
X106505550Y-110359047D02*
X106410312Y-110311428D01*
X106410312Y-110311428D02*
X106219836Y-110263809D01*
X106219836Y-110263809D02*
X106124598Y-110216190D01*
X106124598Y-110216190D02*
X106076979Y-110168571D01*
X106076979Y-110168571D02*
X106029360Y-110073333D01*
X106029360Y-110073333D02*
X106029360Y-109978095D01*
X106029360Y-109978095D02*
X106076979Y-109882857D01*
X106076979Y-109882857D02*
X106124598Y-109835238D01*
X106124598Y-109835238D02*
X106219836Y-109787619D01*
X106219836Y-109787619D02*
X106457931Y-109787619D01*
X106457931Y-109787619D02*
X106600788Y-109835238D01*
X107029360Y-110787619D02*
X107029360Y-110120952D01*
X107029360Y-110216190D02*
X107076979Y-110168571D01*
X107076979Y-110168571D02*
X107172217Y-110120952D01*
X107172217Y-110120952D02*
X107315074Y-110120952D01*
X107315074Y-110120952D02*
X107410312Y-110168571D01*
X107410312Y-110168571D02*
X107457931Y-110263809D01*
X107457931Y-110263809D02*
X107457931Y-110787619D01*
X107457931Y-110263809D02*
X107505550Y-110168571D01*
X107505550Y-110168571D02*
X107600788Y-110120952D01*
X107600788Y-110120952D02*
X107743645Y-110120952D01*
X107743645Y-110120952D02*
X107838884Y-110168571D01*
X107838884Y-110168571D02*
X107886503Y-110263809D01*
X107886503Y-110263809D02*
X107886503Y-110787619D01*
X108791264Y-110787619D02*
X108791264Y-110263809D01*
X108791264Y-110263809D02*
X108743645Y-110168571D01*
X108743645Y-110168571D02*
X108648407Y-110120952D01*
X108648407Y-110120952D02*
X108457931Y-110120952D01*
X108457931Y-110120952D02*
X108362693Y-110168571D01*
X108791264Y-110740000D02*
X108696026Y-110787619D01*
X108696026Y-110787619D02*
X108457931Y-110787619D01*
X108457931Y-110787619D02*
X108362693Y-110740000D01*
X108362693Y-110740000D02*
X108315074Y-110644761D01*
X108315074Y-110644761D02*
X108315074Y-110549523D01*
X108315074Y-110549523D02*
X108362693Y-110454285D01*
X108362693Y-110454285D02*
X108457931Y-110406666D01*
X108457931Y-110406666D02*
X108696026Y-110406666D01*
X108696026Y-110406666D02*
X108791264Y-110359047D01*
X109267455Y-110787619D02*
X109267455Y-110120952D01*
X109267455Y-110311428D02*
X109315074Y-110216190D01*
X109315074Y-110216190D02*
X109362693Y-110168571D01*
X109362693Y-110168571D02*
X109457931Y-110120952D01*
X109457931Y-110120952D02*
X109553169Y-110120952D01*
X109743646Y-110120952D02*
X110124598Y-110120952D01*
X109886503Y-109787619D02*
X109886503Y-110644761D01*
X109886503Y-110644761D02*
X109934122Y-110740000D01*
X109934122Y-110740000D02*
X110029360Y-110787619D01*
X110029360Y-110787619D02*
X110124598Y-110787619D01*
X111172218Y-110740000D02*
X111315075Y-110787619D01*
X111315075Y-110787619D02*
X111553170Y-110787619D01*
X111553170Y-110787619D02*
X111648408Y-110740000D01*
X111648408Y-110740000D02*
X111696027Y-110692380D01*
X111696027Y-110692380D02*
X111743646Y-110597142D01*
X111743646Y-110597142D02*
X111743646Y-110501904D01*
X111743646Y-110501904D02*
X111696027Y-110406666D01*
X111696027Y-110406666D02*
X111648408Y-110359047D01*
X111648408Y-110359047D02*
X111553170Y-110311428D01*
X111553170Y-110311428D02*
X111362694Y-110263809D01*
X111362694Y-110263809D02*
X111267456Y-110216190D01*
X111267456Y-110216190D02*
X111219837Y-110168571D01*
X111219837Y-110168571D02*
X111172218Y-110073333D01*
X111172218Y-110073333D02*
X111172218Y-109978095D01*
X111172218Y-109978095D02*
X111219837Y-109882857D01*
X111219837Y-109882857D02*
X111267456Y-109835238D01*
X111267456Y-109835238D02*
X111362694Y-109787619D01*
X111362694Y-109787619D02*
X111600789Y-109787619D01*
X111600789Y-109787619D02*
X111743646Y-109835238D01*
X112076980Y-110120952D02*
X112267456Y-110787619D01*
X112267456Y-110787619D02*
X112457932Y-110311428D01*
X112457932Y-110311428D02*
X112648408Y-110787619D01*
X112648408Y-110787619D02*
X112838884Y-110120952D01*
X113219837Y-110787619D02*
X113219837Y-110120952D01*
X113219837Y-109787619D02*
X113172218Y-109835238D01*
X113172218Y-109835238D02*
X113219837Y-109882857D01*
X113219837Y-109882857D02*
X113267456Y-109835238D01*
X113267456Y-109835238D02*
X113219837Y-109787619D01*
X113219837Y-109787619D02*
X113219837Y-109882857D01*
X113553170Y-110120952D02*
X113934122Y-110120952D01*
X113696027Y-109787619D02*
X113696027Y-110644761D01*
X113696027Y-110644761D02*
X113743646Y-110740000D01*
X113743646Y-110740000D02*
X113838884Y-110787619D01*
X113838884Y-110787619D02*
X113934122Y-110787619D01*
X114696027Y-110740000D02*
X114600789Y-110787619D01*
X114600789Y-110787619D02*
X114410313Y-110787619D01*
X114410313Y-110787619D02*
X114315075Y-110740000D01*
X114315075Y-110740000D02*
X114267456Y-110692380D01*
X114267456Y-110692380D02*
X114219837Y-110597142D01*
X114219837Y-110597142D02*
X114219837Y-110311428D01*
X114219837Y-110311428D02*
X114267456Y-110216190D01*
X114267456Y-110216190D02*
X114315075Y-110168571D01*
X114315075Y-110168571D02*
X114410313Y-110120952D01*
X114410313Y-110120952D02*
X114600789Y-110120952D01*
X114600789Y-110120952D02*
X114696027Y-110168571D01*
X115124599Y-110787619D02*
X115124599Y-109787619D01*
X115553170Y-110787619D02*
X115553170Y-110263809D01*
X115553170Y-110263809D02*
X115505551Y-110168571D01*
X115505551Y-110168571D02*
X115410313Y-110120952D01*
X115410313Y-110120952D02*
X115267456Y-110120952D01*
X115267456Y-110120952D02*
X115172218Y-110168571D01*
X115172218Y-110168571D02*
X115124599Y-110216190D01*
X105981741Y-111397619D02*
X106219836Y-112397619D01*
X106219836Y-112397619D02*
X106410312Y-111683333D01*
X106410312Y-111683333D02*
X106600788Y-112397619D01*
X106600788Y-112397619D02*
X106838884Y-111397619D01*
X107172217Y-112350000D02*
X107315074Y-112397619D01*
X107315074Y-112397619D02*
X107553169Y-112397619D01*
X107553169Y-112397619D02*
X107648407Y-112350000D01*
X107648407Y-112350000D02*
X107696026Y-112302380D01*
X107696026Y-112302380D02*
X107743645Y-112207142D01*
X107743645Y-112207142D02*
X107743645Y-112111904D01*
X107743645Y-112111904D02*
X107696026Y-112016666D01*
X107696026Y-112016666D02*
X107648407Y-111969047D01*
X107648407Y-111969047D02*
X107553169Y-111921428D01*
X107553169Y-111921428D02*
X107362693Y-111873809D01*
X107362693Y-111873809D02*
X107267455Y-111826190D01*
X107267455Y-111826190D02*
X107219836Y-111778571D01*
X107219836Y-111778571D02*
X107172217Y-111683333D01*
X107172217Y-111683333D02*
X107172217Y-111588095D01*
X107172217Y-111588095D02*
X107219836Y-111492857D01*
X107219836Y-111492857D02*
X107267455Y-111445238D01*
X107267455Y-111445238D02*
X107362693Y-111397619D01*
X107362693Y-111397619D02*
X107600788Y-111397619D01*
X107600788Y-111397619D02*
X107743645Y-111445238D01*
X108076979Y-111397619D02*
X108696026Y-111397619D01*
X108696026Y-111397619D02*
X108362693Y-111778571D01*
X108362693Y-111778571D02*
X108505550Y-111778571D01*
X108505550Y-111778571D02*
X108600788Y-111826190D01*
X108600788Y-111826190D02*
X108648407Y-111873809D01*
X108648407Y-111873809D02*
X108696026Y-111969047D01*
X108696026Y-111969047D02*
X108696026Y-112207142D01*
X108696026Y-112207142D02*
X108648407Y-112302380D01*
X108648407Y-112302380D02*
X108600788Y-112350000D01*
X108600788Y-112350000D02*
X108505550Y-112397619D01*
X108505550Y-112397619D02*
X108219836Y-112397619D01*
X108219836Y-112397619D02*
X108124598Y-112350000D01*
X108124598Y-112350000D02*
X108076979Y-112302380D01*
X109315074Y-111397619D02*
X109410312Y-111397619D01*
X109410312Y-111397619D02*
X109505550Y-111445238D01*
X109505550Y-111445238D02*
X109553169Y-111492857D01*
X109553169Y-111492857D02*
X109600788Y-111588095D01*
X109600788Y-111588095D02*
X109648407Y-111778571D01*
X109648407Y-111778571D02*
X109648407Y-112016666D01*
X109648407Y-112016666D02*
X109600788Y-112207142D01*
X109600788Y-112207142D02*
X109553169Y-112302380D01*
X109553169Y-112302380D02*
X109505550Y-112350000D01*
X109505550Y-112350000D02*
X109410312Y-112397619D01*
X109410312Y-112397619D02*
X109315074Y-112397619D01*
X109315074Y-112397619D02*
X109219836Y-112350000D01*
X109219836Y-112350000D02*
X109172217Y-112302380D01*
X109172217Y-112302380D02*
X109124598Y-112207142D01*
X109124598Y-112207142D02*
X109076979Y-112016666D01*
X109076979Y-112016666D02*
X109076979Y-111778571D01*
X109076979Y-111778571D02*
X109124598Y-111588095D01*
X109124598Y-111588095D02*
X109172217Y-111492857D01*
X109172217Y-111492857D02*
X109219836Y-111445238D01*
X109219836Y-111445238D02*
X109315074Y-111397619D01*
X110076979Y-112016666D02*
X110838884Y-112016666D01*
X111505550Y-111397619D02*
X111600788Y-111397619D01*
X111600788Y-111397619D02*
X111696026Y-111445238D01*
X111696026Y-111445238D02*
X111743645Y-111492857D01*
X111743645Y-111492857D02*
X111791264Y-111588095D01*
X111791264Y-111588095D02*
X111838883Y-111778571D01*
X111838883Y-111778571D02*
X111838883Y-112016666D01*
X111838883Y-112016666D02*
X111791264Y-112207142D01*
X111791264Y-112207142D02*
X111743645Y-112302380D01*
X111743645Y-112302380D02*
X111696026Y-112350000D01*
X111696026Y-112350000D02*
X111600788Y-112397619D01*
X111600788Y-112397619D02*
X111505550Y-112397619D01*
X111505550Y-112397619D02*
X111410312Y-112350000D01*
X111410312Y-112350000D02*
X111362693Y-112302380D01*
X111362693Y-112302380D02*
X111315074Y-112207142D01*
X111315074Y-112207142D02*
X111267455Y-112016666D01*
X111267455Y-112016666D02*
X111267455Y-111778571D01*
X111267455Y-111778571D02*
X111315074Y-111588095D01*
X111315074Y-111588095D02*
X111362693Y-111492857D01*
X111362693Y-111492857D02*
X111410312Y-111445238D01*
X111410312Y-111445238D02*
X111505550Y-111397619D01*
X112791264Y-112397619D02*
X112219836Y-112397619D01*
X112505550Y-112397619D02*
X112505550Y-111397619D01*
X112505550Y-111397619D02*
X112410312Y-111540476D01*
X112410312Y-111540476D02*
X112315074Y-111635714D01*
X112315074Y-111635714D02*
X112219836Y-111683333D01*
X106648407Y-114007619D02*
X106315074Y-113531428D01*
X106076979Y-114007619D02*
X106076979Y-113007619D01*
X106076979Y-113007619D02*
X106457931Y-113007619D01*
X106457931Y-113007619D02*
X106553169Y-113055238D01*
X106553169Y-113055238D02*
X106600788Y-113102857D01*
X106600788Y-113102857D02*
X106648407Y-113198095D01*
X106648407Y-113198095D02*
X106648407Y-113340952D01*
X106648407Y-113340952D02*
X106600788Y-113436190D01*
X106600788Y-113436190D02*
X106553169Y-113483809D01*
X106553169Y-113483809D02*
X106457931Y-113531428D01*
X106457931Y-113531428D02*
X106076979Y-113531428D01*
X107457931Y-113960000D02*
X107362693Y-114007619D01*
X107362693Y-114007619D02*
X107172217Y-114007619D01*
X107172217Y-114007619D02*
X107076979Y-113960000D01*
X107076979Y-113960000D02*
X107029360Y-113864761D01*
X107029360Y-113864761D02*
X107029360Y-113483809D01*
X107029360Y-113483809D02*
X107076979Y-113388571D01*
X107076979Y-113388571D02*
X107172217Y-113340952D01*
X107172217Y-113340952D02*
X107362693Y-113340952D01*
X107362693Y-113340952D02*
X107457931Y-113388571D01*
X107457931Y-113388571D02*
X107505550Y-113483809D01*
X107505550Y-113483809D02*
X107505550Y-113579047D01*
X107505550Y-113579047D02*
X107029360Y-113674285D01*
X107934122Y-113340952D02*
X107934122Y-114340952D01*
X107934122Y-113388571D02*
X108029360Y-113340952D01*
X108029360Y-113340952D02*
X108219836Y-113340952D01*
X108219836Y-113340952D02*
X108315074Y-113388571D01*
X108315074Y-113388571D02*
X108362693Y-113436190D01*
X108362693Y-113436190D02*
X108410312Y-113531428D01*
X108410312Y-113531428D02*
X108410312Y-113817142D01*
X108410312Y-113817142D02*
X108362693Y-113912380D01*
X108362693Y-113912380D02*
X108315074Y-113960000D01*
X108315074Y-113960000D02*
X108219836Y-114007619D01*
X108219836Y-114007619D02*
X108029360Y-114007619D01*
X108029360Y-114007619D02*
X107934122Y-113960000D01*
X108981741Y-114007619D02*
X108886503Y-113960000D01*
X108886503Y-113960000D02*
X108838884Y-113864761D01*
X108838884Y-113864761D02*
X108838884Y-113007619D01*
X109791265Y-114007619D02*
X109791265Y-113483809D01*
X109791265Y-113483809D02*
X109743646Y-113388571D01*
X109743646Y-113388571D02*
X109648408Y-113340952D01*
X109648408Y-113340952D02*
X109457932Y-113340952D01*
X109457932Y-113340952D02*
X109362694Y-113388571D01*
X109791265Y-113960000D02*
X109696027Y-114007619D01*
X109696027Y-114007619D02*
X109457932Y-114007619D01*
X109457932Y-114007619D02*
X109362694Y-113960000D01*
X109362694Y-113960000D02*
X109315075Y-113864761D01*
X109315075Y-113864761D02*
X109315075Y-113769523D01*
X109315075Y-113769523D02*
X109362694Y-113674285D01*
X109362694Y-113674285D02*
X109457932Y-113626666D01*
X109457932Y-113626666D02*
X109696027Y-113626666D01*
X109696027Y-113626666D02*
X109791265Y-113579047D01*
X110696027Y-113960000D02*
X110600789Y-114007619D01*
X110600789Y-114007619D02*
X110410313Y-114007619D01*
X110410313Y-114007619D02*
X110315075Y-113960000D01*
X110315075Y-113960000D02*
X110267456Y-113912380D01*
X110267456Y-113912380D02*
X110219837Y-113817142D01*
X110219837Y-113817142D02*
X110219837Y-113531428D01*
X110219837Y-113531428D02*
X110267456Y-113436190D01*
X110267456Y-113436190D02*
X110315075Y-113388571D01*
X110315075Y-113388571D02*
X110410313Y-113340952D01*
X110410313Y-113340952D02*
X110600789Y-113340952D01*
X110600789Y-113340952D02*
X110696027Y-113388571D01*
X111505551Y-113960000D02*
X111410313Y-114007619D01*
X111410313Y-114007619D02*
X111219837Y-114007619D01*
X111219837Y-114007619D02*
X111124599Y-113960000D01*
X111124599Y-113960000D02*
X111076980Y-113864761D01*
X111076980Y-113864761D02*
X111076980Y-113483809D01*
X111076980Y-113483809D02*
X111124599Y-113388571D01*
X111124599Y-113388571D02*
X111219837Y-113340952D01*
X111219837Y-113340952D02*
X111410313Y-113340952D01*
X111410313Y-113340952D02*
X111505551Y-113388571D01*
X111505551Y-113388571D02*
X111553170Y-113483809D01*
X111553170Y-113483809D02*
X111553170Y-113579047D01*
X111553170Y-113579047D02*
X111076980Y-113674285D01*
X111981742Y-114007619D02*
X111981742Y-113340952D01*
X111981742Y-113436190D02*
X112029361Y-113388571D01*
X112029361Y-113388571D02*
X112124599Y-113340952D01*
X112124599Y-113340952D02*
X112267456Y-113340952D01*
X112267456Y-113340952D02*
X112362694Y-113388571D01*
X112362694Y-113388571D02*
X112410313Y-113483809D01*
X112410313Y-113483809D02*
X112410313Y-114007619D01*
X112410313Y-113483809D02*
X112457932Y-113388571D01*
X112457932Y-113388571D02*
X112553170Y-113340952D01*
X112553170Y-113340952D02*
X112696027Y-113340952D01*
X112696027Y-113340952D02*
X112791266Y-113388571D01*
X112791266Y-113388571D02*
X112838885Y-113483809D01*
X112838885Y-113483809D02*
X112838885Y-114007619D01*
X113696027Y-113960000D02*
X113600789Y-114007619D01*
X113600789Y-114007619D02*
X113410313Y-114007619D01*
X113410313Y-114007619D02*
X113315075Y-113960000D01*
X113315075Y-113960000D02*
X113267456Y-113864761D01*
X113267456Y-113864761D02*
X113267456Y-113483809D01*
X113267456Y-113483809D02*
X113315075Y-113388571D01*
X113315075Y-113388571D02*
X113410313Y-113340952D01*
X113410313Y-113340952D02*
X113600789Y-113340952D01*
X113600789Y-113340952D02*
X113696027Y-113388571D01*
X113696027Y-113388571D02*
X113743646Y-113483809D01*
X113743646Y-113483809D02*
X113743646Y-113579047D01*
X113743646Y-113579047D02*
X113267456Y-113674285D01*
X114172218Y-113340952D02*
X114172218Y-114007619D01*
X114172218Y-113436190D02*
X114219837Y-113388571D01*
X114219837Y-113388571D02*
X114315075Y-113340952D01*
X114315075Y-113340952D02*
X114457932Y-113340952D01*
X114457932Y-113340952D02*
X114553170Y-113388571D01*
X114553170Y-113388571D02*
X114600789Y-113483809D01*
X114600789Y-113483809D02*
X114600789Y-114007619D01*
X114934123Y-113340952D02*
X115315075Y-113340952D01*
X115076980Y-113007619D02*
X115076980Y-113864761D01*
X115076980Y-113864761D02*
X115124599Y-113960000D01*
X115124599Y-113960000D02*
X115219837Y-114007619D01*
X115219837Y-114007619D02*
X115315075Y-114007619D01*
X106076979Y-115617619D02*
X106076979Y-114617619D01*
X106076979Y-114617619D02*
X106315074Y-114617619D01*
X106315074Y-114617619D02*
X106457931Y-114665238D01*
X106457931Y-114665238D02*
X106553169Y-114760476D01*
X106553169Y-114760476D02*
X106600788Y-114855714D01*
X106600788Y-114855714D02*
X106648407Y-115046190D01*
X106648407Y-115046190D02*
X106648407Y-115189047D01*
X106648407Y-115189047D02*
X106600788Y-115379523D01*
X106600788Y-115379523D02*
X106553169Y-115474761D01*
X106553169Y-115474761D02*
X106457931Y-115570000D01*
X106457931Y-115570000D02*
X106315074Y-115617619D01*
X106315074Y-115617619D02*
X106076979Y-115617619D01*
X107076979Y-115617619D02*
X107076979Y-114950952D01*
X107076979Y-114617619D02*
X107029360Y-114665238D01*
X107029360Y-114665238D02*
X107076979Y-114712857D01*
X107076979Y-114712857D02*
X107124598Y-114665238D01*
X107124598Y-114665238D02*
X107076979Y-114617619D01*
X107076979Y-114617619D02*
X107076979Y-114712857D01*
X107981740Y-114950952D02*
X107981740Y-115760476D01*
X107981740Y-115760476D02*
X107934121Y-115855714D01*
X107934121Y-115855714D02*
X107886502Y-115903333D01*
X107886502Y-115903333D02*
X107791264Y-115950952D01*
X107791264Y-115950952D02*
X107648407Y-115950952D01*
X107648407Y-115950952D02*
X107553169Y-115903333D01*
X107981740Y-115570000D02*
X107886502Y-115617619D01*
X107886502Y-115617619D02*
X107696026Y-115617619D01*
X107696026Y-115617619D02*
X107600788Y-115570000D01*
X107600788Y-115570000D02*
X107553169Y-115522380D01*
X107553169Y-115522380D02*
X107505550Y-115427142D01*
X107505550Y-115427142D02*
X107505550Y-115141428D01*
X107505550Y-115141428D02*
X107553169Y-115046190D01*
X107553169Y-115046190D02*
X107600788Y-114998571D01*
X107600788Y-114998571D02*
X107696026Y-114950952D01*
X107696026Y-114950952D02*
X107886502Y-114950952D01*
X107886502Y-114950952D02*
X107981740Y-114998571D01*
X108457931Y-115617619D02*
X108457931Y-114950952D01*
X108457931Y-114617619D02*
X108410312Y-114665238D01*
X108410312Y-114665238D02*
X108457931Y-114712857D01*
X108457931Y-114712857D02*
X108505550Y-114665238D01*
X108505550Y-114665238D02*
X108457931Y-114617619D01*
X108457931Y-114617619D02*
X108457931Y-114712857D01*
X108791264Y-114950952D02*
X109172216Y-114950952D01*
X108934121Y-114617619D02*
X108934121Y-115474761D01*
X108934121Y-115474761D02*
X108981740Y-115570000D01*
X108981740Y-115570000D02*
X109076978Y-115617619D01*
X109076978Y-115617619D02*
X109172216Y-115617619D01*
X109934121Y-115617619D02*
X109934121Y-115093809D01*
X109934121Y-115093809D02*
X109886502Y-114998571D01*
X109886502Y-114998571D02*
X109791264Y-114950952D01*
X109791264Y-114950952D02*
X109600788Y-114950952D01*
X109600788Y-114950952D02*
X109505550Y-114998571D01*
X109934121Y-115570000D02*
X109838883Y-115617619D01*
X109838883Y-115617619D02*
X109600788Y-115617619D01*
X109600788Y-115617619D02*
X109505550Y-115570000D01*
X109505550Y-115570000D02*
X109457931Y-115474761D01*
X109457931Y-115474761D02*
X109457931Y-115379523D01*
X109457931Y-115379523D02*
X109505550Y-115284285D01*
X109505550Y-115284285D02*
X109600788Y-115236666D01*
X109600788Y-115236666D02*
X109838883Y-115236666D01*
X109838883Y-115236666D02*
X109934121Y-115189047D01*
X110553169Y-115617619D02*
X110457931Y-115570000D01*
X110457931Y-115570000D02*
X110410312Y-115474761D01*
X110410312Y-115474761D02*
X110410312Y-114617619D01*
X112029360Y-115093809D02*
X112172217Y-115141428D01*
X112172217Y-115141428D02*
X112219836Y-115189047D01*
X112219836Y-115189047D02*
X112267455Y-115284285D01*
X112267455Y-115284285D02*
X112267455Y-115427142D01*
X112267455Y-115427142D02*
X112219836Y-115522380D01*
X112219836Y-115522380D02*
X112172217Y-115570000D01*
X112172217Y-115570000D02*
X112076979Y-115617619D01*
X112076979Y-115617619D02*
X111696027Y-115617619D01*
X111696027Y-115617619D02*
X111696027Y-114617619D01*
X111696027Y-114617619D02*
X112029360Y-114617619D01*
X112029360Y-114617619D02*
X112124598Y-114665238D01*
X112124598Y-114665238D02*
X112172217Y-114712857D01*
X112172217Y-114712857D02*
X112219836Y-114808095D01*
X112219836Y-114808095D02*
X112219836Y-114903333D01*
X112219836Y-114903333D02*
X112172217Y-114998571D01*
X112172217Y-114998571D02*
X112124598Y-115046190D01*
X112124598Y-115046190D02*
X112029360Y-115093809D01*
X112029360Y-115093809D02*
X111696027Y-115093809D01*
X112838884Y-115617619D02*
X112743646Y-115570000D01*
X112743646Y-115570000D02*
X112696027Y-115522380D01*
X112696027Y-115522380D02*
X112648408Y-115427142D01*
X112648408Y-115427142D02*
X112648408Y-115141428D01*
X112648408Y-115141428D02*
X112696027Y-115046190D01*
X112696027Y-115046190D02*
X112743646Y-114998571D01*
X112743646Y-114998571D02*
X112838884Y-114950952D01*
X112838884Y-114950952D02*
X112981741Y-114950952D01*
X112981741Y-114950952D02*
X113076979Y-114998571D01*
X113076979Y-114998571D02*
X113124598Y-115046190D01*
X113124598Y-115046190D02*
X113172217Y-115141428D01*
X113172217Y-115141428D02*
X113172217Y-115427142D01*
X113172217Y-115427142D02*
X113124598Y-115522380D01*
X113124598Y-115522380D02*
X113076979Y-115570000D01*
X113076979Y-115570000D02*
X112981741Y-115617619D01*
X112981741Y-115617619D02*
X112838884Y-115617619D01*
X114029360Y-115617619D02*
X114029360Y-115093809D01*
X114029360Y-115093809D02*
X113981741Y-114998571D01*
X113981741Y-114998571D02*
X113886503Y-114950952D01*
X113886503Y-114950952D02*
X113696027Y-114950952D01*
X113696027Y-114950952D02*
X113600789Y-114998571D01*
X114029360Y-115570000D02*
X113934122Y-115617619D01*
X113934122Y-115617619D02*
X113696027Y-115617619D01*
X113696027Y-115617619D02*
X113600789Y-115570000D01*
X113600789Y-115570000D02*
X113553170Y-115474761D01*
X113553170Y-115474761D02*
X113553170Y-115379523D01*
X113553170Y-115379523D02*
X113600789Y-115284285D01*
X113600789Y-115284285D02*
X113696027Y-115236666D01*
X113696027Y-115236666D02*
X113934122Y-115236666D01*
X113934122Y-115236666D02*
X114029360Y-115189047D01*
X114505551Y-115617619D02*
X114505551Y-114950952D01*
X114505551Y-115141428D02*
X114553170Y-115046190D01*
X114553170Y-115046190D02*
X114600789Y-114998571D01*
X114600789Y-114998571D02*
X114696027Y-114950952D01*
X114696027Y-114950952D02*
X114791265Y-114950952D01*
X115553170Y-115617619D02*
X115553170Y-114617619D01*
X115553170Y-115570000D02*
X115457932Y-115617619D01*
X115457932Y-115617619D02*
X115267456Y-115617619D01*
X115267456Y-115617619D02*
X115172218Y-115570000D01*
X115172218Y-115570000D02*
X115124599Y-115522380D01*
X115124599Y-115522380D02*
X115076980Y-115427142D01*
X115076980Y-115427142D02*
X115076980Y-115141428D01*
X115076980Y-115141428D02*
X115124599Y-115046190D01*
X115124599Y-115046190D02*
X115172218Y-114998571D01*
X115172218Y-114998571D02*
X115267456Y-114950952D01*
X115267456Y-114950952D02*
X115457932Y-114950952D01*
X115457932Y-114950952D02*
X115553170Y-114998571D01*
X137842619Y-105441592D02*
X137366428Y-105774925D01*
X137842619Y-106013020D02*
X136842619Y-106013020D01*
X136842619Y-106013020D02*
X136842619Y-105632068D01*
X136842619Y-105632068D02*
X136890238Y-105536830D01*
X136890238Y-105536830D02*
X136937857Y-105489211D01*
X136937857Y-105489211D02*
X137033095Y-105441592D01*
X137033095Y-105441592D02*
X137175952Y-105441592D01*
X137175952Y-105441592D02*
X137271190Y-105489211D01*
X137271190Y-105489211D02*
X137318809Y-105536830D01*
X137318809Y-105536830D02*
X137366428Y-105632068D01*
X137366428Y-105632068D02*
X137366428Y-106013020D01*
X137318809Y-105013020D02*
X137318809Y-104679687D01*
X137842619Y-104536830D02*
X137842619Y-105013020D01*
X137842619Y-105013020D02*
X136842619Y-105013020D01*
X136842619Y-105013020D02*
X136842619Y-104536830D01*
X137842619Y-103632068D02*
X137842619Y-104108258D01*
X137842619Y-104108258D02*
X136842619Y-104108258D01*
X137556904Y-103346353D02*
X137556904Y-102870163D01*
X137842619Y-103441591D02*
X136842619Y-103108258D01*
X136842619Y-103108258D02*
X137842619Y-102774925D01*
X137366428Y-102251115D02*
X137842619Y-102251115D01*
X136842619Y-102584448D02*
X137366428Y-102251115D01*
X137366428Y-102251115D02*
X136842619Y-101917782D01*
X131330819Y-105778058D02*
X131330819Y-105159011D01*
X131330819Y-105159011D02*
X131711771Y-105492344D01*
X131711771Y-105492344D02*
X131711771Y-105349487D01*
X131711771Y-105349487D02*
X131759390Y-105254249D01*
X131759390Y-105254249D02*
X131807009Y-105206630D01*
X131807009Y-105206630D02*
X131902247Y-105159011D01*
X131902247Y-105159011D02*
X132140342Y-105159011D01*
X132140342Y-105159011D02*
X132235580Y-105206630D01*
X132235580Y-105206630D02*
X132283200Y-105254249D01*
X132283200Y-105254249D02*
X132330819Y-105349487D01*
X132330819Y-105349487D02*
X132330819Y-105635201D01*
X132330819Y-105635201D02*
X132283200Y-105730439D01*
X132283200Y-105730439D02*
X132235580Y-105778058D01*
X131330819Y-104825677D02*
X132330819Y-104587582D01*
X132330819Y-104587582D02*
X131616533Y-104397106D01*
X131616533Y-104397106D02*
X132330819Y-104206630D01*
X132330819Y-104206630D02*
X131330819Y-103968535D01*
X131403838Y-114074411D02*
X131356219Y-114169649D01*
X131356219Y-114169649D02*
X131356219Y-114312506D01*
X131356219Y-114312506D02*
X131403838Y-114455363D01*
X131403838Y-114455363D02*
X131499076Y-114550601D01*
X131499076Y-114550601D02*
X131594314Y-114598220D01*
X131594314Y-114598220D02*
X131784790Y-114645839D01*
X131784790Y-114645839D02*
X131927647Y-114645839D01*
X131927647Y-114645839D02*
X132118123Y-114598220D01*
X132118123Y-114598220D02*
X132213361Y-114550601D01*
X132213361Y-114550601D02*
X132308600Y-114455363D01*
X132308600Y-114455363D02*
X132356219Y-114312506D01*
X132356219Y-114312506D02*
X132356219Y-114217268D01*
X132356219Y-114217268D02*
X132308600Y-114074411D01*
X132308600Y-114074411D02*
X132260980Y-114026792D01*
X132260980Y-114026792D02*
X131927647Y-114026792D01*
X131927647Y-114026792D02*
X131927647Y-114217268D01*
X132356219Y-113598220D02*
X131356219Y-113598220D01*
X131356219Y-113598220D02*
X132356219Y-113026792D01*
X132356219Y-113026792D02*
X131356219Y-113026792D01*
X132356219Y-112550601D02*
X131356219Y-112550601D01*
X131356219Y-112550601D02*
X131356219Y-112312506D01*
X131356219Y-112312506D02*
X131403838Y-112169649D01*
X131403838Y-112169649D02*
X131499076Y-112074411D01*
X131499076Y-112074411D02*
X131594314Y-112026792D01*
X131594314Y-112026792D02*
X131784790Y-111979173D01*
X131784790Y-111979173D02*
X131927647Y-111979173D01*
X131927647Y-111979173D02*
X132118123Y-112026792D01*
X132118123Y-112026792D02*
X132213361Y-112074411D01*
X132213361Y-112074411D02*
X132308600Y-112169649D01*
X132308600Y-112169649D02*
X132356219Y-112312506D01*
X132356219Y-112312506D02*
X132356219Y-112550601D01*
X136258419Y-115633258D02*
X136258419Y-115014211D01*
X136258419Y-115014211D02*
X136639371Y-115347544D01*
X136639371Y-115347544D02*
X136639371Y-115204687D01*
X136639371Y-115204687D02*
X136686990Y-115109449D01*
X136686990Y-115109449D02*
X136734609Y-115061830D01*
X136734609Y-115061830D02*
X136829847Y-115014211D01*
X136829847Y-115014211D02*
X137067942Y-115014211D01*
X137067942Y-115014211D02*
X137163180Y-115061830D01*
X137163180Y-115061830D02*
X137210800Y-115109449D01*
X137210800Y-115109449D02*
X137258419Y-115204687D01*
X137258419Y-115204687D02*
X137258419Y-115490401D01*
X137258419Y-115490401D02*
X137210800Y-115585639D01*
X137210800Y-115585639D02*
X137163180Y-115633258D01*
X136591752Y-114680877D02*
X137258419Y-114442782D01*
X137258419Y-114442782D02*
X136591752Y-114204687D01*
X136258419Y-113918972D02*
X136258419Y-113299925D01*
X136258419Y-113299925D02*
X136639371Y-113633258D01*
X136639371Y-113633258D02*
X136639371Y-113490401D01*
X136639371Y-113490401D02*
X136686990Y-113395163D01*
X136686990Y-113395163D02*
X136734609Y-113347544D01*
X136734609Y-113347544D02*
X136829847Y-113299925D01*
X136829847Y-113299925D02*
X137067942Y-113299925D01*
X137067942Y-113299925D02*
X137163180Y-113347544D01*
X137163180Y-113347544D02*
X137210800Y-113395163D01*
X137210800Y-113395163D02*
X137258419Y-113490401D01*
X137258419Y-113490401D02*
X137258419Y-113776115D01*
X137258419Y-113776115D02*
X137210800Y-113871353D01*
X137210800Y-113871353D02*
X137163180Y-113918972D01*
X133515341Y-87181619D02*
X134134388Y-87181619D01*
X134134388Y-87181619D02*
X133801055Y-87562571D01*
X133801055Y-87562571D02*
X133943912Y-87562571D01*
X133943912Y-87562571D02*
X134039150Y-87610190D01*
X134039150Y-87610190D02*
X134086769Y-87657809D01*
X134086769Y-87657809D02*
X134134388Y-87753047D01*
X134134388Y-87753047D02*
X134134388Y-87991142D01*
X134134388Y-87991142D02*
X134086769Y-88086380D01*
X134086769Y-88086380D02*
X134039150Y-88134000D01*
X134039150Y-88134000D02*
X133943912Y-88181619D01*
X133943912Y-88181619D02*
X133658198Y-88181619D01*
X133658198Y-88181619D02*
X133562960Y-88134000D01*
X133562960Y-88134000D02*
X133515341Y-88086380D01*
X134467722Y-87514952D02*
X134705817Y-88181619D01*
X134705817Y-88181619D02*
X134943912Y-87514952D01*
X135229627Y-87181619D02*
X135848674Y-87181619D01*
X135848674Y-87181619D02*
X135515341Y-87562571D01*
X135515341Y-87562571D02*
X135658198Y-87562571D01*
X135658198Y-87562571D02*
X135753436Y-87610190D01*
X135753436Y-87610190D02*
X135801055Y-87657809D01*
X135801055Y-87657809D02*
X135848674Y-87753047D01*
X135848674Y-87753047D02*
X135848674Y-87991142D01*
X135848674Y-87991142D02*
X135801055Y-88086380D01*
X135801055Y-88086380D02*
X135753436Y-88134000D01*
X135753436Y-88134000D02*
X135658198Y-88181619D01*
X135658198Y-88181619D02*
X135372484Y-88181619D01*
X135372484Y-88181619D02*
X135277246Y-88134000D01*
X135277246Y-88134000D02*
X135229627Y-88086380D01*
X133467722Y-88791619D02*
X134039150Y-88791619D01*
X133753436Y-89791619D02*
X133753436Y-88791619D01*
X134277246Y-88791619D02*
X134943912Y-89791619D01*
X134943912Y-88791619D02*
X134277246Y-89791619D01*
X134182007Y-91401619D02*
X133848674Y-90925428D01*
X133610579Y-91401619D02*
X133610579Y-90401619D01*
X133610579Y-90401619D02*
X133991531Y-90401619D01*
X133991531Y-90401619D02*
X134086769Y-90449238D01*
X134086769Y-90449238D02*
X134134388Y-90496857D01*
X134134388Y-90496857D02*
X134182007Y-90592095D01*
X134182007Y-90592095D02*
X134182007Y-90734952D01*
X134182007Y-90734952D02*
X134134388Y-90830190D01*
X134134388Y-90830190D02*
X134086769Y-90877809D01*
X134086769Y-90877809D02*
X133991531Y-90925428D01*
X133991531Y-90925428D02*
X133610579Y-90925428D01*
X134515341Y-90401619D02*
X135182007Y-91401619D01*
X135182007Y-90401619D02*
X134515341Y-91401619D01*
X134134388Y-92059238D02*
X134039150Y-92011619D01*
X134039150Y-92011619D02*
X133896293Y-92011619D01*
X133896293Y-92011619D02*
X133753436Y-92059238D01*
X133753436Y-92059238D02*
X133658198Y-92154476D01*
X133658198Y-92154476D02*
X133610579Y-92249714D01*
X133610579Y-92249714D02*
X133562960Y-92440190D01*
X133562960Y-92440190D02*
X133562960Y-92583047D01*
X133562960Y-92583047D02*
X133610579Y-92773523D01*
X133610579Y-92773523D02*
X133658198Y-92868761D01*
X133658198Y-92868761D02*
X133753436Y-92964000D01*
X133753436Y-92964000D02*
X133896293Y-93011619D01*
X133896293Y-93011619D02*
X133991531Y-93011619D01*
X133991531Y-93011619D02*
X134134388Y-92964000D01*
X134134388Y-92964000D02*
X134182007Y-92916380D01*
X134182007Y-92916380D02*
X134182007Y-92583047D01*
X134182007Y-92583047D02*
X133991531Y-92583047D01*
X134610579Y-93011619D02*
X134610579Y-92011619D01*
X134610579Y-92011619D02*
X135182007Y-93011619D01*
X135182007Y-93011619D02*
X135182007Y-92011619D01*
X135658198Y-93011619D02*
X135658198Y-92011619D01*
X135658198Y-92011619D02*
X135896293Y-92011619D01*
X135896293Y-92011619D02*
X136039150Y-92059238D01*
X136039150Y-92059238D02*
X136134388Y-92154476D01*
X136134388Y-92154476D02*
X136182007Y-92249714D01*
X136182007Y-92249714D02*
X136229626Y-92440190D01*
X136229626Y-92440190D02*
X136229626Y-92583047D01*
X136229626Y-92583047D02*
X136182007Y-92773523D01*
X136182007Y-92773523D02*
X136134388Y-92868761D01*
X136134388Y-92868761D02*
X136039150Y-92964000D01*
X136039150Y-92964000D02*
X135896293Y-93011619D01*
X135896293Y-93011619D02*
X135658198Y-93011619D01*
X135821009Y-98893142D02*
X135868628Y-98750285D01*
X135868628Y-98750285D02*
X135916247Y-98702666D01*
X135916247Y-98702666D02*
X136011485Y-98655047D01*
X136011485Y-98655047D02*
X136154342Y-98655047D01*
X136154342Y-98655047D02*
X136249580Y-98702666D01*
X136249580Y-98702666D02*
X136297200Y-98750285D01*
X136297200Y-98750285D02*
X136344819Y-98845523D01*
X136344819Y-98845523D02*
X136344819Y-99226475D01*
X136344819Y-99226475D02*
X135344819Y-99226475D01*
X135344819Y-99226475D02*
X135344819Y-98893142D01*
X135344819Y-98893142D02*
X135392438Y-98797904D01*
X135392438Y-98797904D02*
X135440057Y-98750285D01*
X135440057Y-98750285D02*
X135535295Y-98702666D01*
X135535295Y-98702666D02*
X135630533Y-98702666D01*
X135630533Y-98702666D02*
X135725771Y-98750285D01*
X135725771Y-98750285D02*
X135773390Y-98797904D01*
X135773390Y-98797904D02*
X135821009Y-98893142D01*
X135821009Y-98893142D02*
X135821009Y-99226475D01*
X135344819Y-98035999D02*
X135344819Y-97845523D01*
X135344819Y-97845523D02*
X135392438Y-97750285D01*
X135392438Y-97750285D02*
X135487676Y-97655047D01*
X135487676Y-97655047D02*
X135678152Y-97607428D01*
X135678152Y-97607428D02*
X136011485Y-97607428D01*
X136011485Y-97607428D02*
X136201961Y-97655047D01*
X136201961Y-97655047D02*
X136297200Y-97750285D01*
X136297200Y-97750285D02*
X136344819Y-97845523D01*
X136344819Y-97845523D02*
X136344819Y-98035999D01*
X136344819Y-98035999D02*
X136297200Y-98131237D01*
X136297200Y-98131237D02*
X136201961Y-98226475D01*
X136201961Y-98226475D02*
X136011485Y-98274094D01*
X136011485Y-98274094D02*
X135678152Y-98274094D01*
X135678152Y-98274094D02*
X135487676Y-98226475D01*
X135487676Y-98226475D02*
X135392438Y-98131237D01*
X135392438Y-98131237D02*
X135344819Y-98035999D01*
X135344819Y-96988380D02*
X135344819Y-96797904D01*
X135344819Y-96797904D02*
X135392438Y-96702666D01*
X135392438Y-96702666D02*
X135487676Y-96607428D01*
X135487676Y-96607428D02*
X135678152Y-96559809D01*
X135678152Y-96559809D02*
X136011485Y-96559809D01*
X136011485Y-96559809D02*
X136201961Y-96607428D01*
X136201961Y-96607428D02*
X136297200Y-96702666D01*
X136297200Y-96702666D02*
X136344819Y-96797904D01*
X136344819Y-96797904D02*
X136344819Y-96988380D01*
X136344819Y-96988380D02*
X136297200Y-97083618D01*
X136297200Y-97083618D02*
X136201961Y-97178856D01*
X136201961Y-97178856D02*
X136011485Y-97226475D01*
X136011485Y-97226475D02*
X135678152Y-97226475D01*
X135678152Y-97226475D02*
X135487676Y-97178856D01*
X135487676Y-97178856D02*
X135392438Y-97083618D01*
X135392438Y-97083618D02*
X135344819Y-96988380D01*
X135344819Y-96274094D02*
X135344819Y-95702666D01*
X136344819Y-95988380D02*
X135344819Y-95988380D01*
D11*
%TO.C,REF\u002A\u002A*%
X137200000Y-106386000D02*
X137200000Y-111586000D01*
X135110000Y-111586000D02*
X134090000Y-111586000D01*
X132000000Y-106386000D02*
X132000000Y-111586000D01*
X137200000Y-106386000D02*
X136630000Y-106386000D01*
X135110000Y-106386000D02*
X134090000Y-106386000D01*
X132570000Y-111586000D02*
X132000000Y-111586000D01*
X136630000Y-111586000D02*
X136630000Y-112946000D01*
X132570000Y-106386000D02*
X132000000Y-106386000D01*
X137200000Y-111586000D02*
X136630000Y-111586000D01*
X105916000Y-88786580D02*
X105916000Y-88505420D01*
X106936000Y-88786580D02*
X106936000Y-88505420D01*
%TO.C,C1*%
X106786000Y-91078164D02*
X106786000Y-91293836D01*
X106066000Y-91078164D02*
X106066000Y-91293836D01*
%TO.C,R2*%
X131078500Y-108728742D02*
X131078500Y-109203258D01*
X130033500Y-108728742D02*
X130033500Y-109203258D01*
%TO.C,J1*%
X132394000Y-98104000D02*
X131064000Y-98104000D01*
X132394000Y-96774000D02*
X132394000Y-98104000D01*
X132394000Y-95504000D02*
X132394000Y-87824000D01*
X132394000Y-95504000D02*
X129734000Y-95504000D01*
X132394000Y-87824000D02*
X129734000Y-87824000D01*
X129734000Y-95504000D02*
X129734000Y-87824000D01*
%TO.C,U1*%
X109010000Y-80714000D02*
X127410000Y-80714000D01*
X109010000Y-87514000D02*
X108610000Y-87514000D01*
X109010000Y-87514000D02*
X109010000Y-80714000D01*
X109010000Y-105564000D02*
X109010000Y-106564000D01*
X109010000Y-106564000D02*
X110510000Y-106564000D01*
X127410000Y-80714000D02*
X127410000Y-86914000D01*
X127410000Y-106564000D02*
X125910000Y-106564000D01*
X127410000Y-106564000D02*
X127410000Y-105564000D01*
%TO.C,R1*%
X107316000Y-90323641D02*
X107316000Y-90016359D01*
X108076000Y-90323641D02*
X108076000Y-90016359D01*
%TO.C,SW2*%
X136930000Y-100256000D02*
X134850000Y-100256000D01*
X133170000Y-98986000D02*
X133660000Y-99476000D01*
X133170000Y-98986000D02*
X133170000Y-96086000D01*
X138610000Y-98986000D02*
X138120000Y-99476000D01*
X138610000Y-98986000D02*
X138610000Y-96086000D01*
X133170000Y-96086000D02*
X133660000Y-95596000D01*
X138610000Y-96086000D02*
X138120000Y-95596000D01*
X136930000Y-94816000D02*
X134850000Y-94816000D01*
%TO.C,J2*%
X137180000Y-111566000D02*
X137180000Y-106366000D01*
X137180000Y-111566000D02*
X134580000Y-111566000D01*
X137180000Y-106366000D02*
X131980000Y-106366000D01*
X134580000Y-111566000D02*
X134580000Y-108966000D01*
X134580000Y-108966000D02*
X131980000Y-108966000D01*
X133310000Y-111566000D02*
X131980000Y-111566000D01*
X131980000Y-111566000D02*
X131980000Y-110236000D01*
X131980000Y-108966000D02*
X131980000Y-106366000D01*
%TD*%
%LPC*%
D12*
%TO.C,REF\u002A\u002A*%
X135870000Y-111506000D03*
X135870000Y-106466000D03*
X133330000Y-111506000D03*
X133330000Y-106466000D03*
%TD*%
D13*
%TO.C,REF\u002A\u002A*%
X106426000Y-89421000D03*
X106426000Y-87871000D03*
%TD*%
D14*
%TO.C,C1*%
X106426000Y-90706000D03*
X106426000Y-91666000D03*
%TD*%
D15*
%TO.C,R2*%
X130556000Y-108141000D03*
X130556000Y-109791000D03*
%TD*%
D16*
%TO.C,REF\u002A\u002A*%
X107442000Y-121412000D03*
%TD*%
D17*
%TO.C,J1*%
X131064000Y-96774000D03*
D18*
X131064000Y-94234000D03*
X131064000Y-91694000D03*
X131064000Y-89154000D03*
%TD*%
D19*
%TO.C,U1*%
X109460000Y-88354000D03*
X109460000Y-89624000D03*
X109460000Y-90894000D03*
X109460000Y-92164000D03*
X109460000Y-93434000D03*
X109460000Y-94704000D03*
X109460000Y-95974000D03*
X109460000Y-97244000D03*
X109460000Y-98514000D03*
X109460000Y-99784000D03*
X109460000Y-101054000D03*
X109460000Y-102324000D03*
X109460000Y-103594000D03*
X109460000Y-104864000D03*
D20*
X111225000Y-106114000D03*
X112495000Y-106114000D03*
X113765000Y-106114000D03*
X115035000Y-106114000D03*
X116305000Y-106114000D03*
X117575000Y-106114000D03*
X118845000Y-106114000D03*
X120115000Y-106114000D03*
X121385000Y-106114000D03*
X122655000Y-106114000D03*
X123925000Y-106114000D03*
X125195000Y-106114000D03*
D19*
X126960000Y-104864000D03*
X126960000Y-103594000D03*
X126960000Y-102324000D03*
X126960000Y-101054000D03*
X126960000Y-99784000D03*
X126960000Y-98514000D03*
X126960000Y-97244000D03*
X126960000Y-95974000D03*
X126960000Y-94704000D03*
X126960000Y-93434000D03*
X126960000Y-92164000D03*
X126960000Y-90894000D03*
X126960000Y-89624000D03*
X126960000Y-88354000D03*
D21*
X115310000Y-95374000D03*
X115310000Y-96774000D03*
X116010000Y-94674000D03*
X116010000Y-96074000D03*
X116010000Y-97474000D03*
X116710000Y-95374000D03*
D22*
X116710000Y-96074000D03*
D21*
X116710000Y-96774000D03*
X117410000Y-94674000D03*
X117410000Y-96074000D03*
X117410000Y-97474000D03*
X118110000Y-95374000D03*
X118110000Y-96774000D03*
%TD*%
D23*
%TO.C,R1*%
X107696000Y-90680000D03*
X107696000Y-89660000D03*
%TD*%
D24*
%TO.C,SW2*%
X134040000Y-100636000D03*
X134040000Y-94436000D03*
X137740000Y-100636000D03*
X137740000Y-94436000D03*
%TD*%
D25*
%TO.C,REF\u002A\u002A*%
X107442000Y-117856000D03*
%TD*%
D17*
%TO.C,J2*%
X133310000Y-110236000D03*
D18*
X135850000Y-110236000D03*
X133310000Y-107696000D03*
X135850000Y-107696000D03*
%TD*%
D26*
%TO.C,REF\u002A\u002A*%
X131318000Y-80264000D03*
%TD*%
D16*
%TO.C,REF\u002A\u002A*%
X135128000Y-80264000D03*
%TD*%
%LPD*%
M02*
