M48
; DRILL file {KiCad 7.0.8} date Sat Oct 28 23:27:18 2023
; FORMAT={-:-/ absolute / inch / decimal}
; #@! TF.CreationDate,2023-10-28T23:27:18-04:00
; #@! TF.GenerationSoftware,Kicad,Pcbnew,7.0.8
; #@! TF.FileFunction,Plated,1,2,PTH
FMAT,2
INCH
; #@! TA.AperFunction,Plated,PTH,ComponentDrill
T1C0.0079
; #@! TA.AperFunction,Plated,PTH,ViaDrill
T2C0.0157
; #@! TA.AperFunction,Plated,PTH,ComponentDrill
T3C0.0394
%
G90
G05
T1
X4.5398Y-3.7549
X4.5398Y-3.81
X4.5673Y-3.7273
X4.5673Y-3.7824
X4.5673Y-3.8376
X4.5949Y-3.7549
X4.5949Y-3.81
X4.6224Y-3.7273
X4.6224Y-3.7824
X4.6224Y-3.8376
X4.65Y-3.7549
X4.65Y-3.81
T2
X4.17Y-3.665
X4.2Y-3.9
X4.24Y-3.725
X4.255Y-4.185
X4.38Y-3.53
X4.39Y-3.58
X4.43Y-4.08
X4.535Y-4.115
X4.593Y-4.238
X4.665Y-4.535
X4.675Y-4.615
X4.68Y-4.33
X4.735Y-4.5
X4.74Y-3.49
X4.745Y-3.97
X4.815Y-3.545
X4.815Y-4.075
X4.82Y-4.385
X4.97Y-4.31
X5.055Y-4.175
X5.055Y-4.615
X5.07Y-3.455
X5.07Y-4.03
X5.07Y-4.835
X5.075Y-3.57
X5.08Y-3.735
X5.13Y-4.08
X5.145Y-4.725
X5.2Y-4.025
X5.21Y-4.71
X5.245Y-3.62
X5.25Y-4.84
X5.265Y-4.095
X5.31Y-4.635
X5.32Y-4.58
X5.3564Y-4.71
X5.37Y-3.46
X5.39Y-4.6
X5.4Y-4.83
T3
X5.16Y-3.51
X5.16Y-3.61
X5.16Y-3.71
X5.16Y-3.81
X5.2484Y-4.24
X5.2484Y-4.34
X5.3484Y-4.24
X5.3484Y-4.34
T0
M30
