%TF.GenerationSoftware,KiCad,Pcbnew,7.0.8*%
%TF.CreationDate,2023-10-28T23:27:17-04:00*%
%TF.ProjectId,AmazonBasicsSecureFrontend,416d617a-6f6e-4426-9173-696373536563,rev?*%
%TF.SameCoordinates,Original*%
%TF.FileFunction,Copper,L1,Top*%
%TF.FilePolarity,Positive*%
%FSLAX46Y46*%
G04 Gerber Fmt 4.6, Leading zero omitted, Abs format (unit mm)*
G04 Created by KiCad (PCBNEW 7.0.8) date 2023-10-28 23:27:17*
%MOMM*%
%LPD*%
G01*
G04 APERTURE LIST*
G04 Aperture macros list*
%AMRoundRect*
0 Rectangle with rounded corners*
0 $1 Rounding radius*
0 $2 $3 $4 $5 $6 $7 $8 $9 X,Y pos of 4 corners*
0 Add a 4 corners polygon primitive as box body*
4,1,4,$2,$3,$4,$5,$6,$7,$8,$9,$2,$3,0*
0 Add four circle primitives for the rounded corners*
1,1,$1+$1,$2,$3*
1,1,$1+$1,$4,$5*
1,1,$1+$1,$6,$7*
1,1,$1+$1,$8,$9*
0 Add four rect primitives between the rounded corners*
20,1,$1+$1,$2,$3,$4,$5,0*
20,1,$1+$1,$4,$5,$6,$7,0*
20,1,$1+$1,$6,$7,$8,$9,0*
20,1,$1+$1,$8,$9,$2,$3,0*%
G04 Aperture macros list end*
%TA.AperFunction,SMDPad,CuDef*%
%ADD10R,1.000000X3.000000*%
%TD*%
%TA.AperFunction,SMDPad,CuDef*%
%ADD11RoundRect,0.225000X0.250000X-0.225000X0.250000X0.225000X-0.250000X0.225000X-0.250000X-0.225000X0*%
%TD*%
%TA.AperFunction,SMDPad,CuDef*%
%ADD12RoundRect,0.140000X-0.170000X0.140000X-0.170000X-0.140000X0.170000X-0.140000X0.170000X0.140000X0*%
%TD*%
%TA.AperFunction,SMDPad,CuDef*%
%ADD13RoundRect,0.200000X-0.275000X0.200000X-0.275000X-0.200000X0.275000X-0.200000X0.275000X0.200000X0*%
%TD*%
%TA.AperFunction,ComponentPad*%
%ADD14R,1.700000X1.700000*%
%TD*%
%TA.AperFunction,ComponentPad*%
%ADD15O,1.700000X1.700000*%
%TD*%
%TA.AperFunction,SMDPad,CuDef*%
%ADD16R,1.500000X0.900000*%
%TD*%
%TA.AperFunction,SMDPad,CuDef*%
%ADD17R,0.900000X1.500000*%
%TD*%
%TA.AperFunction,HeatsinkPad*%
%ADD18C,0.600000*%
%TD*%
%TA.AperFunction,SMDPad,CuDef*%
%ADD19R,3.900000X3.900000*%
%TD*%
%TA.AperFunction,SMDPad,CuDef*%
%ADD20RoundRect,0.135000X0.185000X-0.135000X0.185000X0.135000X-0.185000X0.135000X-0.185000X-0.135000X0*%
%TD*%
%TA.AperFunction,SMDPad,CuDef*%
%ADD21R,1.100000X1.800000*%
%TD*%
%TA.AperFunction,ViaPad*%
%ADD22C,0.800000*%
%TD*%
%TA.AperFunction,Conductor*%
%ADD23C,0.250000*%
%TD*%
G04 APERTURE END LIST*
D10*
%TO.P,REF\u002A\u002A,1*%
%TO.N,N/C*%
X135870000Y-111506000D03*
%TO.P,REF\u002A\u002A,2*%
X135870000Y-106466000D03*
%TO.P,REF\u002A\u002A,3*%
X133330000Y-111506000D03*
%TO.P,REF\u002A\u002A,4*%
X133330000Y-106466000D03*
%TD*%
D11*
%TO.P,REF\u002A\u002A,1*%
%TO.N,+3V3*%
X106426000Y-89421000D03*
%TO.P,REF\u002A\u002A,2*%
%TO.N,GND*%
X106426000Y-87871000D03*
%TD*%
D12*
%TO.P,C1,1*%
%TO.N,RST*%
X106426000Y-90706000D03*
%TO.P,C1,2*%
%TO.N,GND*%
X106426000Y-91666000D03*
%TD*%
D13*
%TO.P,R2,1*%
%TO.N,3W*%
X130556000Y-108141000D03*
%TO.P,R2,2*%
%TO.N,GND*%
X130556000Y-109791000D03*
%TD*%
D14*
%TO.P,J1,1,Pin_1*%
%TO.N,GND*%
X131064000Y-96774000D03*
D15*
%TO.P,J1,2,Pin_2*%
%TO.N,RX*%
X131064000Y-94234000D03*
%TO.P,J1,3,Pin_3*%
%TO.N,TX*%
X131064000Y-91694000D03*
%TO.P,J1,4,Pin_4*%
%TO.N,+3V3*%
X131064000Y-89154000D03*
%TD*%
D16*
%TO.P,U1,1,GND*%
%TO.N,GND*%
X109460000Y-88354000D03*
%TO.P,U1,2,VCC*%
%TO.N,+3V3*%
X109460000Y-89624000D03*
%TO.P,U1,3,EN*%
%TO.N,RST*%
X109460000Y-90894000D03*
%TO.P,U1,4,IO4*%
%TO.N,unconnected-(U1-IO4-Pad4)*%
X109460000Y-92164000D03*
%TO.P,U1,5,IO5*%
%TO.N,unconnected-(U1-IO5-Pad5)*%
X109460000Y-93434000D03*
%TO.P,U1,6,IO6*%
%TO.N,unconnected-(U1-IO6-Pad6)*%
X109460000Y-94704000D03*
%TO.P,U1,7,IO7*%
%TO.N,unconnected-(U1-IO7-Pad7)*%
X109460000Y-95974000D03*
%TO.P,U1,8,IO15*%
%TO.N,unconnected-(U1-IO15-Pad8)*%
X109460000Y-97244000D03*
%TO.P,U1,9,IO16*%
%TO.N,unconnected-(U1-IO16-Pad9)*%
X109460000Y-98514000D03*
%TO.P,U1,10,IO17*%
%TO.N,unconnected-(U1-IO17-Pad10)*%
X109460000Y-99784000D03*
%TO.P,U1,11,IO18*%
%TO.N,unconnected-(U1-IO18-Pad11)*%
X109460000Y-101054000D03*
%TO.P,U1,12,IO8*%
%TO.N,unconnected-(U1-IO8-Pad12)*%
X109460000Y-102324000D03*
%TO.P,U1,13,IO19*%
%TO.N,unconnected-(U1-IO19-Pad13)*%
X109460000Y-103594000D03*
%TO.P,U1,14,IO20*%
%TO.N,unconnected-(U1-IO20-Pad14)*%
X109460000Y-104864000D03*
D17*
%TO.P,U1,15,IO3*%
%TO.N,unconnected-(U1-IO3-Pad15)*%
X111225000Y-106114000D03*
%TO.P,U1,16,IO46*%
%TO.N,unconnected-(U1-IO46-Pad16)*%
X112495000Y-106114000D03*
%TO.P,U1,17,IO9*%
%TO.N,unconnected-(U1-IO9-Pad17)*%
X113765000Y-106114000D03*
%TO.P,U1,18,IO10*%
%TO.N,SW_MAIN*%
X115035000Y-106114000D03*
%TO.P,U1,19,IO11*%
%TO.N,unconnected-(U1-IO11-Pad19)*%
X116305000Y-106114000D03*
%TO.P,U1,20,IO12*%
%TO.N,LED_IN*%
X117575000Y-106114000D03*
%TO.P,U1,21,IO13*%
%TO.N,unconnected-(U1-IO13-Pad21)*%
X118845000Y-106114000D03*
%TO.P,U1,22,IO14*%
%TO.N,SCL*%
X120115000Y-106114000D03*
%TO.P,U1,23,IO21*%
%TO.N,SDA*%
X121385000Y-106114000D03*
%TO.P,U1,24,IO33*%
%TO.N,unconnected-(U1-IO33-Pad24)*%
X122655000Y-106114000D03*
%TO.P,U1,25,IO34*%
%TO.N,3W*%
X123925000Y-106114000D03*
%TO.P,U1,26,IO45*%
%TO.N,unconnected-(U1-IO45-Pad26)*%
X125195000Y-106114000D03*
D16*
%TO.P,U1,27,IO0*%
%TO.N,BOOT*%
X126960000Y-104864000D03*
%TO.P,U1,28,IO35*%
%TO.N,unconnected-(U1-IO35-Pad28)*%
X126960000Y-103594000D03*
%TO.P,U1,29,IO36*%
%TO.N,RELAY*%
X126960000Y-102324000D03*
%TO.P,U1,30,IO37*%
%TO.N,unconnected-(U1-IO37-Pad30)*%
X126960000Y-101054000D03*
%TO.P,U1,31,IO38*%
%TO.N,unconnected-(U1-IO38-Pad31)*%
X126960000Y-99784000D03*
%TO.P,U1,32,IO39*%
%TO.N,unconnected-(U1-IO39-Pad32)*%
X126960000Y-98514000D03*
%TO.P,U1,33,IO40*%
%TO.N,unconnected-(U1-IO40-Pad33)*%
X126960000Y-97244000D03*
%TO.P,U1,34,IO41*%
%TO.N,unconnected-(U1-IO41-Pad34)*%
X126960000Y-95974000D03*
%TO.P,U1,35,IO42*%
%TO.N,unconnected-(U1-IO42-Pad35)*%
X126960000Y-94704000D03*
%TO.P,U1,36,RX*%
%TO.N,RX*%
X126960000Y-93434000D03*
%TO.P,U1,37,TX*%
%TO.N,TX*%
X126960000Y-92164000D03*
%TO.P,U1,38,IO2*%
%TO.N,unconnected-(U1-IO2-Pad38)*%
X126960000Y-90894000D03*
%TO.P,U1,39,IO1*%
%TO.N,unconnected-(U1-IO1-Pad39)*%
X126960000Y-89624000D03*
%TO.P,U1,40,GND*%
%TO.N,GND*%
X126960000Y-88354000D03*
D18*
%TO.P,U1,41,EPAD*%
X115310000Y-95374000D03*
X115310000Y-96774000D03*
X116010000Y-94674000D03*
X116010000Y-96074000D03*
X116010000Y-97474000D03*
X116710000Y-95374000D03*
D19*
X116710000Y-96074000D03*
D18*
X116710000Y-96774000D03*
X117410000Y-94674000D03*
X117410000Y-96074000D03*
X117410000Y-97474000D03*
X118110000Y-95374000D03*
X118110000Y-96774000D03*
%TD*%
D20*
%TO.P,R1,1*%
%TO.N,RST*%
X107696000Y-90680000D03*
%TO.P,R1,2*%
%TO.N,+3V3*%
X107696000Y-89660000D03*
%TD*%
D21*
%TO.P,SW2,1,1*%
%TO.N,GND*%
X134040000Y-100636000D03*
X134040000Y-94436000D03*
%TO.P,SW2,2,2*%
%TO.N,BOOT*%
X137740000Y-100636000D03*
X137740000Y-94436000D03*
%TD*%
D14*
%TO.P,J2,1,Pin_1*%
%TO.N,GND*%
X133310000Y-110236000D03*
D15*
%TO.P,J2,2,Pin_2*%
%TO.N,+3V3*%
X135850000Y-110236000D03*
%TO.P,J2,3,Pin_3*%
%TO.N,3W*%
X133310000Y-107696000D03*
%TO.P,J2,4,Pin_4*%
%TO.N,RELAY*%
X135850000Y-107696000D03*
%TD*%
D22*
%TO.N,GND*%
X130683000Y-120015000D03*
X133350000Y-122936000D03*
X136398000Y-87884000D03*
X128778000Y-87757000D03*
X128905000Y-90678000D03*
X133223000Y-91948000D03*
X129032000Y-94869000D03*
X132080000Y-102235000D03*
X133731000Y-104013000D03*
X128397000Y-106045000D03*
X122301000Y-103505000D03*
X120523000Y-100838000D03*
X122301000Y-90043000D03*
X120396000Y-88646000D03*
X111506000Y-90932000D03*
X107696000Y-94615000D03*
X105918000Y-93091000D03*
X108077000Y-106299000D03*
X116662200Y-107645200D03*
X118745000Y-117221000D03*
X136906000Y-116840000D03*
X134874000Y-117729000D03*
X137160000Y-122682000D03*
X128778000Y-122809000D03*
X128397000Y-117221000D03*
%TO.N,SW_MAIN*%
X115189000Y-104521000D03*
%TO.N,GND*%
X120269000Y-114300000D03*
%TO.N,LED_IN*%
X118491000Y-115189000D03*
%TO.N,GND*%
X130302000Y-103632000D03*
%TO.N,RELAY*%
X128778000Y-102362000D03*
%TO.N,GND*%
X112522000Y-103632000D03*
X118872000Y-109982000D03*
X122428000Y-111379000D03*
X126238000Y-109474000D03*
X135128000Y-116332000D03*
%TO.N,+3V3*%
X111252000Y-89662000D03*
%TO.N,SCL*%
X132334000Y-119634000D03*
%TO.N,SDA*%
X136053000Y-119634000D03*
%TO.N,RST*%
X106680000Y-99060000D03*
%TD*%
D23*
%TO.N,SW_MAIN*%
X115035000Y-104675000D02*
X115189000Y-104521000D01*
X115035000Y-106114000D02*
X115035000Y-104675000D01*
%TO.N,LED_IN*%
X118491000Y-115189000D02*
X117575000Y-114273000D01*
X117575000Y-114273000D02*
X117575000Y-106114000D01*
%TO.N,BOOT*%
X126960000Y-104864000D02*
X131102000Y-104864000D01*
X131102000Y-104864000D02*
X133096000Y-102870000D01*
X133096000Y-102870000D02*
X136906000Y-102870000D01*
X136906000Y-102870000D02*
X137740000Y-102036000D01*
X137740000Y-102036000D02*
X137740000Y-100636000D01*
%TO.N,RELAY*%
X128740000Y-102324000D02*
X128778000Y-102362000D01*
X126960000Y-102324000D02*
X128740000Y-102324000D01*
%TO.N,3W*%
X123925000Y-106114000D02*
X123925000Y-107161000D01*
X123925000Y-107161000D02*
X124905000Y-108141000D01*
X124905000Y-108141000D02*
X130556000Y-108141000D01*
%TO.N,SDA*%
X136053000Y-119634000D02*
X134515380Y-119634000D01*
X134515380Y-119634000D02*
X121385000Y-106503620D01*
X121385000Y-106503620D02*
X121385000Y-106114000D01*
%TO.N,SCL*%
X132334000Y-119634000D02*
X120115000Y-107415000D01*
X120115000Y-107415000D02*
X120115000Y-106114000D01*
%TO.N,unconnected-(U1-IO16-Pad9)*%
X109498000Y-98552000D02*
X109460000Y-98514000D01*
%TO.N,GND*%
X135128000Y-116332000D02*
X133310000Y-114514000D01*
X133310000Y-114514000D02*
X133310000Y-110236000D01*
%TO.N,BOOT*%
X137740000Y-100636000D02*
X137740000Y-94436000D01*
%TO.N,+3V3*%
X111252000Y-89662000D02*
X109498000Y-89662000D01*
X107732000Y-89624000D02*
X107696000Y-89660000D01*
X109498000Y-89662000D02*
X109460000Y-89624000D01*
X109460000Y-89624000D02*
X107732000Y-89624000D01*
X106665000Y-89660000D02*
X106426000Y-89421000D01*
X107696000Y-89660000D02*
X106665000Y-89660000D01*
%TO.N,SDA*%
X136053000Y-119634000D02*
X136053000Y-119543000D01*
%TO.N,3W*%
X131001000Y-107696000D02*
X130556000Y-108141000D01*
X133310000Y-107696000D02*
X131001000Y-107696000D01*
%TO.N,RST*%
X107696000Y-90680000D02*
X109246000Y-90680000D01*
X107696000Y-90680000D02*
X107696000Y-92964000D01*
X106680000Y-93980000D02*
X106680000Y-99060000D01*
X109246000Y-90680000D02*
X109460000Y-90894000D01*
X107696000Y-92964000D02*
X106680000Y-93980000D01*
X106452000Y-90680000D02*
X106426000Y-90706000D01*
X107696000Y-90680000D02*
X106452000Y-90680000D01*
%TO.N,unconnected-(U1-IO18-Pad11)*%
X109498000Y-101092000D02*
X109460000Y-101054000D01*
%TO.N,RX*%
X130264000Y-93434000D02*
X131064000Y-94234000D01*
X126960000Y-93434000D02*
X130264000Y-93434000D01*
%TO.N,TX*%
X126960000Y-92164000D02*
X130594000Y-92164000D01*
X130594000Y-92164000D02*
X131064000Y-91694000D01*
%TD*%
%TA.AperFunction,Conductor*%
%TO.N,GND*%
G36*
X137360539Y-86883685D02*
G01*
X137406294Y-86936489D01*
X137417500Y-86988000D01*
X137417500Y-89879114D01*
X137415117Y-89903306D01*
X137412592Y-89915999D01*
X137412592Y-89916000D01*
X137416688Y-89936591D01*
X137416689Y-89936597D01*
X137432032Y-90013736D01*
X137432033Y-90013739D01*
X137432034Y-90013740D01*
X137487399Y-90096601D01*
X137570260Y-90151966D01*
X137602840Y-90158446D01*
X137667998Y-90171408D01*
X137668000Y-90171408D01*
X137668001Y-90171408D01*
X137680694Y-90168883D01*
X137704886Y-90166500D01*
X138309500Y-90166500D01*
X138376539Y-90186185D01*
X138422294Y-90238989D01*
X138433500Y-90290500D01*
X138433500Y-93161500D01*
X138413815Y-93228539D01*
X138361011Y-93274294D01*
X138309500Y-93285500D01*
X137165323Y-93285500D01*
X137092264Y-93300032D01*
X137092260Y-93300033D01*
X137009399Y-93355399D01*
X136954033Y-93438260D01*
X136949360Y-93449544D01*
X136947798Y-93448897D01*
X136922062Y-93498100D01*
X136861347Y-93532676D01*
X136832828Y-93536000D01*
X134946662Y-93536000D01*
X134879623Y-93516315D01*
X134833868Y-93463511D01*
X134826773Y-93441542D01*
X134825494Y-93438455D01*
X134770239Y-93355760D01*
X134687544Y-93300505D01*
X134687540Y-93300503D01*
X134614627Y-93286000D01*
X134290000Y-93286000D01*
X134290000Y-95586000D01*
X134466000Y-95586000D01*
X134533039Y-95605685D01*
X134578794Y-95658489D01*
X134590000Y-95710000D01*
X134590000Y-96536000D01*
X137240500Y-96536000D01*
X137307539Y-96555685D01*
X137353294Y-96608489D01*
X137364500Y-96660000D01*
X137364500Y-98412000D01*
X137344815Y-98479039D01*
X137292011Y-98524794D01*
X137240500Y-98536000D01*
X134590000Y-98536000D01*
X134590000Y-99362000D01*
X134570315Y-99429039D01*
X134517511Y-99474794D01*
X134466000Y-99486000D01*
X134290000Y-99486000D01*
X134290000Y-101786000D01*
X134614626Y-101786000D01*
X134614628Y-101785999D01*
X134687540Y-101771496D01*
X134687544Y-101771494D01*
X134770239Y-101716239D01*
X134825494Y-101633544D01*
X134830170Y-101622259D01*
X134831784Y-101622927D01*
X134857426Y-101573902D01*
X134918140Y-101539325D01*
X134946662Y-101536000D01*
X136832828Y-101536000D01*
X136899867Y-101555685D01*
X136945622Y-101608489D01*
X136952867Y-101630924D01*
X136954033Y-101633739D01*
X136954034Y-101633740D01*
X137009399Y-101716601D01*
X137071192Y-101757889D01*
X137092260Y-101771966D01*
X137092264Y-101771967D01*
X137161635Y-101785765D01*
X137165326Y-101786500D01*
X137165336Y-101786500D01*
X137171254Y-101787083D01*
X137236044Y-101813237D01*
X137276408Y-101870268D01*
X137279532Y-101940068D01*
X137246793Y-101998168D01*
X136786781Y-102458181D01*
X136725458Y-102491666D01*
X136699100Y-102494500D01*
X133147803Y-102494500D01*
X133122358Y-102491861D01*
X133111732Y-102489633D01*
X133111729Y-102489633D01*
X133076507Y-102494023D01*
X133068831Y-102494500D01*
X133064886Y-102494500D01*
X133047615Y-102497381D01*
X133041858Y-102498342D01*
X132987370Y-102505134D01*
X132979857Y-102507371D01*
X132972387Y-102509936D01*
X132924122Y-102536055D01*
X132874792Y-102560171D01*
X132868375Y-102564753D01*
X132862175Y-102569579D01*
X132824992Y-102609970D01*
X130982781Y-104452181D01*
X130921458Y-104485666D01*
X130895100Y-104488500D01*
X128081991Y-104488500D01*
X128014952Y-104468815D01*
X127969197Y-104416011D01*
X127960374Y-104388691D01*
X127945967Y-104316264D01*
X127945966Y-104316261D01*
X127945966Y-104316260D01*
X127933691Y-104297889D01*
X127912814Y-104231214D01*
X127931298Y-104163834D01*
X127933692Y-104160109D01*
X127945966Y-104141740D01*
X127960500Y-104068674D01*
X127960500Y-103119326D01*
X127960500Y-103119323D01*
X127960499Y-103119321D01*
X127945967Y-103046264D01*
X127945966Y-103046261D01*
X127945966Y-103046260D01*
X127933691Y-103027889D01*
X127912814Y-102961214D01*
X127931298Y-102893834D01*
X127933692Y-102890109D01*
X127945966Y-102871740D01*
X127960374Y-102799309D01*
X127992759Y-102737398D01*
X128053474Y-102702824D01*
X128081991Y-102699500D01*
X128155462Y-102699500D01*
X128222501Y-102719185D01*
X128257511Y-102753059D01*
X128287517Y-102796530D01*
X128405760Y-102901283D01*
X128405762Y-102901284D01*
X128545634Y-102974696D01*
X128699014Y-103012500D01*
X128699015Y-103012500D01*
X128856985Y-103012500D01*
X129010365Y-102974696D01*
X129040271Y-102959000D01*
X129150240Y-102901283D01*
X129268483Y-102796530D01*
X129358220Y-102666523D01*
X129414237Y-102518818D01*
X129433278Y-102362000D01*
X129423262Y-102279506D01*
X129414237Y-102205181D01*
X129392992Y-102149164D01*
X129358220Y-102057477D01*
X129268483Y-101927470D01*
X129150240Y-101822717D01*
X129150238Y-101822716D01*
X129150237Y-101822715D01*
X129010365Y-101749303D01*
X128856986Y-101711500D01*
X128856985Y-101711500D01*
X128699015Y-101711500D01*
X128699014Y-101711500D01*
X128545634Y-101749303D01*
X128405762Y-101822715D01*
X128376441Y-101848691D01*
X128306673Y-101910500D01*
X128298979Y-101917316D01*
X128235745Y-101947037D01*
X128216752Y-101948500D01*
X128081991Y-101948500D01*
X128014952Y-101928815D01*
X127969197Y-101876011D01*
X127960374Y-101848691D01*
X127945967Y-101776264D01*
X127945966Y-101776261D01*
X127945966Y-101776260D01*
X127933691Y-101757889D01*
X127912814Y-101691214D01*
X127931298Y-101623834D01*
X127933692Y-101620109D01*
X127945966Y-101601740D01*
X127960500Y-101528674D01*
X127960500Y-100886000D01*
X133240000Y-100886000D01*
X133240000Y-101560628D01*
X133254503Y-101633540D01*
X133254505Y-101633544D01*
X133309760Y-101716239D01*
X133392455Y-101771494D01*
X133392459Y-101771496D01*
X133465371Y-101785999D01*
X133465374Y-101786000D01*
X133790000Y-101786000D01*
X133790000Y-100886000D01*
X133240000Y-100886000D01*
X127960500Y-100886000D01*
X127960500Y-100579326D01*
X127960500Y-100579323D01*
X127960499Y-100579321D01*
X127945967Y-100506264D01*
X127945966Y-100506261D01*
X127945966Y-100506260D01*
X127933691Y-100487889D01*
X127912814Y-100421214D01*
X127922474Y-100386000D01*
X133240000Y-100386000D01*
X133790000Y-100386000D01*
X133790000Y-99486000D01*
X133465373Y-99486000D01*
X133392459Y-99500503D01*
X133392455Y-99500505D01*
X133309760Y-99555760D01*
X133254505Y-99638455D01*
X133254503Y-99638459D01*
X133240000Y-99711371D01*
X133240000Y-100386000D01*
X127922474Y-100386000D01*
X127931298Y-100353834D01*
X127933692Y-100350109D01*
X127945966Y-100331740D01*
X127960500Y-100258674D01*
X127960500Y-99309326D01*
X127960500Y-99309323D01*
X127960499Y-99309321D01*
X127945967Y-99236264D01*
X127945966Y-99236261D01*
X127945966Y-99236260D01*
X127933691Y-99217889D01*
X127912814Y-99151214D01*
X127931298Y-99083834D01*
X127933692Y-99080109D01*
X127945966Y-99061740D01*
X127960500Y-98988674D01*
X127960500Y-98039326D01*
X127960500Y-98039323D01*
X127960499Y-98039321D01*
X127945967Y-97966264D01*
X127945966Y-97966261D01*
X127945966Y-97966260D01*
X127933691Y-97947889D01*
X127912814Y-97881214D01*
X127931298Y-97813834D01*
X127933692Y-97810109D01*
X127945966Y-97791740D01*
X127960500Y-97718674D01*
X127960500Y-97648628D01*
X129964000Y-97648628D01*
X129978503Y-97721540D01*
X129978505Y-97721544D01*
X130033760Y-97804239D01*
X130116455Y-97859494D01*
X130116459Y-97859496D01*
X130189371Y-97873999D01*
X130189374Y-97874000D01*
X130814000Y-97874000D01*
X130814000Y-97209501D01*
X130921685Y-97258680D01*
X131028237Y-97274000D01*
X131099763Y-97274000D01*
X131206315Y-97258680D01*
X131314000Y-97209501D01*
X131314000Y-97874000D01*
X131938626Y-97874000D01*
X131938628Y-97873999D01*
X132011540Y-97859496D01*
X132011544Y-97859494D01*
X132094239Y-97804239D01*
X132149494Y-97721544D01*
X132149496Y-97721540D01*
X132163999Y-97648628D01*
X132164000Y-97648626D01*
X132164000Y-97024000D01*
X131497686Y-97024000D01*
X131523493Y-96983844D01*
X131564000Y-96845889D01*
X131564000Y-96702111D01*
X131523493Y-96564156D01*
X131497686Y-96524000D01*
X132164000Y-96524000D01*
X132164000Y-95899373D01*
X132163999Y-95899371D01*
X132149496Y-95826459D01*
X132149494Y-95826455D01*
X132094239Y-95743760D01*
X132011544Y-95688505D01*
X132011540Y-95688503D01*
X131938627Y-95674000D01*
X131314000Y-95674000D01*
X131314000Y-96338498D01*
X131206315Y-96289320D01*
X131099763Y-96274000D01*
X131028237Y-96274000D01*
X130921685Y-96289320D01*
X130814000Y-96338498D01*
X130814000Y-95674000D01*
X130189373Y-95674000D01*
X130116459Y-95688503D01*
X130116455Y-95688505D01*
X130033760Y-95743760D01*
X129978505Y-95826455D01*
X129978503Y-95826459D01*
X129964000Y-95899371D01*
X129964000Y-96524000D01*
X130630314Y-96524000D01*
X130604507Y-96564156D01*
X130564000Y-96702111D01*
X130564000Y-96845889D01*
X130604507Y-96983844D01*
X130630314Y-97024000D01*
X129964000Y-97024000D01*
X129964000Y-97648628D01*
X127960500Y-97648628D01*
X127960500Y-96769326D01*
X127960500Y-96769323D01*
X127960499Y-96769321D01*
X127945967Y-96696264D01*
X127945966Y-96696261D01*
X127945966Y-96696260D01*
X127933691Y-96677889D01*
X127912814Y-96611214D01*
X127931298Y-96543834D01*
X127933692Y-96540109D01*
X127945966Y-96521740D01*
X127960500Y-96448674D01*
X127960500Y-95499326D01*
X127960500Y-95499323D01*
X127960499Y-95499321D01*
X127945967Y-95426264D01*
X127945966Y-95426261D01*
X127945966Y-95426260D01*
X127933691Y-95407889D01*
X127912814Y-95341214D01*
X127931298Y-95273834D01*
X127933692Y-95270109D01*
X127945966Y-95251740D01*
X127960500Y-95178674D01*
X127960500Y-94229326D01*
X127960500Y-94229323D01*
X127960499Y-94229321D01*
X127945967Y-94156264D01*
X127945966Y-94156261D01*
X127945966Y-94156260D01*
X127933691Y-94137889D01*
X127912814Y-94071214D01*
X127931298Y-94003834D01*
X127933692Y-94000109D01*
X127945966Y-93981740D01*
X127945967Y-93981735D01*
X127960374Y-93909309D01*
X127992759Y-93847398D01*
X128053474Y-93812824D01*
X128081991Y-93809500D01*
X129876400Y-93809500D01*
X129943439Y-93829185D01*
X129989194Y-93881989D01*
X129999138Y-93951147D01*
X129995667Y-93967426D01*
X129989884Y-93987755D01*
X129977602Y-94030918D01*
X129958785Y-94233999D01*
X129958785Y-94234000D01*
X129977602Y-94437082D01*
X130033417Y-94633247D01*
X130033422Y-94633260D01*
X130124327Y-94815821D01*
X130247237Y-94978581D01*
X130397958Y-95115980D01*
X130397960Y-95115982D01*
X130485046Y-95169903D01*
X130571363Y-95223348D01*
X130761544Y-95297024D01*
X130962024Y-95334500D01*
X130962026Y-95334500D01*
X131165974Y-95334500D01*
X131165976Y-95334500D01*
X131366456Y-95297024D01*
X131556637Y-95223348D01*
X131730041Y-95115981D01*
X131880764Y-94978579D01*
X132003673Y-94815821D01*
X132068316Y-94686000D01*
X133240000Y-94686000D01*
X133240000Y-95360628D01*
X133254503Y-95433540D01*
X133254505Y-95433544D01*
X133309760Y-95516239D01*
X133392455Y-95571494D01*
X133392459Y-95571496D01*
X133465371Y-95585999D01*
X133465374Y-95586000D01*
X133790000Y-95586000D01*
X133790000Y-94686000D01*
X133240000Y-94686000D01*
X132068316Y-94686000D01*
X132094582Y-94633250D01*
X132150397Y-94437083D01*
X132169215Y-94234000D01*
X132168781Y-94229321D01*
X132164767Y-94186000D01*
X133240000Y-94186000D01*
X133790000Y-94186000D01*
X133790000Y-93286000D01*
X133465373Y-93286000D01*
X133392459Y-93300503D01*
X133392455Y-93300505D01*
X133309760Y-93355760D01*
X133254505Y-93438455D01*
X133254503Y-93438459D01*
X133240000Y-93511371D01*
X133240000Y-94186000D01*
X132164767Y-94186000D01*
X132150397Y-94030917D01*
X132136403Y-93981735D01*
X132094582Y-93834750D01*
X132083664Y-93812824D01*
X132027443Y-93699916D01*
X132003673Y-93652179D01*
X131913429Y-93532676D01*
X131880762Y-93489418D01*
X131730041Y-93352019D01*
X131730039Y-93352017D01*
X131556642Y-93244655D01*
X131556635Y-93244651D01*
X131411701Y-93188504D01*
X131366456Y-93170976D01*
X131165976Y-93133500D01*
X130962024Y-93133500D01*
X130812236Y-93161500D01*
X130761538Y-93170977D01*
X130676521Y-93203913D01*
X130606898Y-93209775D01*
X130553120Y-93181282D01*
X130552192Y-93182475D01*
X130545414Y-93177200D01*
X130545158Y-93177064D01*
X130544903Y-93176801D01*
X130516074Y-93154363D01*
X130510310Y-93149272D01*
X130507515Y-93146477D01*
X130488505Y-93132906D01*
X130486309Y-93131197D01*
X130480645Y-93126788D01*
X130445189Y-93099190D01*
X130438274Y-93095448D01*
X130431200Y-93091990D01*
X130378596Y-93076329D01*
X130326658Y-93058499D01*
X130318923Y-93057208D01*
X130311085Y-93056231D01*
X130256244Y-93058500D01*
X128081991Y-93058500D01*
X128014952Y-93038815D01*
X127969197Y-92986011D01*
X127960374Y-92958691D01*
X127945967Y-92886264D01*
X127945966Y-92886261D01*
X127945966Y-92886260D01*
X127933691Y-92867889D01*
X127912814Y-92801214D01*
X127931298Y-92733834D01*
X127933692Y-92730109D01*
X127945966Y-92711740D01*
X127951614Y-92683348D01*
X127960374Y-92639309D01*
X127992759Y-92577398D01*
X128053474Y-92542824D01*
X128081991Y-92539500D01*
X130309903Y-92539500D01*
X130376942Y-92559185D01*
X130393440Y-92571862D01*
X130397956Y-92575979D01*
X130397958Y-92575980D01*
X130397959Y-92575981D01*
X130571363Y-92683348D01*
X130761544Y-92757024D01*
X130962024Y-92794500D01*
X130962026Y-92794500D01*
X131165974Y-92794500D01*
X131165976Y-92794500D01*
X131366456Y-92757024D01*
X131556637Y-92683348D01*
X131730041Y-92575981D01*
X131880764Y-92438579D01*
X132003673Y-92275821D01*
X132094582Y-92093250D01*
X132150397Y-91897083D01*
X132169215Y-91694000D01*
X132168781Y-91689321D01*
X132150397Y-91490917D01*
X132125660Y-91403977D01*
X132094582Y-91294750D01*
X132094159Y-91293901D01*
X132027481Y-91159993D01*
X132003673Y-91112179D01*
X131944704Y-91034091D01*
X131880762Y-90949418D01*
X131730041Y-90812019D01*
X131730039Y-90812017D01*
X131556642Y-90704655D01*
X131556635Y-90704651D01*
X131461546Y-90667814D01*
X131366456Y-90630976D01*
X131165976Y-90593500D01*
X130962024Y-90593500D01*
X130761544Y-90630976D01*
X130761541Y-90630976D01*
X130761541Y-90630977D01*
X130571364Y-90704651D01*
X130571357Y-90704655D01*
X130397960Y-90812017D01*
X130397958Y-90812019D01*
X130247237Y-90949418D01*
X130124327Y-91112178D01*
X130033422Y-91294739D01*
X130033417Y-91294752D01*
X129977602Y-91490918D01*
X129960458Y-91675941D01*
X129934672Y-91740878D01*
X129877871Y-91781566D01*
X129836987Y-91788500D01*
X128081991Y-91788500D01*
X128014952Y-91768815D01*
X127969197Y-91716011D01*
X127960374Y-91688691D01*
X127945967Y-91616264D01*
X127945966Y-91616261D01*
X127945966Y-91616260D01*
X127933691Y-91597889D01*
X127912814Y-91531214D01*
X127931298Y-91463834D01*
X127933692Y-91460109D01*
X127945966Y-91441740D01*
X127960500Y-91368674D01*
X127960500Y-90419326D01*
X127960500Y-90419323D01*
X127960499Y-90419321D01*
X127945967Y-90346264D01*
X127945966Y-90346261D01*
X127945966Y-90346260D01*
X127933691Y-90327889D01*
X127912814Y-90261214D01*
X127931298Y-90193834D01*
X127933692Y-90190109D01*
X127945966Y-90171740D01*
X127960500Y-90098674D01*
X127960500Y-89154000D01*
X129958785Y-89154000D01*
X129977602Y-89357082D01*
X130033417Y-89553247D01*
X130033422Y-89553260D01*
X130124327Y-89735821D01*
X130247237Y-89898581D01*
X130397958Y-90035980D01*
X130397960Y-90035982D01*
X130452635Y-90069835D01*
X130571363Y-90143348D01*
X130761544Y-90217024D01*
X130962024Y-90254500D01*
X130962026Y-90254500D01*
X131165974Y-90254500D01*
X131165976Y-90254500D01*
X131366456Y-90217024D01*
X131556637Y-90143348D01*
X131730041Y-90035981D01*
X131880764Y-89898579D01*
X132003673Y-89735821D01*
X132094582Y-89553250D01*
X132150397Y-89357083D01*
X132169215Y-89154000D01*
X132168890Y-89150498D01*
X132150397Y-88950917D01*
X132142596Y-88923500D01*
X132094582Y-88754750D01*
X132094489Y-88754564D01*
X132044702Y-88654577D01*
X132003673Y-88572179D01*
X131880764Y-88409421D01*
X131880762Y-88409418D01*
X131730041Y-88272019D01*
X131730039Y-88272017D01*
X131556642Y-88164655D01*
X131556635Y-88164651D01*
X131400075Y-88104000D01*
X131366456Y-88090976D01*
X131165976Y-88053500D01*
X130962024Y-88053500D01*
X130761544Y-88090976D01*
X130761541Y-88090976D01*
X130761541Y-88090977D01*
X130571364Y-88164651D01*
X130571357Y-88164655D01*
X130397960Y-88272017D01*
X130397958Y-88272019D01*
X130247237Y-88409418D01*
X130124327Y-88572178D01*
X130033422Y-88754739D01*
X130033417Y-88754752D01*
X129977602Y-88950917D01*
X129958785Y-89153999D01*
X129958785Y-89154000D01*
X127960500Y-89154000D01*
X127960500Y-89149326D01*
X127960500Y-89149323D01*
X127960499Y-89149321D01*
X127945967Y-89076264D01*
X127945966Y-89076262D01*
X127945966Y-89076260D01*
X127945964Y-89076258D01*
X127945964Y-89076256D01*
X127933391Y-89057439D01*
X127912513Y-88990762D01*
X127930998Y-88923382D01*
X127933392Y-88919656D01*
X127945496Y-88901541D01*
X127945496Y-88901540D01*
X127959999Y-88828628D01*
X127960000Y-88828626D01*
X127960000Y-88604000D01*
X125960000Y-88604000D01*
X125960000Y-88828628D01*
X125974503Y-88901540D01*
X125974505Y-88901544D01*
X125986608Y-88919658D01*
X126007486Y-88986336D01*
X125989001Y-89053716D01*
X125986610Y-89057437D01*
X125974034Y-89076258D01*
X125974032Y-89076264D01*
X125959500Y-89149321D01*
X125959500Y-90098678D01*
X125974032Y-90171735D01*
X125974033Y-90171738D01*
X125974033Y-90171739D01*
X125974034Y-90171740D01*
X125976547Y-90175501D01*
X125986309Y-90190111D01*
X126007185Y-90256789D01*
X125988699Y-90324169D01*
X125986309Y-90327889D01*
X125974033Y-90346261D01*
X125974032Y-90346264D01*
X125959500Y-90419321D01*
X125959500Y-91368678D01*
X125974032Y-91441735D01*
X125974033Y-91441738D01*
X125986309Y-91460111D01*
X126007185Y-91526789D01*
X125988699Y-91594169D01*
X125986309Y-91597889D01*
X125974033Y-91616261D01*
X125974032Y-91616264D01*
X125959500Y-91689321D01*
X125959500Y-92638678D01*
X125974032Y-92711735D01*
X125974033Y-92711738D01*
X125986309Y-92730111D01*
X126007185Y-92796789D01*
X125988699Y-92864169D01*
X125986309Y-92867889D01*
X125974033Y-92886261D01*
X125974032Y-92886264D01*
X125959500Y-92959321D01*
X125959500Y-93908678D01*
X125974032Y-93981735D01*
X125974033Y-93981738D01*
X125986309Y-94000111D01*
X126007185Y-94066789D01*
X125988699Y-94134169D01*
X125986309Y-94137889D01*
X125974033Y-94156261D01*
X125974032Y-94156264D01*
X125959500Y-94229321D01*
X125959500Y-95178678D01*
X125974032Y-95251735D01*
X125974033Y-95251738D01*
X125986309Y-95270111D01*
X126007185Y-95336789D01*
X125988699Y-95404169D01*
X125986309Y-95407889D01*
X125974033Y-95426261D01*
X125974032Y-95426264D01*
X125959500Y-95499321D01*
X125959500Y-96448678D01*
X125974032Y-96521735D01*
X125974033Y-96521738D01*
X125986309Y-96540111D01*
X126007185Y-96606789D01*
X125988699Y-96674169D01*
X125986309Y-96677889D01*
X125974033Y-96696261D01*
X125974032Y-96696264D01*
X125959500Y-96769321D01*
X125959500Y-97718678D01*
X125974032Y-97791735D01*
X125974033Y-97791738D01*
X125974033Y-97791739D01*
X125974034Y-97791740D01*
X125986308Y-97810109D01*
X125986309Y-97810111D01*
X126007185Y-97876789D01*
X125988699Y-97944169D01*
X125986309Y-97947889D01*
X125974033Y-97966261D01*
X125974032Y-97966264D01*
X125959500Y-98039321D01*
X125959500Y-98988678D01*
X125974032Y-99061735D01*
X125974033Y-99061738D01*
X125986309Y-99080111D01*
X126007185Y-99146789D01*
X125988699Y-99214169D01*
X125986309Y-99217889D01*
X125974033Y-99236261D01*
X125974032Y-99236264D01*
X125959500Y-99309321D01*
X125959500Y-100258678D01*
X125974032Y-100331735D01*
X125974033Y-100331738D01*
X125986309Y-100350111D01*
X126007185Y-100416789D01*
X125988699Y-100484169D01*
X125986309Y-100487889D01*
X125974033Y-100506261D01*
X125974032Y-100506264D01*
X125959500Y-100579321D01*
X125959500Y-101528678D01*
X125974032Y-101601735D01*
X125974033Y-101601738D01*
X125974033Y-101601739D01*
X125974034Y-101601740D01*
X125986308Y-101620109D01*
X125986309Y-101620111D01*
X126007185Y-101686789D01*
X125988699Y-101754169D01*
X125986309Y-101757889D01*
X125974033Y-101776261D01*
X125974032Y-101776264D01*
X125959500Y-101849321D01*
X125959500Y-102798678D01*
X125974032Y-102871735D01*
X125974033Y-102871738D01*
X125986309Y-102890111D01*
X126007185Y-102956789D01*
X125988699Y-103024169D01*
X125986309Y-103027889D01*
X125974033Y-103046261D01*
X125974032Y-103046264D01*
X125959500Y-103119321D01*
X125959500Y-104068678D01*
X125974032Y-104141735D01*
X125974033Y-104141738D01*
X125986309Y-104160111D01*
X126007185Y-104226789D01*
X125988699Y-104294169D01*
X125986309Y-104297889D01*
X125974033Y-104316261D01*
X125974032Y-104316264D01*
X125959500Y-104389321D01*
X125959500Y-105040880D01*
X125939815Y-105107919D01*
X125887011Y-105153674D01*
X125817853Y-105163618D01*
X125766611Y-105143983D01*
X125742742Y-105128035D01*
X125742735Y-105128032D01*
X125669677Y-105113500D01*
X125669674Y-105113500D01*
X124720326Y-105113500D01*
X124720323Y-105113500D01*
X124647264Y-105128032D01*
X124647261Y-105128033D01*
X124628889Y-105140309D01*
X124562211Y-105161185D01*
X124494831Y-105142699D01*
X124491111Y-105140309D01*
X124472741Y-105128035D01*
X124472740Y-105128034D01*
X124472739Y-105128033D01*
X124472738Y-105128033D01*
X124472735Y-105128032D01*
X124399677Y-105113500D01*
X124399674Y-105113500D01*
X123450326Y-105113500D01*
X123450323Y-105113500D01*
X123377264Y-105128032D01*
X123377261Y-105128033D01*
X123358889Y-105140309D01*
X123292211Y-105161185D01*
X123224831Y-105142699D01*
X123221111Y-105140309D01*
X123202741Y-105128035D01*
X123202740Y-105128034D01*
X123202739Y-105128033D01*
X123202738Y-105128033D01*
X123202735Y-105128032D01*
X123129677Y-105113500D01*
X123129674Y-105113500D01*
X122180326Y-105113500D01*
X122180323Y-105113500D01*
X122107264Y-105128032D01*
X122107261Y-105128033D01*
X122088889Y-105140309D01*
X122022211Y-105161185D01*
X121954831Y-105142699D01*
X121951111Y-105140309D01*
X121932741Y-105128035D01*
X121932740Y-105128034D01*
X121932739Y-105128033D01*
X121932738Y-105128033D01*
X121932735Y-105128032D01*
X121859677Y-105113500D01*
X121859674Y-105113500D01*
X120910326Y-105113500D01*
X120910323Y-105113500D01*
X120837264Y-105128032D01*
X120837261Y-105128033D01*
X120818889Y-105140309D01*
X120752211Y-105161185D01*
X120684831Y-105142699D01*
X120681111Y-105140309D01*
X120662741Y-105128035D01*
X120662740Y-105128034D01*
X120662739Y-105128033D01*
X120662738Y-105128033D01*
X120662735Y-105128032D01*
X120589677Y-105113500D01*
X120589674Y-105113500D01*
X119640326Y-105113500D01*
X119640323Y-105113500D01*
X119567264Y-105128032D01*
X119567261Y-105128033D01*
X119548889Y-105140309D01*
X119482211Y-105161185D01*
X119414831Y-105142699D01*
X119411111Y-105140309D01*
X119392741Y-105128035D01*
X119392740Y-105128034D01*
X119392739Y-105128033D01*
X119392738Y-105128033D01*
X119392735Y-105128032D01*
X119319677Y-105113500D01*
X119319674Y-105113500D01*
X118370326Y-105113500D01*
X118370323Y-105113500D01*
X118297264Y-105128032D01*
X118297261Y-105128033D01*
X118278889Y-105140309D01*
X118212211Y-105161185D01*
X118144831Y-105142699D01*
X118141111Y-105140309D01*
X118122741Y-105128035D01*
X118122740Y-105128034D01*
X118122739Y-105128033D01*
X118122738Y-105128033D01*
X118122735Y-105128032D01*
X118049677Y-105113500D01*
X118049674Y-105113500D01*
X117100326Y-105113500D01*
X117100323Y-105113500D01*
X117027264Y-105128032D01*
X117027261Y-105128033D01*
X117008889Y-105140309D01*
X116942211Y-105161185D01*
X116874831Y-105142699D01*
X116871111Y-105140309D01*
X116852741Y-105128035D01*
X116852740Y-105128034D01*
X116852739Y-105128033D01*
X116852738Y-105128033D01*
X116852735Y-105128032D01*
X116779677Y-105113500D01*
X116779674Y-105113500D01*
X115830326Y-105113500D01*
X115830321Y-105113500D01*
X115829070Y-105113749D01*
X115828402Y-105113689D01*
X115824261Y-105114097D01*
X115824183Y-105113311D01*
X115759479Y-105107514D01*
X115704306Y-105064646D01*
X115681068Y-104998754D01*
X115697143Y-104930758D01*
X115702834Y-104921699D01*
X115769220Y-104825523D01*
X115825237Y-104677818D01*
X115844278Y-104521000D01*
X115828290Y-104389321D01*
X115825237Y-104364181D01*
X115798685Y-104294169D01*
X115769220Y-104216477D01*
X115679483Y-104086470D01*
X115561240Y-103981717D01*
X115561238Y-103981716D01*
X115561237Y-103981715D01*
X115421365Y-103908303D01*
X115267986Y-103870500D01*
X115267985Y-103870500D01*
X115110015Y-103870500D01*
X115110014Y-103870500D01*
X114956634Y-103908303D01*
X114816762Y-103981715D01*
X114816760Y-103981717D01*
X114718603Y-104068676D01*
X114698516Y-104086471D01*
X114608781Y-104216475D01*
X114608780Y-104216476D01*
X114552762Y-104364181D01*
X114533722Y-104520999D01*
X114533722Y-104521000D01*
X114552762Y-104677818D01*
X114593563Y-104785399D01*
X114608780Y-104825523D01*
X114637550Y-104867204D01*
X114659433Y-104933557D01*
X114659500Y-104937643D01*
X114659500Y-104992008D01*
X114639815Y-105059047D01*
X114587011Y-105104802D01*
X114559692Y-105113625D01*
X114487263Y-105128032D01*
X114487261Y-105128033D01*
X114468889Y-105140309D01*
X114402211Y-105161185D01*
X114334831Y-105142699D01*
X114331111Y-105140309D01*
X114312741Y-105128035D01*
X114312740Y-105128034D01*
X114312739Y-105128033D01*
X114312738Y-105128033D01*
X114312735Y-105128032D01*
X114239677Y-105113500D01*
X114239674Y-105113500D01*
X113290326Y-105113500D01*
X113290323Y-105113500D01*
X113217264Y-105128032D01*
X113217261Y-105128033D01*
X113198889Y-105140309D01*
X113132211Y-105161185D01*
X113064831Y-105142699D01*
X113061111Y-105140309D01*
X113042741Y-105128035D01*
X113042740Y-105128034D01*
X113042739Y-105128033D01*
X113042738Y-105128033D01*
X113042735Y-105128032D01*
X112969677Y-105113500D01*
X112969674Y-105113500D01*
X112020326Y-105113500D01*
X112020323Y-105113500D01*
X111947264Y-105128032D01*
X111947261Y-105128033D01*
X111928889Y-105140309D01*
X111862211Y-105161185D01*
X111794831Y-105142699D01*
X111791111Y-105140309D01*
X111772741Y-105128035D01*
X111772740Y-105128034D01*
X111772739Y-105128033D01*
X111772738Y-105128033D01*
X111772735Y-105128032D01*
X111699677Y-105113500D01*
X111699674Y-105113500D01*
X110750326Y-105113500D01*
X110750323Y-105113500D01*
X110677264Y-105128032D01*
X110677257Y-105128035D01*
X110653389Y-105143983D01*
X110586711Y-105164860D01*
X110519331Y-105146374D01*
X110472642Y-105094395D01*
X110460500Y-105040880D01*
X110460500Y-104389323D01*
X110460499Y-104389321D01*
X110445967Y-104316264D01*
X110445966Y-104316261D01*
X110445966Y-104316260D01*
X110433691Y-104297889D01*
X110412814Y-104231214D01*
X110431298Y-104163834D01*
X110433692Y-104160109D01*
X110445966Y-104141740D01*
X110460500Y-104068674D01*
X110460500Y-103119326D01*
X110460500Y-103119323D01*
X110460499Y-103119321D01*
X110445967Y-103046264D01*
X110445966Y-103046261D01*
X110445966Y-103046260D01*
X110433691Y-103027889D01*
X110412814Y-102961214D01*
X110431298Y-102893834D01*
X110433692Y-102890109D01*
X110445966Y-102871740D01*
X110460500Y-102798674D01*
X110460500Y-101849326D01*
X110460500Y-101849323D01*
X110460499Y-101849321D01*
X110445967Y-101776264D01*
X110445966Y-101776261D01*
X110445966Y-101776260D01*
X110433691Y-101757889D01*
X110412814Y-101691214D01*
X110431298Y-101623834D01*
X110433692Y-101620109D01*
X110445966Y-101601740D01*
X110460500Y-101528674D01*
X110460500Y-100579326D01*
X110460500Y-100579323D01*
X110460499Y-100579321D01*
X110445967Y-100506264D01*
X110445966Y-100506261D01*
X110445966Y-100506260D01*
X110433691Y-100487889D01*
X110412814Y-100421214D01*
X110431298Y-100353834D01*
X110433692Y-100350109D01*
X110445966Y-100331740D01*
X110460500Y-100258674D01*
X110460500Y-99309326D01*
X110460500Y-99309323D01*
X110460499Y-99309321D01*
X110445967Y-99236264D01*
X110445966Y-99236261D01*
X110445966Y-99236260D01*
X110433691Y-99217889D01*
X110412814Y-99151214D01*
X110431298Y-99083834D01*
X110433692Y-99080109D01*
X110445966Y-99061740D01*
X110460500Y-98988674D01*
X110460500Y-98039326D01*
X110460500Y-98039323D01*
X110460499Y-98039321D01*
X110445967Y-97966264D01*
X110445966Y-97966261D01*
X110445966Y-97966260D01*
X110433691Y-97947889D01*
X110412814Y-97881214D01*
X110431298Y-97813834D01*
X110433692Y-97810109D01*
X110445966Y-97791740D01*
X110460500Y-97718674D01*
X110460500Y-96769326D01*
X110460500Y-96769323D01*
X110460499Y-96769321D01*
X110445967Y-96696264D01*
X110445966Y-96696261D01*
X110445966Y-96696260D01*
X110433691Y-96677889D01*
X110412814Y-96611214D01*
X110431298Y-96543834D01*
X110433692Y-96540109D01*
X110445966Y-96521740D01*
X110460500Y-96448674D01*
X110460500Y-96324000D01*
X114510000Y-96324000D01*
X114510000Y-98048628D01*
X114524503Y-98121540D01*
X114524505Y-98121544D01*
X114579760Y-98204239D01*
X114662455Y-98259494D01*
X114662459Y-98259496D01*
X114735371Y-98273999D01*
X114735374Y-98274000D01*
X116460000Y-98274000D01*
X116960000Y-98274000D01*
X118684626Y-98274000D01*
X118684628Y-98273999D01*
X118757540Y-98259496D01*
X118757544Y-98259494D01*
X118840239Y-98204239D01*
X118895494Y-98121544D01*
X118895496Y-98121540D01*
X118909999Y-98048628D01*
X118910000Y-98048626D01*
X118910000Y-96324000D01*
X118013554Y-96324000D01*
X118180746Y-96491193D01*
X118375871Y-96686318D01*
X118409356Y-96747641D01*
X118404372Y-96817333D01*
X118375871Y-96861680D01*
X117967658Y-97269892D01*
X117967650Y-97269903D01*
X117497681Y-97739871D01*
X117436358Y-97773356D01*
X117366666Y-97768372D01*
X117322319Y-97739871D01*
X117088940Y-97506492D01*
X117310000Y-97506492D01*
X117348197Y-97559065D01*
X117394162Y-97574000D01*
X117425838Y-97574000D01*
X117471803Y-97559065D01*
X117510000Y-97506492D01*
X117510000Y-97441508D01*
X117471803Y-97388935D01*
X117425838Y-97374000D01*
X117394162Y-97374000D01*
X117348197Y-97388935D01*
X117310000Y-97441508D01*
X117310000Y-97506492D01*
X117088940Y-97506492D01*
X116960000Y-97377552D01*
X116960000Y-98274000D01*
X116460000Y-98274000D01*
X116460000Y-97377553D01*
X116459999Y-97377552D01*
X116097680Y-97739871D01*
X116036357Y-97773356D01*
X115966665Y-97768372D01*
X115922318Y-97739871D01*
X115688939Y-97506492D01*
X115910000Y-97506492D01*
X115948197Y-97559065D01*
X115994162Y-97574000D01*
X116025838Y-97574000D01*
X116071803Y-97559065D01*
X116110000Y-97506492D01*
X116110000Y-97441508D01*
X116071803Y-97388935D01*
X116025838Y-97374000D01*
X115994162Y-97374000D01*
X115948197Y-97388935D01*
X115910000Y-97441508D01*
X115910000Y-97506492D01*
X115688939Y-97506492D01*
X115433471Y-97251025D01*
X115433469Y-97251022D01*
X115044128Y-96861681D01*
X115013992Y-96806492D01*
X115210000Y-96806492D01*
X115248197Y-96859065D01*
X115294162Y-96874000D01*
X115325838Y-96874000D01*
X115371803Y-96859065D01*
X115410000Y-96806492D01*
X115410000Y-96773999D01*
X115663553Y-96773999D01*
X115769584Y-96880029D01*
X116010000Y-97120445D01*
X116323954Y-96806492D01*
X116610000Y-96806492D01*
X116648197Y-96859065D01*
X116694162Y-96874000D01*
X116725838Y-96874000D01*
X116771803Y-96859065D01*
X116810000Y-96806492D01*
X116810000Y-96773999D01*
X117063552Y-96773999D01*
X117169584Y-96880029D01*
X117410000Y-97120445D01*
X117723954Y-96806492D01*
X118010000Y-96806492D01*
X118048197Y-96859065D01*
X118094162Y-96874000D01*
X118125838Y-96874000D01*
X118171803Y-96859065D01*
X118210000Y-96806492D01*
X118210000Y-96741508D01*
X118171803Y-96688935D01*
X118125838Y-96674000D01*
X118094162Y-96674000D01*
X118048197Y-96688935D01*
X118010000Y-96741508D01*
X118010000Y-96806492D01*
X117723954Y-96806492D01*
X117756446Y-96774000D01*
X117533470Y-96551024D01*
X117410000Y-96427553D01*
X117267654Y-96569897D01*
X117267650Y-96569903D01*
X117063552Y-96773999D01*
X116810000Y-96773999D01*
X116810000Y-96741508D01*
X116771803Y-96688935D01*
X116725838Y-96674000D01*
X116694162Y-96674000D01*
X116648197Y-96688935D01*
X116610000Y-96741508D01*
X116610000Y-96806492D01*
X116323954Y-96806492D01*
X116356446Y-96774000D01*
X116133470Y-96551024D01*
X116010000Y-96427553D01*
X115867654Y-96569897D01*
X115867650Y-96569903D01*
X115663553Y-96773999D01*
X115410000Y-96773999D01*
X115410000Y-96741508D01*
X115371803Y-96688935D01*
X115325838Y-96674000D01*
X115294162Y-96674000D01*
X115248197Y-96688935D01*
X115210000Y-96741508D01*
X115210000Y-96806492D01*
X115013992Y-96806492D01*
X115010643Y-96800358D01*
X115015627Y-96730666D01*
X115044128Y-96686319D01*
X115239254Y-96491193D01*
X115406446Y-96324000D01*
X114510000Y-96324000D01*
X110460500Y-96324000D01*
X110460500Y-96106492D01*
X115910000Y-96106492D01*
X115948197Y-96159065D01*
X115994162Y-96174000D01*
X116025838Y-96174000D01*
X116071803Y-96159065D01*
X116110000Y-96106492D01*
X117310000Y-96106492D01*
X117348197Y-96159065D01*
X117394162Y-96174000D01*
X117425838Y-96174000D01*
X117471803Y-96159065D01*
X117510000Y-96106492D01*
X117510000Y-96041508D01*
X117471803Y-95988935D01*
X117425838Y-95974000D01*
X117394162Y-95974000D01*
X117348197Y-95988935D01*
X117310000Y-96041508D01*
X117310000Y-96106492D01*
X116110000Y-96106492D01*
X116110000Y-96041508D01*
X116071803Y-95988935D01*
X116025838Y-95974000D01*
X115994162Y-95974000D01*
X115948197Y-95988935D01*
X115910000Y-96041508D01*
X115910000Y-96106492D01*
X110460500Y-96106492D01*
X110460500Y-95824000D01*
X114510000Y-95824000D01*
X115406446Y-95824000D01*
X115044127Y-95461681D01*
X115013991Y-95406492D01*
X115210000Y-95406492D01*
X115248197Y-95459065D01*
X115294162Y-95474000D01*
X115325838Y-95474000D01*
X115371803Y-95459065D01*
X115410000Y-95406492D01*
X115410000Y-95373999D01*
X115663553Y-95373999D01*
X115769584Y-95480029D01*
X116010000Y-95720445D01*
X116323954Y-95406492D01*
X116610000Y-95406492D01*
X116648197Y-95459065D01*
X116694162Y-95474000D01*
X116725838Y-95474000D01*
X116771803Y-95459065D01*
X116810000Y-95406492D01*
X116810000Y-95373999D01*
X117063553Y-95373999D01*
X117169584Y-95480029D01*
X117410000Y-95720445D01*
X117723954Y-95406492D01*
X118010000Y-95406492D01*
X118048197Y-95459065D01*
X118094162Y-95474000D01*
X118125838Y-95474000D01*
X118171803Y-95459065D01*
X118210000Y-95406492D01*
X118210000Y-95341508D01*
X118171803Y-95288935D01*
X118125838Y-95274000D01*
X118094162Y-95274000D01*
X118048197Y-95288935D01*
X118010000Y-95341508D01*
X118010000Y-95406492D01*
X117723954Y-95406492D01*
X117756446Y-95374000D01*
X117533470Y-95151024D01*
X117410000Y-95027553D01*
X117267654Y-95169897D01*
X117267650Y-95169903D01*
X117063553Y-95373999D01*
X116810000Y-95373999D01*
X116810000Y-95341508D01*
X116771803Y-95288935D01*
X116725838Y-95274000D01*
X116694162Y-95274000D01*
X116648197Y-95288935D01*
X116610000Y-95341508D01*
X116610000Y-95406492D01*
X116323954Y-95406492D01*
X116356446Y-95374000D01*
X116133470Y-95151024D01*
X116010000Y-95027553D01*
X115867654Y-95169897D01*
X115867650Y-95169903D01*
X115663553Y-95373999D01*
X115410000Y-95373999D01*
X115410000Y-95341508D01*
X115371803Y-95288935D01*
X115325838Y-95274000D01*
X115294162Y-95274000D01*
X115248197Y-95288935D01*
X115210000Y-95341508D01*
X115210000Y-95406492D01*
X115013991Y-95406492D01*
X115010642Y-95400358D01*
X115015626Y-95330666D01*
X115044127Y-95286319D01*
X115239254Y-95091193D01*
X115550416Y-94780030D01*
X115623954Y-94706492D01*
X115910000Y-94706492D01*
X115948197Y-94759065D01*
X115994162Y-94774000D01*
X116025838Y-94774000D01*
X116071803Y-94759065D01*
X116110000Y-94706492D01*
X116110000Y-94641508D01*
X116071803Y-94588935D01*
X116025838Y-94574000D01*
X115994162Y-94574000D01*
X115948197Y-94588935D01*
X115910000Y-94641508D01*
X115910000Y-94706492D01*
X115623954Y-94706492D01*
X115922318Y-94408127D01*
X115983641Y-94374642D01*
X116053332Y-94379626D01*
X116097680Y-94408127D01*
X116459999Y-94770446D01*
X116460000Y-94770446D01*
X116460000Y-93874000D01*
X116960000Y-93874000D01*
X116960000Y-94770446D01*
X117023954Y-94706492D01*
X117310000Y-94706492D01*
X117348197Y-94759065D01*
X117394162Y-94774000D01*
X117425838Y-94774000D01*
X117471803Y-94759065D01*
X117510000Y-94706492D01*
X117510000Y-94641508D01*
X117471803Y-94588935D01*
X117425838Y-94574000D01*
X117394162Y-94574000D01*
X117348197Y-94588935D01*
X117310000Y-94641508D01*
X117310000Y-94706492D01*
X117023954Y-94706492D01*
X117322319Y-94408127D01*
X117383642Y-94374642D01*
X117453334Y-94379626D01*
X117497681Y-94408127D01*
X117869584Y-94780030D01*
X118180746Y-95091193D01*
X118375872Y-95286319D01*
X118409357Y-95347642D01*
X118404373Y-95417334D01*
X118375872Y-95461681D01*
X118013553Y-95823999D01*
X118013554Y-95824000D01*
X118910000Y-95824000D01*
X118910000Y-94099373D01*
X118909999Y-94099371D01*
X118895496Y-94026459D01*
X118895494Y-94026455D01*
X118840239Y-93943760D01*
X118757544Y-93888505D01*
X118757540Y-93888503D01*
X118684627Y-93874000D01*
X116960000Y-93874000D01*
X116460000Y-93874000D01*
X114735373Y-93874000D01*
X114662459Y-93888503D01*
X114662455Y-93888505D01*
X114579760Y-93943760D01*
X114524505Y-94026455D01*
X114524503Y-94026459D01*
X114510000Y-94099371D01*
X114510000Y-95824000D01*
X110460500Y-95824000D01*
X110460500Y-95499326D01*
X110460500Y-95499323D01*
X110460499Y-95499321D01*
X110445967Y-95426264D01*
X110445966Y-95426261D01*
X110445966Y-95426260D01*
X110433691Y-95407889D01*
X110412814Y-95341214D01*
X110431298Y-95273834D01*
X110433692Y-95270109D01*
X110445966Y-95251740D01*
X110460500Y-95178674D01*
X110460500Y-94229326D01*
X110460500Y-94229323D01*
X110460499Y-94229321D01*
X110445967Y-94156264D01*
X110445966Y-94156261D01*
X110445966Y-94156260D01*
X110433691Y-94137889D01*
X110412814Y-94071214D01*
X110431298Y-94003834D01*
X110433692Y-94000109D01*
X110445966Y-93981740D01*
X110460500Y-93908674D01*
X110460500Y-92959326D01*
X110460500Y-92959323D01*
X110460499Y-92959321D01*
X110445967Y-92886264D01*
X110445966Y-92886261D01*
X110445966Y-92886260D01*
X110433691Y-92867889D01*
X110412814Y-92801214D01*
X110431298Y-92733834D01*
X110433692Y-92730109D01*
X110445966Y-92711740D01*
X110460500Y-92638674D01*
X110460500Y-91689326D01*
X110460500Y-91689323D01*
X110460499Y-91689321D01*
X110445967Y-91616264D01*
X110445966Y-91616261D01*
X110445966Y-91616260D01*
X110433691Y-91597889D01*
X110412814Y-91531214D01*
X110431298Y-91463834D01*
X110433692Y-91460109D01*
X110445966Y-91441740D01*
X110460500Y-91368674D01*
X110460500Y-90419326D01*
X110460500Y-90419323D01*
X110460499Y-90419321D01*
X110445967Y-90346264D01*
X110445966Y-90346261D01*
X110445966Y-90346260D01*
X110433691Y-90327889D01*
X110412814Y-90261214D01*
X110431298Y-90193834D01*
X110433692Y-90190109D01*
X110445966Y-90171740D01*
X110446312Y-90170000D01*
X110452816Y-90137308D01*
X110485202Y-90075397D01*
X110545918Y-90040823D01*
X110574433Y-90037500D01*
X110655692Y-90037500D01*
X110722731Y-90057185D01*
X110757742Y-90091061D01*
X110760163Y-90094569D01*
X110761515Y-90096528D01*
X110761517Y-90096530D01*
X110879760Y-90201283D01*
X110879762Y-90201284D01*
X111019634Y-90274696D01*
X111173014Y-90312500D01*
X111173015Y-90312500D01*
X111330985Y-90312500D01*
X111484365Y-90274696D01*
X111514271Y-90259000D01*
X111624240Y-90201283D01*
X111742483Y-90096530D01*
X111832220Y-89966523D01*
X111888237Y-89818818D01*
X111907278Y-89662000D01*
X111894074Y-89553250D01*
X111888237Y-89505181D01*
X111866992Y-89449164D01*
X111832220Y-89357477D01*
X111742483Y-89227470D01*
X111624240Y-89122717D01*
X111624238Y-89122716D01*
X111624237Y-89122715D01*
X111484365Y-89049303D01*
X111330986Y-89011500D01*
X111330985Y-89011500D01*
X111173015Y-89011500D01*
X111173014Y-89011500D01*
X111019634Y-89049303D01*
X110879762Y-89122715D01*
X110761516Y-89227470D01*
X110759089Y-89230987D01*
X110757742Y-89232938D01*
X110703463Y-89276929D01*
X110655692Y-89286500D01*
X110584500Y-89286500D01*
X110517461Y-89266815D01*
X110471706Y-89214011D01*
X110460500Y-89162500D01*
X110460500Y-89149323D01*
X110460499Y-89149321D01*
X110445967Y-89076264D01*
X110445966Y-89076262D01*
X110445966Y-89076260D01*
X110445964Y-89076258D01*
X110445964Y-89076256D01*
X110433391Y-89057439D01*
X110412513Y-88990762D01*
X110430998Y-88923382D01*
X110433392Y-88919656D01*
X110445496Y-88901541D01*
X110445496Y-88901540D01*
X110459999Y-88828628D01*
X110460000Y-88828626D01*
X110460000Y-88604000D01*
X108460000Y-88604000D01*
X108460000Y-88828628D01*
X108474503Y-88901540D01*
X108474505Y-88901544D01*
X108486608Y-88919658D01*
X108507486Y-88986336D01*
X108489001Y-89053716D01*
X108486610Y-89057437D01*
X108474034Y-89076258D01*
X108474032Y-89076264D01*
X108459626Y-89148691D01*
X108427241Y-89210602D01*
X108366526Y-89245176D01*
X108338009Y-89248500D01*
X108201041Y-89248500D01*
X108134002Y-89228815D01*
X108113360Y-89212181D01*
X108108102Y-89206923D01*
X108108099Y-89206921D01*
X107992521Y-89150419D01*
X107992519Y-89150418D01*
X107992518Y-89150418D01*
X107917582Y-89139500D01*
X107474418Y-89139500D01*
X107427583Y-89146323D01*
X107399479Y-89150418D01*
X107322721Y-89187943D01*
X107253848Y-89199701D01*
X107189551Y-89172358D01*
X107150245Y-89114593D01*
X107147436Y-89101380D01*
X107147197Y-89101437D01*
X107145413Y-89093888D01*
X107130429Y-89053716D01*
X107097628Y-88965774D01*
X107015687Y-88856313D01*
X106906226Y-88774372D01*
X106872826Y-88761914D01*
X106816893Y-88720042D01*
X106792477Y-88654577D01*
X106807330Y-88586304D01*
X106856736Y-88536900D01*
X106872830Y-88529550D01*
X106905983Y-88517185D01*
X106905984Y-88517184D01*
X107015329Y-88435329D01*
X107097184Y-88325984D01*
X107097185Y-88325983D01*
X107144916Y-88198010D01*
X107150999Y-88141428D01*
X107151000Y-88141427D01*
X107151000Y-88121000D01*
X105701001Y-88121000D01*
X105701001Y-88141439D01*
X105707081Y-88198007D01*
X105754813Y-88325981D01*
X105754815Y-88325984D01*
X105836670Y-88435329D01*
X105946015Y-88517184D01*
X105946020Y-88517187D01*
X105979170Y-88529551D01*
X106035104Y-88571421D01*
X106059522Y-88636885D01*
X106044671Y-88705158D01*
X105995266Y-88754564D01*
X105979174Y-88761914D01*
X105945772Y-88774372D01*
X105836313Y-88856313D01*
X105754373Y-88965771D01*
X105754372Y-88965774D01*
X105723217Y-89049304D01*
X105706587Y-89093889D01*
X105700500Y-89150498D01*
X105700500Y-89691481D01*
X105700501Y-89691490D01*
X105706587Y-89748114D01*
X105746407Y-89854871D01*
X105754372Y-89876226D01*
X105836313Y-89985687D01*
X105945774Y-90067628D01*
X105951698Y-90069837D01*
X106007631Y-90111704D01*
X106032051Y-90177167D01*
X106017202Y-90245441D01*
X105996049Y-90273700D01*
X105936142Y-90333606D01*
X105936142Y-90333608D01*
X105936141Y-90333609D01*
X105929693Y-90346264D01*
X105879981Y-90443827D01*
X105879981Y-90443828D01*
X105865500Y-90535264D01*
X105865500Y-90876739D01*
X105879981Y-90968170D01*
X105879981Y-90968171D01*
X105879982Y-90968174D01*
X105879983Y-90968175D01*
X105936141Y-91078391D01*
X105956422Y-91098672D01*
X105989907Y-91159993D01*
X105984924Y-91229684D01*
X105956424Y-91274033D01*
X105936553Y-91293904D01*
X105936550Y-91293908D01*
X105880466Y-91403977D01*
X105880465Y-91403980D01*
X105878561Y-91415999D01*
X105878561Y-91416000D01*
X106973438Y-91416000D01*
X106971535Y-91403983D01*
X106915447Y-91293906D01*
X106915444Y-91293901D01*
X106895577Y-91274034D01*
X106862092Y-91212711D01*
X106867076Y-91143019D01*
X106895588Y-91098661D01*
X106899017Y-91095232D01*
X106902445Y-91091806D01*
X106963773Y-91058330D01*
X106990113Y-91055500D01*
X107154960Y-91055500D01*
X107221999Y-91075185D01*
X107242641Y-91091819D01*
X107284181Y-91133359D01*
X107317666Y-91194682D01*
X107320500Y-91221040D01*
X107320500Y-92757099D01*
X107300815Y-92824138D01*
X107284181Y-92844780D01*
X106451108Y-93677852D01*
X106431254Y-93693976D01*
X106422165Y-93699914D01*
X106422164Y-93699915D01*
X106400363Y-93727923D01*
X106395286Y-93733674D01*
X106392484Y-93736477D01*
X106392474Y-93736488D01*
X106378905Y-93755495D01*
X106345192Y-93798808D01*
X106341447Y-93805729D01*
X106337988Y-93812804D01*
X106322329Y-93865403D01*
X106304500Y-93917338D01*
X106303206Y-93925092D01*
X106302231Y-93932911D01*
X106304500Y-93987755D01*
X106304500Y-98467796D01*
X106284815Y-98534835D01*
X106262727Y-98560611D01*
X106189518Y-98625468D01*
X106099781Y-98755475D01*
X106099780Y-98755476D01*
X106043762Y-98903181D01*
X106024722Y-99059999D01*
X106024722Y-99060000D01*
X106043762Y-99216818D01*
X106098634Y-99361500D01*
X106099780Y-99364523D01*
X106189517Y-99494530D01*
X106307760Y-99599283D01*
X106307762Y-99599284D01*
X106447634Y-99672696D01*
X106601014Y-99710500D01*
X106601015Y-99710500D01*
X106758985Y-99710500D01*
X106912365Y-99672696D01*
X106977597Y-99638459D01*
X107052240Y-99599283D01*
X107170483Y-99494530D01*
X107260220Y-99364523D01*
X107316237Y-99216818D01*
X107335278Y-99060000D01*
X107316237Y-98903182D01*
X107260220Y-98755477D01*
X107170483Y-98625470D01*
X107170481Y-98625468D01*
X107097273Y-98560611D01*
X107060146Y-98501422D01*
X107055500Y-98467796D01*
X107055500Y-94186899D01*
X107075185Y-94119860D01*
X107091819Y-94099218D01*
X107504092Y-93686945D01*
X107924892Y-93266144D01*
X107944741Y-93250025D01*
X107953836Y-93244084D01*
X107975644Y-93216062D01*
X107980721Y-93210316D01*
X107983520Y-93207518D01*
X107997094Y-93188504D01*
X108006699Y-93176164D01*
X108030807Y-93145192D01*
X108034547Y-93138280D01*
X108038003Y-93131207D01*
X108038010Y-93131199D01*
X108053670Y-93078596D01*
X108071500Y-93026660D01*
X108071500Y-93026655D01*
X108072790Y-93018924D01*
X108073768Y-93011085D01*
X108071500Y-92956244D01*
X108071500Y-91221040D01*
X108091185Y-91154001D01*
X108107819Y-91133359D01*
X108149359Y-91091819D01*
X108210682Y-91058334D01*
X108237040Y-91055500D01*
X108335500Y-91055500D01*
X108402539Y-91075185D01*
X108448294Y-91127989D01*
X108459500Y-91179500D01*
X108459500Y-91368678D01*
X108474032Y-91441735D01*
X108474033Y-91441738D01*
X108486309Y-91460111D01*
X108507185Y-91526789D01*
X108488699Y-91594169D01*
X108486309Y-91597889D01*
X108474033Y-91616261D01*
X108474032Y-91616264D01*
X108459500Y-91689321D01*
X108459500Y-92638678D01*
X108474032Y-92711735D01*
X108474033Y-92711738D01*
X108486309Y-92730111D01*
X108507185Y-92796789D01*
X108488699Y-92864169D01*
X108486309Y-92867889D01*
X108474033Y-92886261D01*
X108474032Y-92886264D01*
X108459500Y-92959321D01*
X108459500Y-93908678D01*
X108474032Y-93981735D01*
X108474033Y-93981738D01*
X108486309Y-94000111D01*
X108507185Y-94066789D01*
X108488699Y-94134169D01*
X108486309Y-94137889D01*
X108474033Y-94156261D01*
X108474032Y-94156264D01*
X108459500Y-94229321D01*
X108459500Y-95178678D01*
X108474032Y-95251735D01*
X108474033Y-95251738D01*
X108486309Y-95270111D01*
X108507185Y-95336789D01*
X108488699Y-95404169D01*
X108486309Y-95407889D01*
X108474033Y-95426261D01*
X108474032Y-95426264D01*
X108459500Y-95499321D01*
X108459500Y-96448678D01*
X108474032Y-96521735D01*
X108474033Y-96521738D01*
X108486309Y-96540111D01*
X108507185Y-96606789D01*
X108488699Y-96674169D01*
X108486309Y-96677889D01*
X108474033Y-96696261D01*
X108474032Y-96696264D01*
X108459500Y-96769321D01*
X108459500Y-97718678D01*
X108474032Y-97791735D01*
X108474033Y-97791738D01*
X108474033Y-97791739D01*
X108474034Y-97791740D01*
X108486308Y-97810109D01*
X108486309Y-97810111D01*
X108507185Y-97876789D01*
X108488699Y-97944169D01*
X108486309Y-97947889D01*
X108474033Y-97966261D01*
X108474032Y-97966264D01*
X108459500Y-98039321D01*
X108459500Y-98988678D01*
X108474032Y-99061735D01*
X108474033Y-99061738D01*
X108486309Y-99080111D01*
X108507185Y-99146789D01*
X108488699Y-99214169D01*
X108486309Y-99217889D01*
X108474033Y-99236261D01*
X108474032Y-99236264D01*
X108459500Y-99309321D01*
X108459500Y-100258678D01*
X108474032Y-100331735D01*
X108474033Y-100331738D01*
X108486309Y-100350111D01*
X108507185Y-100416789D01*
X108488699Y-100484169D01*
X108486309Y-100487889D01*
X108474033Y-100506261D01*
X108474032Y-100506264D01*
X108459500Y-100579321D01*
X108459500Y-101528678D01*
X108474032Y-101601735D01*
X108474033Y-101601738D01*
X108474033Y-101601739D01*
X108474034Y-101601740D01*
X108486308Y-101620109D01*
X108486309Y-101620111D01*
X108507185Y-101686789D01*
X108488699Y-101754169D01*
X108486309Y-101757889D01*
X108474033Y-101776261D01*
X108474032Y-101776264D01*
X108459500Y-101849321D01*
X108459500Y-102798678D01*
X108474032Y-102871735D01*
X108474033Y-102871738D01*
X108486309Y-102890111D01*
X108507185Y-102956789D01*
X108488699Y-103024169D01*
X108486309Y-103027889D01*
X108474033Y-103046261D01*
X108474032Y-103046264D01*
X108459500Y-103119321D01*
X108459500Y-104068678D01*
X108474032Y-104141735D01*
X108474033Y-104141738D01*
X108486309Y-104160111D01*
X108507185Y-104226789D01*
X108488699Y-104294169D01*
X108486309Y-104297889D01*
X108474033Y-104316261D01*
X108474032Y-104316264D01*
X108459500Y-104389321D01*
X108459500Y-105338678D01*
X108474032Y-105411735D01*
X108474033Y-105411739D01*
X108474034Y-105411740D01*
X108529399Y-105494601D01*
X108612259Y-105549965D01*
X108612260Y-105549966D01*
X108612264Y-105549967D01*
X108685321Y-105564499D01*
X108685324Y-105564500D01*
X108685326Y-105564500D01*
X110234676Y-105564500D01*
X110234677Y-105564499D01*
X110307740Y-105549966D01*
X110331610Y-105534016D01*
X110398286Y-105513139D01*
X110465666Y-105531623D01*
X110512357Y-105583602D01*
X110524500Y-105637119D01*
X110524500Y-106888678D01*
X110539032Y-106961735D01*
X110539033Y-106961739D01*
X110539034Y-106961740D01*
X110594399Y-107044601D01*
X110677259Y-107099965D01*
X110677260Y-107099966D01*
X110677264Y-107099967D01*
X110750321Y-107114499D01*
X110750324Y-107114500D01*
X110750326Y-107114500D01*
X111699676Y-107114500D01*
X111699677Y-107114499D01*
X111772740Y-107099966D01*
X111791110Y-107087691D01*
X111857786Y-107066814D01*
X111925166Y-107085298D01*
X111928873Y-107087680D01*
X111947260Y-107099966D01*
X111947262Y-107099966D01*
X111947264Y-107099967D01*
X112020321Y-107114499D01*
X112020324Y-107114500D01*
X112020326Y-107114500D01*
X112969676Y-107114500D01*
X112969677Y-107114499D01*
X113042740Y-107099966D01*
X113061110Y-107087691D01*
X113127786Y-107066814D01*
X113195166Y-107085298D01*
X113198873Y-107087680D01*
X113217260Y-107099966D01*
X113217262Y-107099966D01*
X113217264Y-107099967D01*
X113290321Y-107114499D01*
X113290324Y-107114500D01*
X113290326Y-107114500D01*
X114239676Y-107114500D01*
X114239677Y-107114499D01*
X114312740Y-107099966D01*
X114331110Y-107087691D01*
X114397786Y-107066814D01*
X114465166Y-107085298D01*
X114468873Y-107087680D01*
X114487260Y-107099966D01*
X114487262Y-107099966D01*
X114487264Y-107099967D01*
X114560321Y-107114499D01*
X114560324Y-107114500D01*
X114560326Y-107114500D01*
X115509676Y-107114500D01*
X115509677Y-107114499D01*
X115582740Y-107099966D01*
X115601110Y-107087691D01*
X115667786Y-107066814D01*
X115735166Y-107085298D01*
X115738873Y-107087680D01*
X115757260Y-107099966D01*
X115757262Y-107099966D01*
X115757264Y-107099967D01*
X115830321Y-107114499D01*
X115830324Y-107114500D01*
X115830326Y-107114500D01*
X116779676Y-107114500D01*
X116779677Y-107114499D01*
X116852740Y-107099966D01*
X116871110Y-107087691D01*
X116937786Y-107066814D01*
X117005166Y-107085298D01*
X117008873Y-107087680D01*
X117027260Y-107099966D01*
X117027262Y-107099966D01*
X117027264Y-107099967D01*
X117099691Y-107114374D01*
X117161602Y-107146759D01*
X117196176Y-107207474D01*
X117199500Y-107235991D01*
X117199500Y-114221196D01*
X117196862Y-114246634D01*
X117194633Y-114257268D01*
X117194633Y-114257269D01*
X117194633Y-114257271D01*
X117199023Y-114292491D01*
X117199500Y-114300167D01*
X117199500Y-114304116D01*
X117203342Y-114327141D01*
X117210134Y-114381627D01*
X117212373Y-114389147D01*
X117214934Y-114396608D01*
X117214935Y-114396610D01*
X117241055Y-114444877D01*
X117265174Y-114494211D01*
X117269742Y-114500609D01*
X117274582Y-114506827D01*
X117314971Y-114544009D01*
X117806481Y-115035518D01*
X117839966Y-115096841D01*
X117841896Y-115138143D01*
X117835722Y-115188997D01*
X117835722Y-115189000D01*
X117854762Y-115345818D01*
X117910780Y-115493523D01*
X118000517Y-115623530D01*
X118118760Y-115728283D01*
X118118762Y-115728284D01*
X118258634Y-115801696D01*
X118412014Y-115839500D01*
X118412015Y-115839500D01*
X118569985Y-115839500D01*
X118723365Y-115801696D01*
X118863240Y-115728283D01*
X118981483Y-115623530D01*
X119071220Y-115493523D01*
X119127237Y-115345818D01*
X119146278Y-115189000D01*
X119127237Y-115032182D01*
X119071220Y-114884477D01*
X118981483Y-114754470D01*
X118863240Y-114649717D01*
X118863238Y-114649716D01*
X118863237Y-114649715D01*
X118723365Y-114576303D01*
X118569986Y-114538500D01*
X118569985Y-114538500D01*
X118422900Y-114538500D01*
X118355861Y-114518815D01*
X118335219Y-114502181D01*
X117986819Y-114153781D01*
X117953334Y-114092458D01*
X117950500Y-114066100D01*
X117950500Y-107235991D01*
X117970185Y-107168952D01*
X118022989Y-107123197D01*
X118050309Y-107114374D01*
X118122735Y-107099967D01*
X118122735Y-107099966D01*
X118122740Y-107099966D01*
X118141110Y-107087691D01*
X118207786Y-107066814D01*
X118275166Y-107085298D01*
X118278873Y-107087680D01*
X118297260Y-107099966D01*
X118297262Y-107099966D01*
X118297264Y-107099967D01*
X118370321Y-107114499D01*
X118370324Y-107114500D01*
X118370326Y-107114500D01*
X119319676Y-107114500D01*
X119319677Y-107114499D01*
X119392740Y-107099966D01*
X119411110Y-107087691D01*
X119477786Y-107066814D01*
X119545166Y-107085298D01*
X119548873Y-107087680D01*
X119567260Y-107099966D01*
X119567262Y-107099966D01*
X119567264Y-107099967D01*
X119639691Y-107114374D01*
X119701602Y-107146759D01*
X119736176Y-107207474D01*
X119739500Y-107235991D01*
X119739500Y-107363196D01*
X119736862Y-107388634D01*
X119734633Y-107399268D01*
X119734633Y-107399269D01*
X119734633Y-107399271D01*
X119739023Y-107434491D01*
X119739500Y-107442167D01*
X119739500Y-107446116D01*
X119743342Y-107469141D01*
X119750134Y-107523627D01*
X119752373Y-107531147D01*
X119754934Y-107538608D01*
X119754935Y-107538610D01*
X119781055Y-107586877D01*
X119805174Y-107636211D01*
X119809742Y-107642609D01*
X119814582Y-107648827D01*
X119854971Y-107686009D01*
X123971282Y-111802319D01*
X124004767Y-111863642D01*
X123999783Y-111933334D01*
X123957911Y-111989267D01*
X123892447Y-112013684D01*
X123883601Y-112014000D01*
X123190000Y-112014000D01*
X123190000Y-118494000D01*
X123170315Y-118561039D01*
X123117511Y-118606794D01*
X123066000Y-118618000D01*
X108370173Y-118618000D01*
X108303134Y-118598315D01*
X108257379Y-118545511D01*
X108247435Y-118476353D01*
X108272118Y-118418098D01*
X108295444Y-118387963D01*
X108295443Y-118387963D01*
X108295448Y-118387958D01*
X108385060Y-118205271D01*
X108436063Y-118008285D01*
X108446369Y-117805064D01*
X108415556Y-117603929D01*
X108344886Y-117413113D01*
X108237252Y-117240429D01*
X108097059Y-117092947D01*
X107998587Y-117024409D01*
X107930050Y-116976705D01*
X107743056Y-116896459D01*
X107543741Y-116855500D01*
X107391258Y-116855500D01*
X107391257Y-116855500D01*
X107239560Y-116870925D01*
X107045420Y-116931837D01*
X107045405Y-116931844D01*
X106867500Y-117030589D01*
X106867495Y-117030592D01*
X106713106Y-117163132D01*
X106713104Y-117163134D01*
X106588554Y-117324037D01*
X106588553Y-117324040D01*
X106498940Y-117506728D01*
X106447937Y-117703714D01*
X106437631Y-117906936D01*
X106468442Y-118108063D01*
X106468445Y-118108075D01*
X106539111Y-118298881D01*
X106539115Y-118298888D01*
X106619845Y-118428409D01*
X106638601Y-118495714D01*
X106617992Y-118562475D01*
X106564560Y-118607496D01*
X106514613Y-118618000D01*
X104006500Y-118618000D01*
X103939461Y-118598315D01*
X103893706Y-118545511D01*
X103882500Y-118494000D01*
X103882500Y-118230500D01*
X103902185Y-118163461D01*
X103954989Y-118117706D01*
X104006500Y-118106500D01*
X104611114Y-118106500D01*
X104635306Y-118108883D01*
X104647999Y-118111408D01*
X104648000Y-118111408D01*
X104648002Y-118111408D01*
X104696870Y-118101687D01*
X104745740Y-118091966D01*
X104828601Y-118036601D01*
X104883966Y-117953740D01*
X104893276Y-117906936D01*
X104899689Y-117874700D01*
X104899690Y-117874689D01*
X104903408Y-117856000D01*
X104903408Y-117855999D01*
X104900883Y-117843306D01*
X104898500Y-117819114D01*
X104898500Y-110272885D01*
X104900883Y-110248691D01*
X104903408Y-110235998D01*
X104903408Y-110235997D01*
X104883966Y-110138261D01*
X104883966Y-110138260D01*
X104828601Y-110055399D01*
X104773235Y-110018405D01*
X104745739Y-110000033D01*
X104745736Y-110000032D01*
X104672675Y-109985500D01*
X104648001Y-109980592D01*
X104647999Y-109980592D01*
X104635306Y-109983117D01*
X104611114Y-109985500D01*
X104006500Y-109985500D01*
X103939461Y-109965815D01*
X103893706Y-109913011D01*
X103882500Y-109861500D01*
X103882500Y-108240885D01*
X103884883Y-108216691D01*
X103887408Y-108203998D01*
X103887408Y-108203997D01*
X103867966Y-108106261D01*
X103867966Y-108106260D01*
X103812601Y-108023399D01*
X103729740Y-107968034D01*
X103729739Y-107968033D01*
X103729736Y-107968032D01*
X103656675Y-107953500D01*
X103632001Y-107948592D01*
X103631999Y-107948592D01*
X103619306Y-107951117D01*
X103595114Y-107953500D01*
X101974500Y-107953500D01*
X101907461Y-107933815D01*
X101861706Y-107881011D01*
X101850500Y-107829500D01*
X101850500Y-99942500D01*
X101870185Y-99875461D01*
X101922989Y-99829706D01*
X101974500Y-99818500D01*
X104865114Y-99818500D01*
X104889306Y-99820883D01*
X104901999Y-99823408D01*
X104902000Y-99823408D01*
X104902002Y-99823408D01*
X104950870Y-99813687D01*
X104999740Y-99803966D01*
X105082601Y-99748601D01*
X105137966Y-99665740D01*
X105143393Y-99638459D01*
X105153689Y-99586700D01*
X105153690Y-99586689D01*
X105157408Y-99568000D01*
X105157408Y-99567999D01*
X105154883Y-99555306D01*
X105152500Y-99531114D01*
X105152500Y-91916000D01*
X105878562Y-91916000D01*
X105880464Y-91928016D01*
X105936552Y-92038093D01*
X105936555Y-92038098D01*
X106023901Y-92125444D01*
X106023906Y-92125448D01*
X106133984Y-92181536D01*
X106176000Y-92188190D01*
X106176000Y-91916000D01*
X106676000Y-91916000D01*
X106676000Y-92188188D01*
X106718022Y-92181533D01*
X106828091Y-92125449D01*
X106828098Y-92125444D01*
X106915444Y-92038098D01*
X106915449Y-92038091D01*
X106971533Y-91928022D01*
X106971534Y-91928019D01*
X106973438Y-91916000D01*
X106676000Y-91916000D01*
X106176000Y-91916000D01*
X105878562Y-91916000D01*
X105152500Y-91916000D01*
X105152500Y-88104000D01*
X108460000Y-88104000D01*
X109210000Y-88104000D01*
X109210000Y-87654000D01*
X109710000Y-87654000D01*
X109710000Y-88104000D01*
X110460000Y-88104000D01*
X125960000Y-88104000D01*
X126710000Y-88104000D01*
X126710000Y-87654000D01*
X127210000Y-87654000D01*
X127210000Y-88104000D01*
X127960000Y-88104000D01*
X127960000Y-87879373D01*
X127959999Y-87879371D01*
X127945496Y-87806459D01*
X127945494Y-87806455D01*
X127890239Y-87723760D01*
X127807544Y-87668505D01*
X127807540Y-87668503D01*
X127734627Y-87654000D01*
X127210000Y-87654000D01*
X126710000Y-87654000D01*
X126185373Y-87654000D01*
X126112459Y-87668503D01*
X126112455Y-87668505D01*
X126029760Y-87723760D01*
X125974505Y-87806455D01*
X125974503Y-87806459D01*
X125960000Y-87879371D01*
X125960000Y-88104000D01*
X110460000Y-88104000D01*
X110460000Y-87879373D01*
X110459999Y-87879371D01*
X110445496Y-87806459D01*
X110445494Y-87806455D01*
X110390239Y-87723760D01*
X110307544Y-87668505D01*
X110307540Y-87668503D01*
X110234627Y-87654000D01*
X109710000Y-87654000D01*
X109210000Y-87654000D01*
X108685373Y-87654000D01*
X108612459Y-87668503D01*
X108612455Y-87668505D01*
X108529760Y-87723760D01*
X108474505Y-87806455D01*
X108474503Y-87806459D01*
X108460000Y-87879371D01*
X108460000Y-88104000D01*
X105152500Y-88104000D01*
X105152500Y-87621000D01*
X105701000Y-87621000D01*
X106176000Y-87621000D01*
X106176000Y-87171000D01*
X106676000Y-87171000D01*
X106676000Y-87621000D01*
X107150999Y-87621000D01*
X107150999Y-87600566D01*
X107150998Y-87600560D01*
X107144918Y-87543992D01*
X107097186Y-87416018D01*
X107097184Y-87416015D01*
X107015329Y-87306670D01*
X106905984Y-87224815D01*
X106905983Y-87224814D01*
X106778010Y-87177083D01*
X106721428Y-87171000D01*
X106676000Y-87171000D01*
X106176000Y-87171000D01*
X106130567Y-87171000D01*
X106130558Y-87171001D01*
X106073992Y-87177081D01*
X105946018Y-87224813D01*
X105946015Y-87224815D01*
X105836670Y-87306670D01*
X105754815Y-87416015D01*
X105754814Y-87416016D01*
X105707083Y-87543989D01*
X105701000Y-87600571D01*
X105701000Y-87621000D01*
X105152500Y-87621000D01*
X105152500Y-86988000D01*
X105172185Y-86920961D01*
X105224989Y-86875206D01*
X105276500Y-86864000D01*
X137293500Y-86864000D01*
X137360539Y-86883685D01*
G37*
%TD.AperFunction*%
%TA.AperFunction,Conductor*%
G36*
X138376539Y-101806185D02*
G01*
X138422294Y-101858989D01*
X138433500Y-101910500D01*
X138433500Y-109861500D01*
X138413815Y-109928539D01*
X138361011Y-109974294D01*
X138309500Y-109985500D01*
X137704886Y-109985500D01*
X137680694Y-109983117D01*
X137668001Y-109980592D01*
X137667999Y-109980592D01*
X137643325Y-109985500D01*
X137570263Y-110000032D01*
X137570260Y-110000033D01*
X137487399Y-110055399D01*
X137432033Y-110138261D01*
X137412592Y-110235997D01*
X137412592Y-110235998D01*
X137415117Y-110248691D01*
X137417500Y-110272885D01*
X137417500Y-111890000D01*
X137397815Y-111957039D01*
X137345011Y-112002794D01*
X137293500Y-112014000D01*
X136744500Y-112014000D01*
X136677461Y-111994315D01*
X136631706Y-111941511D01*
X136620500Y-111890000D01*
X136620500Y-111077505D01*
X136640185Y-111010466D01*
X136660963Y-110985866D01*
X136666764Y-110980579D01*
X136789673Y-110817821D01*
X136880582Y-110635250D01*
X136936397Y-110439083D01*
X136955215Y-110236000D01*
X136936397Y-110032917D01*
X136880582Y-109836750D01*
X136789673Y-109654179D01*
X136678072Y-109506395D01*
X136666762Y-109491418D01*
X136516041Y-109354019D01*
X136516039Y-109354017D01*
X136342642Y-109246655D01*
X136342635Y-109246651D01*
X136192923Y-109188653D01*
X136152456Y-109172976D01*
X135951976Y-109135500D01*
X135748024Y-109135500D01*
X135547544Y-109172976D01*
X135547541Y-109172976D01*
X135547541Y-109172977D01*
X135357364Y-109246651D01*
X135357357Y-109246655D01*
X135183960Y-109354017D01*
X135183958Y-109354019D01*
X135033237Y-109491418D01*
X134910327Y-109654178D01*
X134819422Y-109836739D01*
X134819417Y-109836752D01*
X134763602Y-110032917D01*
X134744785Y-110235999D01*
X134744785Y-110236000D01*
X134763602Y-110439082D01*
X134819417Y-110635247D01*
X134819422Y-110635260D01*
X134869585Y-110736000D01*
X134910327Y-110817821D01*
X135033236Y-110980579D01*
X135079040Y-111022334D01*
X135115319Y-111082042D01*
X135119500Y-111113969D01*
X135119500Y-111890000D01*
X135099815Y-111957039D01*
X135047011Y-112002794D01*
X134995500Y-112014000D01*
X134204500Y-112014000D01*
X134137461Y-111994315D01*
X134091706Y-111941511D01*
X134080500Y-111890000D01*
X134080500Y-111458476D01*
X134100185Y-111391437D01*
X134152989Y-111345682D01*
X134180309Y-111336859D01*
X134257540Y-111321496D01*
X134257544Y-111321494D01*
X134340239Y-111266239D01*
X134395494Y-111183544D01*
X134395496Y-111183540D01*
X134409999Y-111110628D01*
X134410000Y-111110626D01*
X134410000Y-110486000D01*
X134204500Y-110486000D01*
X134137461Y-110466315D01*
X134091706Y-110413511D01*
X134080500Y-110362000D01*
X134080500Y-110110000D01*
X134100185Y-110042961D01*
X134152989Y-109997206D01*
X134204500Y-109986000D01*
X134410000Y-109986000D01*
X134410000Y-109361373D01*
X134409999Y-109361371D01*
X134395496Y-109288459D01*
X134395494Y-109288455D01*
X134340239Y-109205760D01*
X134257544Y-109150505D01*
X134257540Y-109150503D01*
X134184627Y-109136000D01*
X133560000Y-109136000D01*
X133560000Y-109631500D01*
X133540315Y-109698539D01*
X133487511Y-109744294D01*
X133453250Y-109751747D01*
X133452315Y-109751320D01*
X133345763Y-109736000D01*
X133274237Y-109736000D01*
X133169081Y-109751119D01*
X133116961Y-109735815D01*
X133071206Y-109683011D01*
X133060000Y-109631500D01*
X133060000Y-109136000D01*
X132435373Y-109136000D01*
X132362459Y-109150503D01*
X132362455Y-109150505D01*
X132279760Y-109205760D01*
X132224505Y-109288455D01*
X132224503Y-109288459D01*
X132210000Y-109361371D01*
X132210000Y-109986000D01*
X132455500Y-109986000D01*
X132522539Y-110005685D01*
X132568294Y-110058489D01*
X132579500Y-110110000D01*
X132579500Y-110362000D01*
X132559815Y-110429039D01*
X132507011Y-110474794D01*
X132455500Y-110486000D01*
X132210000Y-110486000D01*
X132210000Y-111110628D01*
X132224503Y-111183540D01*
X132224505Y-111183544D01*
X132279760Y-111266239D01*
X132362455Y-111321494D01*
X132362459Y-111321496D01*
X132435371Y-111335999D01*
X132435374Y-111336000D01*
X132455500Y-111336000D01*
X132522539Y-111355685D01*
X132568294Y-111408489D01*
X132579500Y-111460000D01*
X132579500Y-111890000D01*
X132559815Y-111957039D01*
X132507011Y-112002794D01*
X132455500Y-112014000D01*
X127477780Y-112014000D01*
X127410741Y-111994315D01*
X127390099Y-111977681D01*
X125453418Y-110041000D01*
X129831001Y-110041000D01*
X129831001Y-110045196D01*
X129833851Y-110075606D01*
X129878653Y-110203645D01*
X129959207Y-110312792D01*
X130068354Y-110393346D01*
X130196397Y-110438149D01*
X130226778Y-110440998D01*
X130226806Y-110440999D01*
X130305999Y-110440998D01*
X130306000Y-110440998D01*
X130306000Y-110041000D01*
X130806000Y-110041000D01*
X130806000Y-110440999D01*
X130885196Y-110440999D01*
X130915606Y-110438148D01*
X131043645Y-110393346D01*
X131152792Y-110312792D01*
X131233346Y-110203645D01*
X131278149Y-110075604D01*
X131278149Y-110075600D01*
X131281000Y-110045206D01*
X131281000Y-110041000D01*
X130806000Y-110041000D01*
X130306000Y-110041000D01*
X129831001Y-110041000D01*
X125453418Y-110041000D01*
X124953418Y-109541000D01*
X129831000Y-109541000D01*
X130306000Y-109541000D01*
X130306000Y-109141000D01*
X130806000Y-109141000D01*
X130806000Y-109541000D01*
X131280999Y-109541000D01*
X131280999Y-109536803D01*
X131278148Y-109506393D01*
X131233346Y-109378354D01*
X131152792Y-109269207D01*
X131043645Y-109188653D01*
X130915602Y-109143850D01*
X130885207Y-109141000D01*
X130806000Y-109141000D01*
X130306000Y-109141000D01*
X130305999Y-109140999D01*
X130226804Y-109141000D01*
X130196393Y-109143851D01*
X130068354Y-109188653D01*
X129959207Y-109269207D01*
X129878653Y-109378354D01*
X129833850Y-109506395D01*
X129833850Y-109506399D01*
X129831000Y-109536793D01*
X129831000Y-109541000D01*
X124953418Y-109541000D01*
X122738599Y-107326181D01*
X122705114Y-107264858D01*
X122710098Y-107195166D01*
X122751970Y-107139233D01*
X122817434Y-107114816D01*
X122826280Y-107114500D01*
X123129676Y-107114500D01*
X123129677Y-107114499D01*
X123202740Y-107099966D01*
X123221110Y-107087691D01*
X123287786Y-107066814D01*
X123355166Y-107085298D01*
X123358873Y-107087680D01*
X123377260Y-107099966D01*
X123377262Y-107099966D01*
X123377264Y-107099967D01*
X123455311Y-107115492D01*
X123517222Y-107147877D01*
X123551796Y-107208592D01*
X123554167Y-107221769D01*
X123560132Y-107269621D01*
X123562373Y-107277147D01*
X123564934Y-107284608D01*
X123564935Y-107284610D01*
X123581723Y-107315633D01*
X123591055Y-107332877D01*
X123615174Y-107382211D01*
X123619742Y-107388609D01*
X123624582Y-107394827D01*
X123664971Y-107432009D01*
X124602849Y-108369886D01*
X124618978Y-108389747D01*
X124622585Y-108395269D01*
X124624916Y-108398836D01*
X124652932Y-108420641D01*
X124658693Y-108425730D01*
X124661482Y-108428519D01*
X124680483Y-108442085D01*
X124723811Y-108475809D01*
X124730722Y-108479549D01*
X124737800Y-108483010D01*
X124790405Y-108498671D01*
X124842340Y-108516500D01*
X124842342Y-108516500D01*
X124850079Y-108517791D01*
X124857909Y-108518767D01*
X124857911Y-108518768D01*
X124857912Y-108518767D01*
X124857913Y-108518768D01*
X124912755Y-108516500D01*
X129788020Y-108516500D01*
X129855059Y-108536185D01*
X129887790Y-108566867D01*
X129958848Y-108663148D01*
X129958849Y-108663148D01*
X129958850Y-108663150D01*
X130068118Y-108743793D01*
X130110845Y-108758744D01*
X130196299Y-108788646D01*
X130226730Y-108791500D01*
X130226734Y-108791500D01*
X130885270Y-108791500D01*
X130915699Y-108788646D01*
X130915701Y-108788646D01*
X130979790Y-108766219D01*
X131043882Y-108743793D01*
X131153150Y-108663150D01*
X131233793Y-108553882D01*
X131266851Y-108459408D01*
X131278646Y-108425701D01*
X131278646Y-108425699D01*
X131281500Y-108395269D01*
X131281500Y-108195500D01*
X131301185Y-108128461D01*
X131353989Y-108082706D01*
X131405500Y-108071500D01*
X132190815Y-108071500D01*
X132257854Y-108091185D01*
X132301813Y-108140225D01*
X132370327Y-108277821D01*
X132370329Y-108277823D01*
X132493237Y-108440581D01*
X132643958Y-108577980D01*
X132643960Y-108577982D01*
X132743141Y-108639392D01*
X132817363Y-108685348D01*
X133007544Y-108759024D01*
X133208024Y-108796500D01*
X133208026Y-108796500D01*
X133411974Y-108796500D01*
X133411976Y-108796500D01*
X133612456Y-108759024D01*
X133802637Y-108685348D01*
X133976041Y-108577981D01*
X134126764Y-108440579D01*
X134249673Y-108277821D01*
X134340582Y-108095250D01*
X134396397Y-107899083D01*
X134415215Y-107696000D01*
X134744785Y-107696000D01*
X134763602Y-107899082D01*
X134819417Y-108095247D01*
X134819422Y-108095260D01*
X134910327Y-108277821D01*
X135033237Y-108440581D01*
X135183958Y-108577980D01*
X135183960Y-108577982D01*
X135283141Y-108639392D01*
X135357363Y-108685348D01*
X135547544Y-108759024D01*
X135748024Y-108796500D01*
X135748026Y-108796500D01*
X135951974Y-108796500D01*
X135951976Y-108796500D01*
X136152456Y-108759024D01*
X136342637Y-108685348D01*
X136516041Y-108577981D01*
X136666764Y-108440579D01*
X136789673Y-108277821D01*
X136880582Y-108095250D01*
X136936397Y-107899083D01*
X136955215Y-107696000D01*
X136945103Y-107586877D01*
X136936397Y-107492917D01*
X136929632Y-107469140D01*
X136880582Y-107296750D01*
X136870633Y-107276770D01*
X136824595Y-107184313D01*
X136789673Y-107114179D01*
X136666764Y-106951421D01*
X136660959Y-106946129D01*
X136624680Y-106886418D01*
X136620500Y-106854494D01*
X136620500Y-104941323D01*
X136620499Y-104941321D01*
X136605967Y-104868264D01*
X136605966Y-104868260D01*
X136577411Y-104825524D01*
X136550601Y-104785399D01*
X136467740Y-104730034D01*
X136467739Y-104730033D01*
X136467735Y-104730032D01*
X136394677Y-104715500D01*
X136394674Y-104715500D01*
X135345326Y-104715500D01*
X135345323Y-104715500D01*
X135272264Y-104730032D01*
X135272260Y-104730033D01*
X135189399Y-104785399D01*
X135134033Y-104868260D01*
X135134032Y-104868264D01*
X135119500Y-104941321D01*
X135119500Y-106818029D01*
X135099815Y-106885068D01*
X135079039Y-106909666D01*
X135033235Y-106951421D01*
X134910327Y-107114178D01*
X134819422Y-107296739D01*
X134819417Y-107296752D01*
X134763602Y-107492917D01*
X134744785Y-107695999D01*
X134744785Y-107696000D01*
X134415215Y-107696000D01*
X134405103Y-107586877D01*
X134396397Y-107492917D01*
X134389632Y-107469140D01*
X134340582Y-107296750D01*
X134330633Y-107276770D01*
X134284595Y-107184313D01*
X134249673Y-107114179D01*
X134126764Y-106951421D01*
X134120959Y-106946129D01*
X134084680Y-106886418D01*
X134080500Y-106854494D01*
X134080500Y-104941323D01*
X134080499Y-104941321D01*
X134065967Y-104868264D01*
X134065966Y-104868260D01*
X134037411Y-104825524D01*
X134010601Y-104785399D01*
X133927740Y-104730034D01*
X133927739Y-104730033D01*
X133927735Y-104730032D01*
X133854677Y-104715500D01*
X133854674Y-104715500D01*
X132805326Y-104715500D01*
X132805323Y-104715500D01*
X132732264Y-104730032D01*
X132732260Y-104730033D01*
X132649399Y-104785399D01*
X132594033Y-104868260D01*
X132594032Y-104868264D01*
X132579500Y-104941321D01*
X132579500Y-106818029D01*
X132559815Y-106885068D01*
X132539039Y-106909666D01*
X132493235Y-106951421D01*
X132390329Y-107087692D01*
X132370327Y-107114179D01*
X132301813Y-107251773D01*
X132254313Y-107303008D01*
X132190815Y-107320500D01*
X131052804Y-107320500D01*
X131027359Y-107317861D01*
X131016733Y-107315633D01*
X131016730Y-107315633D01*
X130981508Y-107320023D01*
X130973832Y-107320500D01*
X130969886Y-107320500D01*
X130952615Y-107323381D01*
X130946858Y-107324342D01*
X130892370Y-107331134D01*
X130884857Y-107333371D01*
X130877387Y-107335936D01*
X130829122Y-107362055D01*
X130779792Y-107386171D01*
X130773379Y-107390750D01*
X130767175Y-107395579D01*
X130749421Y-107414864D01*
X130729992Y-107435969D01*
X130719847Y-107446114D01*
X130711780Y-107454181D01*
X130650457Y-107487666D01*
X130624099Y-107490500D01*
X130226730Y-107490500D01*
X130196300Y-107493353D01*
X130196298Y-107493353D01*
X130068119Y-107538206D01*
X130068117Y-107538207D01*
X129958848Y-107618851D01*
X129887790Y-107715133D01*
X129832143Y-107757384D01*
X129788020Y-107765500D01*
X125111899Y-107765500D01*
X125044860Y-107745815D01*
X125024218Y-107729181D01*
X124620636Y-107325598D01*
X124587151Y-107264275D01*
X124592135Y-107194583D01*
X124634007Y-107138650D01*
X124699471Y-107114233D01*
X124719359Y-107114500D01*
X124720326Y-107114500D01*
X125669676Y-107114500D01*
X125669677Y-107114499D01*
X125742740Y-107099966D01*
X125825601Y-107044601D01*
X125880966Y-106961740D01*
X125895500Y-106888674D01*
X125895500Y-105637119D01*
X125915185Y-105570080D01*
X125967989Y-105524325D01*
X126037147Y-105514381D01*
X126088389Y-105534016D01*
X126112260Y-105549966D01*
X126112262Y-105549966D01*
X126112264Y-105549967D01*
X126185321Y-105564499D01*
X126185324Y-105564500D01*
X126185326Y-105564500D01*
X127734676Y-105564500D01*
X127734677Y-105564499D01*
X127807740Y-105549966D01*
X127890601Y-105494601D01*
X127945966Y-105411740D01*
X127945967Y-105411735D01*
X127960374Y-105339309D01*
X127992759Y-105277398D01*
X128053474Y-105242824D01*
X128081991Y-105239500D01*
X131050196Y-105239500D01*
X131075641Y-105242139D01*
X131078909Y-105242824D01*
X131086268Y-105244367D01*
X131107225Y-105241754D01*
X131121492Y-105239977D01*
X131129168Y-105239500D01*
X131133112Y-105239500D01*
X131133114Y-105239500D01*
X131133116Y-105239499D01*
X131133122Y-105239499D01*
X131148487Y-105236934D01*
X131156140Y-105235657D01*
X131210626Y-105228866D01*
X131210627Y-105228865D01*
X131210629Y-105228865D01*
X131218141Y-105226628D01*
X131225606Y-105224066D01*
X131225606Y-105224065D01*
X131225610Y-105224065D01*
X131273877Y-105197944D01*
X131323211Y-105173826D01*
X131323214Y-105173823D01*
X131329594Y-105169268D01*
X131335819Y-105164422D01*
X131335826Y-105164419D01*
X131373007Y-105124029D01*
X133215219Y-103281819D01*
X133276542Y-103248334D01*
X133302900Y-103245500D01*
X136854196Y-103245500D01*
X136879641Y-103248139D01*
X136883440Y-103248935D01*
X136890268Y-103250367D01*
X136911225Y-103247754D01*
X136925492Y-103245977D01*
X136933168Y-103245500D01*
X136937112Y-103245500D01*
X136937114Y-103245500D01*
X136937116Y-103245499D01*
X136937122Y-103245499D01*
X136952487Y-103242934D01*
X136960140Y-103241657D01*
X137014626Y-103234866D01*
X137014627Y-103234865D01*
X137014629Y-103234865D01*
X137022141Y-103232628D01*
X137029606Y-103230066D01*
X137029606Y-103230065D01*
X137029610Y-103230065D01*
X137077877Y-103203944D01*
X137127211Y-103179826D01*
X137127214Y-103179823D01*
X137133594Y-103175268D01*
X137139819Y-103170422D01*
X137139826Y-103170419D01*
X137177008Y-103130028D01*
X137968889Y-102338146D01*
X137988746Y-102322022D01*
X137997836Y-102316084D01*
X138019638Y-102288071D01*
X138024733Y-102282303D01*
X138027519Y-102279518D01*
X138027528Y-102279506D01*
X138041086Y-102260516D01*
X138074807Y-102217192D01*
X138078547Y-102210280D01*
X138082003Y-102203207D01*
X138082010Y-102203199D01*
X138097670Y-102150596D01*
X138115500Y-102098660D01*
X138115500Y-102098655D01*
X138116790Y-102090924D01*
X138117768Y-102083085D01*
X138115500Y-102028244D01*
X138115500Y-101910500D01*
X138135185Y-101843461D01*
X138187989Y-101797706D01*
X138239500Y-101786500D01*
X138309500Y-101786500D01*
X138376539Y-101806185D01*
G37*
%TD.AperFunction*%
%TD*%
%TA.AperFunction,Conductor*%
%TO.N,GND*%
G36*
X128516640Y-116351685D02*
G01*
X128537282Y-116368319D01*
X131649481Y-119480518D01*
X131682966Y-119541841D01*
X131684896Y-119583143D01*
X131678722Y-119633997D01*
X131678722Y-119634000D01*
X131697762Y-119790818D01*
X131747331Y-119921518D01*
X131753780Y-119938523D01*
X131843517Y-120068530D01*
X131961760Y-120173283D01*
X131961762Y-120173284D01*
X132101634Y-120246696D01*
X132255014Y-120284500D01*
X132255015Y-120284500D01*
X132412985Y-120284500D01*
X132566365Y-120246696D01*
X132706240Y-120173283D01*
X132824483Y-120068530D01*
X132914220Y-119938523D01*
X132970237Y-119790818D01*
X132989278Y-119634000D01*
X132970237Y-119477182D01*
X132914220Y-119329477D01*
X132824483Y-119199470D01*
X132706240Y-119094717D01*
X132706238Y-119094716D01*
X132706237Y-119094715D01*
X132566365Y-119021303D01*
X132412986Y-118983500D01*
X132412985Y-118983500D01*
X132265899Y-118983500D01*
X132198860Y-118963815D01*
X132178218Y-118947181D01*
X129774718Y-116543681D01*
X129741233Y-116482358D01*
X129746217Y-116412666D01*
X129788089Y-116356733D01*
X129853553Y-116332316D01*
X129862399Y-116332000D01*
X130630981Y-116332000D01*
X130698020Y-116351685D01*
X130718662Y-116368319D01*
X134213229Y-119862886D01*
X134229357Y-119882745D01*
X134235296Y-119891836D01*
X134263312Y-119913641D01*
X134269073Y-119918730D01*
X134271862Y-119921519D01*
X134290863Y-119935085D01*
X134334191Y-119968809D01*
X134341102Y-119972549D01*
X134348180Y-119976010D01*
X134400785Y-119991671D01*
X134452720Y-120009500D01*
X134452722Y-120009500D01*
X134460459Y-120010791D01*
X134468289Y-120011767D01*
X134468291Y-120011768D01*
X134468292Y-120011767D01*
X134468293Y-120011768D01*
X134523135Y-120009500D01*
X135456692Y-120009500D01*
X135523731Y-120029185D01*
X135558742Y-120063061D01*
X135561163Y-120066569D01*
X135562515Y-120068528D01*
X135562517Y-120068530D01*
X135680760Y-120173283D01*
X135680762Y-120173284D01*
X135820634Y-120246696D01*
X135974014Y-120284500D01*
X135974015Y-120284500D01*
X136131985Y-120284500D01*
X136285365Y-120246696D01*
X136425240Y-120173283D01*
X136543483Y-120068530D01*
X136633220Y-119938523D01*
X136689237Y-119790818D01*
X136708278Y-119634000D01*
X136689237Y-119477182D01*
X136633220Y-119329477D01*
X136543483Y-119199470D01*
X136425240Y-119094717D01*
X136425238Y-119094716D01*
X136425237Y-119094715D01*
X136285365Y-119021303D01*
X136131986Y-118983500D01*
X136131985Y-118983500D01*
X135974015Y-118983500D01*
X135974014Y-118983500D01*
X135820634Y-119021303D01*
X135680762Y-119094715D01*
X135562516Y-119199470D01*
X135560089Y-119202987D01*
X135558742Y-119204938D01*
X135504463Y-119248929D01*
X135456692Y-119258500D01*
X134722280Y-119258500D01*
X134655241Y-119238815D01*
X134634599Y-119222181D01*
X131956099Y-116543681D01*
X131922614Y-116482358D01*
X131927598Y-116412666D01*
X131969470Y-116356733D01*
X132034934Y-116332316D01*
X132043780Y-116332000D01*
X137293500Y-116332000D01*
X137360539Y-116351685D01*
X137406294Y-116404489D01*
X137417500Y-116456000D01*
X137417500Y-117819114D01*
X137415117Y-117843306D01*
X137412592Y-117855999D01*
X137412592Y-117856000D01*
X137416688Y-117876591D01*
X137416689Y-117876597D01*
X137432032Y-117953736D01*
X137432033Y-117953739D01*
X137432034Y-117953740D01*
X137487399Y-118036601D01*
X137570260Y-118091966D01*
X137602840Y-118098446D01*
X137667998Y-118111408D01*
X137668000Y-118111408D01*
X137668001Y-118111408D01*
X137680694Y-118108883D01*
X137704886Y-118106500D01*
X138309500Y-118106500D01*
X138376539Y-118126185D01*
X138422294Y-118178989D01*
X138433500Y-118230500D01*
X138433500Y-123187294D01*
X138433264Y-123192700D01*
X138418957Y-123356224D01*
X138415204Y-123377509D01*
X138374824Y-123528212D01*
X138367431Y-123548525D01*
X138301498Y-123689916D01*
X138290691Y-123708633D01*
X138201201Y-123836438D01*
X138187307Y-123852996D01*
X138076996Y-123963307D01*
X138060438Y-123977201D01*
X137932633Y-124066691D01*
X137913916Y-124077498D01*
X137772525Y-124143431D01*
X137752212Y-124150824D01*
X137601509Y-124191204D01*
X137580224Y-124194957D01*
X137453776Y-124206020D01*
X137416695Y-124209264D01*
X137411294Y-124209500D01*
X127632000Y-124209500D01*
X127564961Y-124189815D01*
X127519206Y-124137011D01*
X127508000Y-124085500D01*
X127508000Y-116456000D01*
X127527685Y-116388961D01*
X127580489Y-116343206D01*
X127632000Y-116332000D01*
X128449601Y-116332000D01*
X128516640Y-116351685D01*
G37*
%TD.AperFunction*%
%TD*%
M02*
