%TF.GenerationSoftware,KiCad,Pcbnew,7.0.8*%
%TF.CreationDate,2023-10-28T23:27:17-04:00*%
%TF.ProjectId,AmazonBasicsSecureFrontend,416d617a-6f6e-4426-9173-696373536563,rev?*%
%TF.SameCoordinates,Original*%
%TF.FileFunction,Paste,Top*%
%TF.FilePolarity,Positive*%
%FSLAX46Y46*%
G04 Gerber Fmt 4.6, Leading zero omitted, Abs format (unit mm)*
G04 Created by KiCad (PCBNEW 7.0.8) date 2023-10-28 23:27:17*
%MOMM*%
%LPD*%
G01*
G04 APERTURE LIST*
G04 Aperture macros list*
%AMRoundRect*
0 Rectangle with rounded corners*
0 $1 Rounding radius*
0 $2 $3 $4 $5 $6 $7 $8 $9 X,Y pos of 4 corners*
0 Add a 4 corners polygon primitive as box body*
4,1,4,$2,$3,$4,$5,$6,$7,$8,$9,$2,$3,0*
0 Add four circle primitives for the rounded corners*
1,1,$1+$1,$2,$3*
1,1,$1+$1,$4,$5*
1,1,$1+$1,$6,$7*
1,1,$1+$1,$8,$9*
0 Add four rect primitives between the rounded corners*
20,1,$1+$1,$2,$3,$4,$5,0*
20,1,$1+$1,$4,$5,$6,$7,0*
20,1,$1+$1,$6,$7,$8,$9,0*
20,1,$1+$1,$8,$9,$2,$3,0*%
G04 Aperture macros list end*
%ADD10R,1.000000X3.000000*%
%ADD11RoundRect,0.225000X0.250000X-0.225000X0.250000X0.225000X-0.250000X0.225000X-0.250000X-0.225000X0*%
%ADD12RoundRect,0.140000X-0.170000X0.140000X-0.170000X-0.140000X0.170000X-0.140000X0.170000X0.140000X0*%
%ADD13RoundRect,0.200000X-0.275000X0.200000X-0.275000X-0.200000X0.275000X-0.200000X0.275000X0.200000X0*%
%ADD14R,0.900000X0.900000*%
%ADD15R,1.500000X0.900000*%
%ADD16R,0.900000X1.500000*%
%ADD17RoundRect,0.135000X0.185000X-0.135000X0.185000X0.135000X-0.185000X0.135000X-0.185000X-0.135000X0*%
%ADD18R,1.100000X1.800000*%
G04 APERTURE END LIST*
D10*
%TO.C,REF\u002A\u002A*%
X135870000Y-111506000D03*
X135870000Y-106466000D03*
X133330000Y-111506000D03*
X133330000Y-106466000D03*
%TD*%
D11*
%TO.C,REF\u002A\u002A*%
X106426000Y-89421000D03*
X106426000Y-87871000D03*
%TD*%
D12*
%TO.C,C1*%
X106426000Y-90706000D03*
X106426000Y-91666000D03*
%TD*%
D13*
%TO.C,R2*%
X130556000Y-108141000D03*
X130556000Y-109791000D03*
%TD*%
D14*
%TO.C,U1*%
X115310000Y-94674000D03*
X115310000Y-96074000D03*
X115310000Y-97474000D03*
X116710000Y-94674000D03*
X116710000Y-96074000D03*
X116710000Y-97474000D03*
X118110000Y-94674000D03*
X118110000Y-96074000D03*
X118110000Y-97474000D03*
D15*
X109460000Y-88354000D03*
X109460000Y-89624000D03*
X109460000Y-90894000D03*
X109460000Y-92164000D03*
X109460000Y-93434000D03*
X109460000Y-94704000D03*
X109460000Y-95974000D03*
X109460000Y-97244000D03*
X109460000Y-98514000D03*
X109460000Y-99784000D03*
X109460000Y-101054000D03*
X109460000Y-102324000D03*
X109460000Y-103594000D03*
X109460000Y-104864000D03*
D16*
X111225000Y-106114000D03*
X112495000Y-106114000D03*
X113765000Y-106114000D03*
X115035000Y-106114000D03*
X116305000Y-106114000D03*
X117575000Y-106114000D03*
X118845000Y-106114000D03*
X120115000Y-106114000D03*
X121385000Y-106114000D03*
X122655000Y-106114000D03*
X123925000Y-106114000D03*
X125195000Y-106114000D03*
D15*
X126960000Y-104864000D03*
X126960000Y-103594000D03*
X126960000Y-102324000D03*
X126960000Y-101054000D03*
X126960000Y-99784000D03*
X126960000Y-98514000D03*
X126960000Y-97244000D03*
X126960000Y-95974000D03*
X126960000Y-94704000D03*
X126960000Y-93434000D03*
X126960000Y-92164000D03*
X126960000Y-90894000D03*
X126960000Y-89624000D03*
X126960000Y-88354000D03*
%TD*%
D17*
%TO.C,R1*%
X107696000Y-90680000D03*
X107696000Y-89660000D03*
%TD*%
D18*
%TO.C,SW2*%
X134040000Y-100636000D03*
X134040000Y-94436000D03*
X137740000Y-100636000D03*
X137740000Y-94436000D03*
%TD*%
M02*
